<?xml version="1.0" encoding="utf-8"?>
<!-- Generator: Adobe Illustrator 18.1.1, SVG Export Plug-In . SVG Version: 6.00 Build 0)  -->
<svg version="1.1" id="Layer_1" xmlns="http://www.w3.org/2000/svg" xmlns:xlink="http://www.w3.org/1999/xlink" x="0px" y="0px"
	 viewBox="0 0 120 68" enable-background="new 0 0 120 68" xml:space="preserve">
<g>
	<path fill="#EAC516" d="M17.7,42.9h-4.3V26.8h4v2.3c0.7-1.1,1.3-1.8,1.8-2.1c0.5-0.3,1.2-0.5,1.8-0.5c1,0,1.9,0.3,2.8,0.8L22.6,31
		c-0.7-0.5-1.4-0.7-2-0.7c-0.6,0-1.1,0.2-1.5,0.5c-0.4,0.3-0.7,0.9-1,1.8c-0.2,0.9-0.4,2.7-0.4,5.4V42.9z"/>
	<path fill="#EAC516" d="M31.3,37.8l4.2,0.7C35,40,34.2,41.2,33,42c-1.2,0.8-2.6,1.2-4.4,1.2c-2.8,0-4.9-0.9-6.2-2.7
		c-1.1-1.5-1.6-3.3-1.6-5.5c0-2.7,0.7-4.8,2.1-6.3c1.4-1.5,3.2-2.3,5.3-2.3c2.4,0,4.3,0.8,5.7,2.4c1.4,1.6,2,4,2,7.3H25.1
		c0,1.3,0.4,2.2,1,2.9c0.7,0.7,1.5,1.1,2.5,1.1c0.7,0,1.2-0.2,1.7-0.5S31.1,38.6,31.3,37.8z M31.6,33.5c0-1.2-0.3-2.2-1-2.8
		c-0.6-0.6-1.3-1-2.2-1c-0.9,0-1.7,0.3-2.3,1c-0.6,0.7-0.9,1.6-0.9,2.8H31.6z"/>
	<path fill="#EAC516" d="M35.5,42.9V20.7h4.3v22.2H35.5z"/>
	<path fill="#EAC516" d="M49.7,37.8l4.2,0.7c-0.5,1.6-1.4,2.7-2.6,3.5c-1.2,0.8-2.6,1.2-4.4,1.2c-2.8,0-4.9-0.9-6.2-2.7
		c-1.1-1.5-1.6-3.3-1.6-5.5c0-2.7,0.7-4.8,2.1-6.3c1.4-1.5,3.2-2.3,5.3-2.3c2.4,0,4.3,0.8,5.7,2.4c1.4,1.6,2,4,2,7.3H43.5
		c0,1.3,0.4,2.2,1,2.9c0.7,0.7,1.5,1.1,2.5,1.1c0.7,0,1.2-0.2,1.7-0.5S49.5,38.6,49.7,37.8z M50,33.5c0-1.2-0.3-2.2-1-2.8
		c-0.6-0.6-1.3-1-2.2-1c-0.9,0-1.7,0.3-2.3,1c-0.6,0.7-0.9,1.6-0.9,2.8H50z"/>
	<path fill="#EAC516" d="M57.1,31.7L53.3,31c0.4-1.6,1.2-2.7,2.2-3.5c1.1-0.7,2.6-1.1,4.7-1.1c1.9,0,3.3,0.2,4.2,0.7
		c0.9,0.4,1.6,1,2,1.7c0.4,0.7,0.6,2,0.6,3.8l0,5c0,1.4,0.1,2.5,0.2,3.1c0.1,0.7,0.4,1.4,0.8,2.2h-4.2c-0.1-0.3-0.2-0.7-0.4-1.3
		c-0.1-0.3-0.1-0.4-0.2-0.5c-0.7,0.7-1.5,1.2-2.3,1.6c-0.8,0.4-1.7,0.5-2.6,0.5c-1.7,0-3-0.4-3.9-1.3c-1-0.9-1.4-2-1.4-3.4
		c0-0.9,0.2-1.7,0.7-2.4c0.4-0.7,1-1.3,1.8-1.6c0.8-0.4,1.9-0.7,3.4-1c2-0.4,3.4-0.7,4.1-1V32c0-0.8-0.2-1.4-0.6-1.7
		c-0.4-0.3-1.2-0.5-2.3-0.5c-0.8,0-1.3,0.1-1.8,0.4C57.7,30.5,57.4,31,57.1,31.7z M62.8,35.2c-0.5,0.2-1.4,0.4-2.6,0.7
		c-1.2,0.3-2,0.5-2.3,0.7c-0.6,0.4-0.8,0.9-0.8,1.5c0,0.6,0.2,1.1,0.7,1.5c0.4,0.4,1,0.7,1.7,0.7c0.8,0,1.5-0.3,2.2-0.8
		c0.5-0.4,0.9-0.9,1-1.4c0.1-0.4,0.2-1.1,0.2-2.1V35.2z"/>
	<path fill="#EAC516" d="M66,38.3l4.3-0.7c0.2,0.8,0.5,1.5,1.1,1.9c0.6,0.4,1.3,0.6,2.3,0.6c1.1,0,1.9-0.2,2.5-0.6
		c0.4-0.3,0.6-0.7,0.6-1.1c0-0.3-0.1-0.6-0.3-0.8c-0.2-0.2-0.7-0.4-1.4-0.6c-3.4-0.8-5.6-1.4-6.5-2.1c-1.3-0.9-1.9-2.1-1.9-3.6
		c0-1.4,0.6-2.6,1.7-3.5c1.1-0.9,2.8-1.4,5.1-1.4c2.2,0,3.8,0.4,4.9,1.1c1.1,0.7,1.8,1.8,2.2,3.2l-4,0.7c-0.2-0.6-0.5-1.1-1-1.4
		c-0.5-0.3-1.2-0.5-2.1-0.5c-1.1,0-1.9,0.2-2.4,0.5c-0.3,0.2-0.5,0.5-0.5,0.9c0,0.3,0.1,0.6,0.4,0.8c0.4,0.3,1.7,0.7,4,1.2
		c2.3,0.5,3.8,1.1,4.7,1.9c0.9,0.8,1.3,1.8,1.3,3.2c0,1.5-0.6,2.7-1.8,3.8s-3.1,1.6-5.5,1.6c-2.2,0-3.9-0.4-5.2-1.3
		C67.2,41,66.4,39.8,66,38.3z"/>
	<path fill="#EAC516" d="M90.3,37.8l4.2,0.7C94,40,93.1,41.2,92,42c-1.2,0.8-2.6,1.2-4.4,1.2c-2.8,0-4.9-0.9-6.2-2.7
		c-1.1-1.5-1.6-3.3-1.6-5.5c0-2.7,0.7-4.8,2.1-6.3c1.4-1.5,3.2-2.3,5.3-2.3c2.4,0,4.3,0.8,5.7,2.4c1.4,1.6,2,4,2,7.3H84.1
		c0,1.3,0.4,2.2,1,2.9c0.7,0.7,1.5,1.1,2.5,1.1c0.7,0,1.2-0.2,1.7-0.5S90.1,38.6,90.3,37.8z M90.5,33.5c0-1.2-0.3-2.2-1-2.8
		c-0.6-0.6-1.3-1-2.2-1c-0.9,0-1.7,0.3-2.3,1c-0.6,0.7-0.9,1.6-0.9,2.8H90.5z"/>
	<path fill="#EAC516" d="M93,38.3l4.3-0.7c0.2,0.8,0.5,1.5,1.1,1.9c0.6,0.4,1.3,0.6,2.3,0.6c1.1,0,1.9-0.2,2.5-0.6
		c0.4-0.3,0.6-0.7,0.6-1.1c0-0.3-0.1-0.6-0.3-0.8c-0.2-0.2-0.7-0.4-1.4-0.6c-3.4-0.8-5.6-1.4-6.5-2.1c-1.3-0.9-1.9-2.1-1.9-3.6
		c0-1.4,0.6-2.6,1.7-3.5c1.1-0.9,2.8-1.4,5.1-1.4c2.2,0,3.8,0.4,4.9,1.1c1.1,0.7,1.8,1.8,2.2,3.2l-4,0.7c-0.2-0.6-0.5-1.1-1-1.4
		c-0.5-0.3-1.2-0.5-2.1-0.5c-1.1,0-1.9,0.2-2.4,0.5c-0.3,0.2-0.5,0.5-0.5,0.9c0,0.3,0.1,0.6,0.4,0.8c0.4,0.3,1.7,0.7,4,1.2
		c2.3,0.5,3.8,1.1,4.7,1.9c0.9,0.8,1.3,1.8,1.3,3.2c0,1.5-0.6,2.7-1.8,3.8s-3.1,1.6-5.5,1.6c-2.2,0-3.9-0.4-5.2-1.3
		C94.2,41,93.4,39.8,93,38.3z"/>
</g>
</svg>
