<?xml version="1.0" encoding="utf-8"?>
<!-- Generator: Adobe Illustrator 18.1.1, SVG Export Plug-In . SVG Version: 6.00 Build 0)  -->
<svg version="1.1" id="Layer_1" xmlns="http://www.w3.org/2000/svg" xmlns:xlink="http://www.w3.org/1999/xlink" x="0px" y="0px"
	 viewBox="0 0 120 68" enable-background="new 0 0 120 68" xml:space="preserve">
<g>
	<path fill="#FFFFFF" d="M23.6,26.6h3.9v2.2c1.4-1.7,3.1-2.6,5-2.6c1,0,1.9,0.2,2.7,0.6s1.4,1.1,1.9,1.9c0.7-0.9,1.5-1.5,2.3-1.9
		s1.7-0.6,2.6-0.6c1.2,0,2.2,0.2,3,0.7c0.8,0.5,1.4,1.2,1.8,2.1c0.3,0.7,0.4,1.8,0.4,3.3v10.3H43v-9.2c0-1.6-0.1-2.6-0.4-3.1
		c-0.4-0.6-1-0.9-1.8-0.9c-0.6,0-1.2,0.2-1.7,0.5c-0.5,0.4-0.9,0.9-1.1,1.6c-0.2,0.7-0.3,1.8-0.3,3.3v7.7h-4.3v-8.8
		c0-1.6-0.1-2.6-0.2-3s-0.4-0.8-0.7-1c-0.3-0.2-0.7-0.3-1.3-0.3c-0.7,0-1.2,0.2-1.8,0.5c-0.5,0.4-0.9,0.9-1.1,1.5
		c-0.2,0.7-0.3,1.8-0.3,3.3v7.8h-4.3V26.6z"/>
	<path fill="#FFFFFF" d="M57.1,37.6l4.2,0.7c-0.5,1.6-1.4,2.7-2.6,3.5s-2.6,1.2-4.4,1.2c-2.8,0-4.9-0.9-6.2-2.7
		c-1.1-1.5-1.6-3.3-1.6-5.5c0-2.7,0.7-4.8,2.1-6.3c1.4-1.5,3.2-2.3,5.3-2.3c2.4,0,4.3,0.8,5.7,2.4c1.4,1.6,2,4,2,7.3H50.9
		c0,1.3,0.4,2.2,1,2.9c0.7,0.7,1.5,1.1,2.5,1.1c0.7,0,1.2-0.2,1.7-0.5S56.9,38.4,57.1,37.6z M57.3,33.3c0-1.2-0.3-2.2-1-2.8
		c-0.6-0.6-1.3-1-2.2-1c-0.9,0-1.7,0.3-2.3,1c-0.6,0.7-0.9,1.6-0.9,2.8H57.3z"/>
	<path fill="#FFFFFF" d="M76,42.7h-4v-2.4c-0.7,0.9-1.4,1.6-2.3,2.1c-0.9,0.4-1.8,0.7-2.7,0.7c-1.8,0-3.4-0.7-4.7-2.2
		c-1.3-1.5-2-3.6-2-6.2c0-2.7,0.6-4.8,1.9-6.2c1.3-1.4,2.9-2.1,4.9-2.1c1.8,0,3.4,0.7,4.7,2.2v-8H76V42.7z M64.7,34.3
		c0,1.7,0.2,3,0.7,3.7c0.7,1.1,1.6,1.7,2.9,1.7c1,0,1.8-0.4,2.5-1.2c0.7-0.8,1-2.1,1-3.7c0-1.8-0.3-3.2-1-4
		c-0.7-0.8-1.5-1.2-2.6-1.2c-1,0-1.9,0.4-2.5,1.2C65,31.5,64.7,32.7,64.7,34.3z"/>
	<path fill="#FFFFFF" d="M76.5,24.5v-3.9h4.3v3.9H76.5z M76.5,42.7V26.6h4.3v16.1H76.5z"/>
	<path fill="#FFFFFF" d="M84.6,31.5l-3.9-0.7c0.4-1.6,1.2-2.7,2.2-3.5c1.1-0.7,2.6-1.1,4.7-1.1c1.9,0,3.3,0.2,4.2,0.7
		c0.9,0.4,1.6,1,2,1.7c0.4,0.7,0.6,2,0.6,3.8l0,5c0,1.4,0.1,2.5,0.2,3.1c0.1,0.7,0.4,1.4,0.8,2.2h-4.2c-0.1-0.3-0.2-0.7-0.4-1.3
		c-0.1-0.3-0.1-0.4-0.2-0.5c-0.7,0.7-1.5,1.2-2.3,1.6c-0.8,0.4-1.7,0.5-2.6,0.5c-1.7,0-3-0.4-3.9-1.3c-1-0.9-1.4-2-1.4-3.4
		c0-0.9,0.2-1.7,0.7-2.4c0.4-0.7,1-1.3,1.8-1.6c0.8-0.4,1.9-0.7,3.4-1c2-0.4,3.4-0.7,4.1-1v-0.4c0-0.8-0.2-1.4-0.6-1.7
		c-0.4-0.3-1.2-0.5-2.3-0.5c-0.8,0-1.3,0.1-1.8,0.4C85.2,30.3,84.9,30.8,84.6,31.5z M90.3,35c-0.5,0.2-1.4,0.4-2.6,0.7
		c-1.2,0.3-2,0.5-2.3,0.7c-0.6,0.4-0.8,0.9-0.8,1.5c0,0.6,0.2,1.1,0.7,1.5c0.4,0.4,1,0.7,1.7,0.7c0.8,0,1.5-0.3,2.2-0.8
		c0.5-0.4,0.9-0.9,1-1.4c0.1-0.4,0.2-1.1,0.2-2.1V35z"/>
</g>
</svg>
