<?xml version="1.0" encoding="utf-8"?>
<!-- Generator: Adobe Illustrator 18.1.1, SVG Export Plug-In . SVG Version: 6.00 Build 0)  -->
<svg version="1.1" id="Layer_1" xmlns="http://www.w3.org/2000/svg" xmlns:xlink="http://www.w3.org/1999/xlink" x="0px" y="0px"
	 viewBox="0 0 120 68" enable-background="new 0 0 120 68" xml:space="preserve">
<g>
	<path fill="#FFFFFF" d="M45.3,27v3.4h-2.9v6.5c0,1.3,0,2.1,0.1,2.3c0.1,0.2,0.2,0.4,0.4,0.5c0.2,0.1,0.4,0.2,0.7,0.2
		c0.4,0,1-0.1,1.7-0.4l0.4,3.3c-1,0.4-2.1,0.6-3.4,0.6c-0.8,0-1.5-0.1-2.1-0.4c-0.6-0.3-1.1-0.6-1.4-1c-0.3-0.4-0.5-1-0.6-1.7
		c-0.1-0.5-0.1-1.5-0.1-3v-7h-2V27h2v-3.2l4.3-2.5V27H45.3z"/>
	<path fill="#FFFFFF" d="M43.6,34.8c0-1.4,0.3-2.8,1-4.1c0.7-1.3,1.7-2.3,3-3c1.3-0.7,2.7-1,4.3-1c2.4,0,4.4,0.8,6,2.4
		c1.6,1.6,2.3,3.6,2.3,6c0,2.4-0.8,4.4-2.4,6c-1.6,1.6-3.5,2.4-5.9,2.4c-1.5,0-2.9-0.3-4.2-1c-1.3-0.7-2.4-1.6-3.1-2.9
		C43.9,38.2,43.6,36.7,43.6,34.8z M47.9,35c0,1.6,0.4,2.8,1.1,3.7c0.8,0.8,1.7,1.3,2.8,1.3s2-0.4,2.8-1.3c0.8-0.8,1.1-2.1,1.1-3.7
		c0-1.6-0.4-2.8-1.1-3.6c-0.8-0.8-1.7-1.3-2.8-1.3s-2,0.4-2.8,1.3C48.3,32.2,47.9,33.4,47.9,35z"/>
	<path fill="#FFFFFF" d="M70.4,43.1v-2.4c-0.6,0.9-1.4,1.5-2.3,2c-1,0.5-2,0.7-3,0.7c-1.1,0-2-0.2-2.9-0.7s-1.5-1.1-1.9-2
		c-0.4-0.9-0.6-2-0.6-3.6V27h4.3v7.4c0,2.3,0.1,3.6,0.2,4.2c0.2,0.5,0.4,0.9,0.9,1.2c0.4,0.3,0.9,0.4,1.6,0.4c0.7,0,1.4-0.2,2-0.6
		c0.6-0.4,1-0.9,1.2-1.5c0.2-0.6,0.3-2,0.3-4.3V27h4.3v16.1H70.4z"/>
	<path fill="#FFFFFF" d="M79.1,43.1h-4.3V27h4v2.3c0.7-1.1,1.3-1.8,1.8-2.1c0.5-0.3,1.2-0.5,1.8-0.5c1,0,1.9,0.3,2.8,0.8l-1.3,3.7
		c-0.7-0.5-1.4-0.7-2-0.7c-0.6,0-1.1,0.2-1.5,0.5c-0.4,0.3-0.7,0.9-1,1.8c-0.2,0.9-0.4,2.7-0.4,5.4V43.1z"/>
</g>
</svg>
