<?xml version="1.0" encoding="utf-8"?>
<!-- Generator: Adobe Illustrator 18.1.1, SVG Export Plug-In . SVG Version: 6.00 Build 0)  -->
<svg version="1.1" id="Layer_1" xmlns="http://www.w3.org/2000/svg" xmlns:xlink="http://www.w3.org/1999/xlink" x="0px" y="0px"
	 viewBox="0 0 120 68" enable-background="new 0 0 120 68" xml:space="preserve">
<g>
	<path fill="#FFFFFF" d="M30.2,31.4l-3.9-0.7c0.5-1.6,1.2-2.7,2.3-3.5s2.6-1.1,4.7-1.1c1.9,0,3.3,0.2,4.2,0.7c0.9,0.5,1.6,1,2,1.7
		c0.4,0.7,0.6,2,0.6,3.9v5c0,1.4,0.1,2.5,0.2,3.1c0.1,0.7,0.4,1.4,0.8,2.2h-4.2c-0.1-0.3-0.3-0.7-0.4-1.2c-0.1-0.3-0.1-0.4-0.2-0.5
		c-0.8,0.8-1.5,1.2-2.4,1.6c-0.8,0.4-1.7,0.6-2.6,0.6c-1.7,0-3-0.5-4-1.3c-0.9-0.9-1.4-2.1-1.4-3.4c0-0.9,0.2-1.7,0.7-2.5
		c0.5-0.8,1-1.2,1.8-1.6c0.8-0.4,1.9-0.8,3.4-1c2-0.4,3.4-0.8,4.2-1v-0.5c0-0.9-0.2-1.4-0.6-1.8c-0.4-0.4-1.1-0.6-2.3-0.6
		c-0.8,0-1.3,0.2-1.8,0.5C30.7,30.1,30.3,30.6,30.2,31.4z M35.8,34.9c-0.6,0.2-1.4,0.4-2.6,0.7c-1.2,0.3-1.9,0.5-2.3,0.8
		c-0.6,0.4-0.8,0.9-0.8,1.5s0.2,1.1,0.7,1.5c0.5,0.4,1,0.7,1.7,0.7c0.8,0,1.5-0.3,2.2-0.8c0.5-0.4,0.9-0.9,1-1.4
		c0.1-0.4,0.2-1,0.2-2.1V34.9z"/>
	<path fill="#FFFFFF" d="M40.4,42.6V20.3h4.2v8c1.3-1.5,2.9-2.3,4.7-2.3c2,0,3.6,0.8,4.9,2.2s1.9,3.5,1.9,6.1c0,2.7-0.7,4.9-2,6.4
		c-1.3,1.5-2.9,2.3-4.8,2.3c-0.9,0-1.8-0.2-2.7-0.7c-0.9-0.5-1.7-1.1-2.4-2.1v2.3H40.4z M44.6,34.2c0,1.7,0.3,2.9,0.8,3.7
		c0.8,1.1,1.7,1.7,2.9,1.7c0.9,0,1.8-0.4,2.5-1.2c0.7-0.9,1-2.1,1-3.8c0-1.9-0.4-3.2-1-4c-0.7-0.8-1.5-1.2-2.5-1.2s-1.9,0.4-2.5,1.2
		C45,31.5,44.6,32.6,44.6,34.2z"/>
	<path fill="#FFFFFF" d="M54.8,34.3c0-1.4,0.4-2.8,1-4.2c0.7-1.3,1.7-2.4,2.9-3c1.2-0.7,2.7-1,4.3-1c2.5,0,4.4,0.8,6,2.4
		c1.6,1.6,2.4,3.6,2.4,6s-0.8,4.4-2.4,6s-3.6,2.5-6,2.5c-1.5,0-2.9-0.4-4.2-1s-2.4-1.6-3-2.9C55.2,37.7,54.8,36.2,54.8,34.3z
		 M59.2,34.5c0,1.6,0.4,2.8,1.1,3.7c0.8,0.8,1.7,1.3,2.8,1.3c1.1,0,2.1-0.5,2.8-1.3c0.8-0.9,1.1-2.1,1.1-3.7s-0.4-2.8-1.1-3.7
		c-0.8-0.9-1.7-1.3-2.8-1.3c-1.1,0-2.1,0.5-2.8,1.3C59.6,31.7,59.2,32.9,59.2,34.5z"/>
	<path fill="#FFFFFF" d="M81.7,42.6v-2.5c-0.6,0.9-1.3,1.5-2.4,2.1c-0.9,0.5-2,0.8-3,0.8s-2.1-0.3-2.9-0.8s-1.5-1.1-1.9-2
		c-0.4-0.9-0.6-2.1-0.6-3.6V26.5h4.2v7.5c0,2.3,0.1,3.7,0.2,4.2c0.2,0.5,0.5,0.9,0.9,1.2c0.4,0.3,0.9,0.5,1.6,0.5
		c0.8,0,1.4-0.2,2-0.6c0.6-0.4,0.9-0.9,1.2-1.5c0.2-0.6,0.3-2.1,0.3-4.3v-6.8h4.2v16.1H81.7z"/>
	<path fill="#FFFFFF" d="M93.8,26.5v3.4h-2.9v6.5c0,1.3,0,2.1,0.1,2.3c0.1,0.2,0.2,0.4,0.4,0.6s0.5,0.2,0.8,0.2
		c0.4,0,0.9-0.1,1.7-0.4l0.4,3.3c-1,0.5-2.1,0.7-3.4,0.7c-0.8,0-1.5-0.1-2.1-0.4c-0.7-0.3-1-0.6-1.3-1c-0.3-0.4-0.5-0.9-0.6-1.7
		c-0.1-0.5-0.1-1.5-0.1-3v-7.1h-2v-3.4h2v-3.2l4.2-2.5v5.7L93.8,26.5L93.8,26.5z"/>
</g>
</svg>
