<?xml version="1.0" encoding="utf-8"?>
<!-- Generator: Adobe Illustrator 18.1.1, SVG Export Plug-In . SVG Version: 6.00 Build 0)  -->
<svg version="1.1" id="Layer_1" xmlns="http://www.w3.org/2000/svg" xmlns:xlink="http://www.w3.org/1999/xlink" x="0px" y="0px"
	 viewBox="0 0 120 68" enable-background="new 0 0 120 68" xml:space="preserve">
<g>
	<path fill="#FFFFFF" d="M31.2,37.6l4.3-0.7c0.2,0.8,0.5,1.5,1.1,1.9c0.6,0.4,1.3,0.6,2.3,0.6c1.1,0,1.9-0.2,2.5-0.6
		c0.4-0.3,0.6-0.7,0.6-1.1c0-0.3-0.1-0.6-0.3-0.8c-0.2-0.2-0.7-0.4-1.4-0.6c-3.4-0.8-5.6-1.4-6.5-2.1c-1.3-0.9-1.9-2.1-1.9-3.6
		c0-1.4,0.5-2.6,1.6-3.5c1.1-0.9,2.8-1.4,5.1-1.4c2.2,0,3.8,0.4,4.9,1.1c1.1,0.7,1.8,1.8,2.2,3.2l-4,0.7c-0.2-0.6-0.5-1.1-1-1.4
		c-0.5-0.3-1.2-0.5-2.1-0.5c-1.1,0-1.9,0.2-2.4,0.5c-0.3,0.2-0.5,0.5-0.5,0.9c0,0.3,0.1,0.6,0.4,0.8c0.4,0.3,1.7,0.7,4,1.2
		c2.3,0.5,3.8,1.1,4.7,1.9c0.9,0.8,1.3,1.8,1.3,3.2c0,1.5-0.6,2.7-1.8,3.8c-1.2,1.1-3.1,1.6-5.5,1.6c-2.2,0-3.9-0.4-5.2-1.3
		C32.5,40.3,31.6,39.1,31.2,37.6z"/>
	<path fill="#FFFFFF" d="M53.6,26.1v3.4h-2.9V36c0,1.3,0,2.1,0.1,2.3c0.1,0.2,0.2,0.4,0.4,0.5c0.2,0.1,0.4,0.2,0.7,0.2
		c0.4,0,1-0.1,1.7-0.4l0.4,3.3c-1,0.4-2.1,0.6-3.4,0.6c-0.8,0-1.5-0.1-2.1-0.4c-0.6-0.3-1.1-0.6-1.4-1c-0.3-0.4-0.5-1-0.6-1.7
		c-0.1-0.5-0.1-1.5-0.1-3v-7h-2v-3.4h2v-3.2l4.3-2.5v5.7H53.6z"/>
	<path fill="#FFFFFF" d="M51.9,33.9c0-1.4,0.3-2.8,1-4.1c0.7-1.3,1.7-2.3,3-3c1.3-0.7,2.7-1,4.3-1c2.4,0,4.4,0.8,6,2.4
		c1.6,1.6,2.3,3.6,2.3,6c0,2.4-0.8,4.4-2.4,6c-1.6,1.6-3.5,2.4-5.9,2.4c-1.5,0-2.9-0.3-4.2-1c-1.3-0.7-2.4-1.6-3.1-2.9
		C52.2,37.3,51.9,35.7,51.9,33.9z M56.2,34.1c0,1.6,0.4,2.8,1.1,3.7s1.7,1.3,2.8,1.3c1.1,0,2-0.4,2.8-1.3s1.1-2.1,1.1-3.7
		c0-1.6-0.4-2.8-1.1-3.6s-1.7-1.3-2.8-1.3c-1.1,0-2,0.4-2.8,1.3S56.2,32.5,56.2,34.1z"/>
	<path fill="#FFFFFF" d="M72.1,42.2h-4.3V26.1h4v2.3c0.7-1.1,1.3-1.8,1.8-2.1c0.5-0.3,1.2-0.5,1.8-0.5c1,0,1.9,0.3,2.8,0.8L77,30.2
		c-0.7-0.5-1.4-0.7-2-0.7c-0.6,0-1.1,0.2-1.5,0.5c-0.4,0.3-0.7,0.9-1,1.8c-0.2,0.9-0.4,2.7-0.4,5.4V42.2z"/>
	<path fill="#FFFFFF" d="M85.7,37.1l4.2,0.7c-0.5,1.6-1.4,2.7-2.6,3.5c-1.2,0.8-2.6,1.2-4.4,1.2c-2.8,0-4.9-0.9-6.2-2.7
		c-1.1-1.5-1.6-3.3-1.6-5.5c0-2.7,0.7-4.8,2.1-6.3c1.4-1.5,3.2-2.3,5.3-2.3c2.4,0,4.3,0.8,5.7,2.4c1.4,1.6,2,4,2,7.3H79.5
		c0,1.3,0.4,2.2,1,2.9c0.7,0.7,1.5,1.1,2.5,1.1c0.7,0,1.2-0.2,1.7-0.5S85.5,37.9,85.7,37.1z M86,32.8c0-1.2-0.3-2.2-1-2.8
		c-0.6-0.6-1.3-1-2.2-1c-0.9,0-1.7,0.3-2.3,1c-0.6,0.7-0.9,1.6-0.9,2.8H86z"/>
</g>
</svg>
