<?xml version="1.0" encoding="utf-8"?>
<!-- Generator: Adobe Illustrator 18.1.1, SVG Export Plug-In . SVG Version: 6.00 Build 0)  -->
<svg version="1.1" xmlns="http://www.w3.org/2000/svg" xmlns:xlink="http://www.w3.org/1999/xlink" x="0px" y="0px"
	 viewBox="0 0 371 111.5" enable-background="new 0 0 371 111.5" xml:space="preserve">
<g id="Layer_1" display="none">
</g>
<g id="Layer_2">
	<circle fill="#E9C41D" cx="187" cy="73" r="38"/>
	<path opacity="0.5" fill="#736A68" d="M187,37c20.7,0,37.5,16.5,38,37c0-0.3,0-0.7,0-1c0-21-17-38-38-38s-38,17-38,38
		c0,0.3,0,0.7,0,1C149.6,53.5,166.4,37,187,37z"/>
	<path opacity="0.5" fill="#736A68" d="M187,109c-20.7,0-37.5-16.5-38-37c0,0.3,0,0.7,0,1c0,21,17,38,38,38s38-17,38-38
		c0-0.3,0-0.7,0-1C224.5,92.6,207.7,109,187,109z"/>
	<circle cx="187" cy="73" r="15.5"/>
	<circle fill="#5E4A3E" cx="187" cy="73" r="4.8"/>
	<path fill="#C1C0C0" d="M191.9,81.4c0.8,0.8,2.2,0.7,3.2-0.2c0.9-0.9,1.1-2.4,0.2-3.2c-0.1-0.1-0.3-0.3-0.3-0.3l-6.3-6.3l-3.4,3.4
		l6.3,6.3C191.7,81.1,191.9,81.3,191.9,81.4z"/>
	<circle fill="#F4F4F4" cx="187" cy="73" r="3.6"/>
	<g>
		<g>
			<g opacity="0.5">
				<g>
					<g>
						<path fill="#FBB040" d="M212,73h-1.4c0,13-10.6,23.6-23.6,23.6V98C200.8,98,212,86.8,212,73z"/>
						<path fill="#FFFFFF" d="M187,98.5h-0.5v-2.4h0.5c12.7,0,23.1-10.4,23.1-23.1v-0.5h2.4V73C212.5,87.1,201.1,98.5,187,98.5z
							 M187.5,97.1v0.4c13.1-0.3,23.7-10.9,24-24h-0.4C210.8,86.4,200.4,96.8,187.5,97.1z"/>
					</g>
					<g>
						<path fill="#FBB040" d="M207.4,73H206c0,10.5-8.5,19-19,19v1.4C198.3,93.4,207.4,84.3,207.4,73z"/>
						<path fill="#FFFFFF" d="M187,93.9h-0.5v-2.4h0.5c10.2,0,18.5-8.3,18.5-18.5v-0.5h2.4V73C207.9,84.6,198.6,93.9,187,93.9z
							 M187.5,92.5v0.4c10.6-0.3,19.2-8.8,19.4-19.4h-0.4C206.3,83.9,197.9,92.3,187.5,92.5z"/>
					</g>
					<g>
						<path fill="#FBB040" d="M216.8,73h-1.4c0,15.6-12.7,28.4-28.4,28.4v1.4C203.4,102.8,216.8,89.4,216.8,73z"/>
						<path fill="#FFFFFF" d="M187,103.3h-0.5v-2.4h0.5c15.4,0,27.9-12.5,27.9-27.9v-0.5h2.4V73C217.3,89.7,203.7,103.3,187,103.3z
							 M187.5,101.9v0.4c15.7-0.3,28.5-13,28.8-28.8h-0.4C215.6,89,203,101.6,187.5,101.9z"/>
					</g>
				</g>
			</g>
			<g opacity="0.5">
				<g>
					<g>
						<path fill="#FBB040" d="M187,48v1.4c-13,0-23.6,10.6-23.6,23.6H162C162,59.2,173.2,48,187,48z"/>
						<path fill="#FFFFFF" d="M163.9,73.5h-2.4V73c0-14.1,11.4-25.5,25.5-25.5h0.5v2.4H187c-12.7,0-23.1,10.4-23.1,23.1V73.5z
							 M162.5,72.5h0.4c0.3-12.9,10.7-23.3,23.6-23.6v-0.4C173.4,48.8,162.8,59.4,162.5,72.5z"/>
					</g>
					<g>
						<path fill="#FBB040" d="M187,52.6V54c-10.5,0-19,8.5-19,19h-1.4C166.6,61.8,175.8,52.6,187,52.6z"/>
						<path fill="#FFFFFF" d="M168.5,73.5h-2.4V73c0-11.5,9.4-20.9,20.9-20.9h0.5v2.4H187c-10.2,0-18.5,8.3-18.5,18.5V73.5z
							 M167.1,72.5h0.4c0.3-10.4,8.7-18.8,19-19v-0.4C175.9,53.4,167.4,61.9,167.1,72.5z"/>
					</g>
					<g>
						<path fill="#FBB040" d="M187,43.2v1.4c-15.6,0-28.4,12.7-28.4,28.4h-1.4C157.2,56.6,170.6,43.2,187,43.2z"/>
						<path fill="#FFFFFF" d="M159.1,73.5h-2.4V73c0-16.7,13.6-30.3,30.3-30.3h0.5v2.4H187c-15.4,0-27.9,12.5-27.9,27.9V73.5z
							 M157.8,72.5h0.4c0.3-15.5,12.8-28.1,28.4-28.4v-0.4C170.8,44,158,56.8,157.8,72.5z"/>
					</g>
				</g>
			</g>
		</g>
	</g>
	<g>
		<path d="M17.2,60.1v35.3c0,4.9,0.3,7.9,1,9c0.7,1.1,2.5,1.7,5.4,1.7l2.6-0.1v2.8H3.9V106h7V56.8l-5,6l-1.9-1.7L19,42.9l1.8,1.7
			l-3.6,4.3v5.4c1.9-1.7,3.5-3,4.9-4.1c1.4-1.1,2.7-1.9,4-2.4c0.9-0.4,1.8-0.6,2.7-0.8c0.9-0.1,1.8-0.2,2.8-0.2c0.1,0,0.2,0,0.3,0
			c0.1,0,0.2,0,0.4,0c1,0,2.1,0.1,3.3,0.4c1.2,0.3,2.6,0.7,4.2,1.4v-5.7h2.6V69h-2.6v-2.2c0-5.6-0.7-9.6-2.2-12.2
			c-1.4-2.6-3.8-3.9-7-3.9c-2.6,0-5.1,0.9-7.5,2.6c-2.4,1.7-4.4,4.1-6,7V60.1z"/>
		<path d="M49.1,68.3c-0.3,0.8-0.6,1.6-0.8,2.4c-0.4,1.1-0.6,2.3-0.8,3.5c-0.1,1.2-0.2,2.5-0.2,4c0,7.6,2.8,14.2,8.5,19.7
			c5.7,5.5,12.5,8.3,20.4,8.3c6.1,0,11.4-1.5,16-4.5c4.5-3,8.5-7.6,11.8-13.8l2.2,0.8c-0.6,1.5-1.3,2.8-1.8,3.9
			c-0.6,1.1-1.1,2.1-1.5,2.9c-0.6,0.8-1.1,1.6-1.6,2.3c-0.5,0.7-1.1,1.4-1.7,2c-0.3,0.4-0.6,0.7-1,1c-0.4,0.3-0.7,0.7-1.1,1
			c-2.4,2.2-5.2,4.1-8.4,5.5c-3.2,1.4-6.5,2.4-9.9,2.8c-0.7,0.2-1.5,0.3-2.3,0.3c-0.8,0-1.6,0.1-2.4,0.1c-9,0-16.6-2.9-22.9-8.6
			c-6.3-5.7-9.5-12.8-9.5-21.1c0-9,3.6-16.9,10.8-23.6c7.2-6.8,15.6-10.1,25.2-10.1c5.9,0,11.3,1.6,16,4.8
			c4.7,3.2,8.5,7.8,11.3,13.8h-55C49.9,66.6,49.5,67.5,49.1,68.3z M96.7,62.9c-3-3.8-6.3-6.6-10.1-8.5c-3.8-1.9-8.2-2.8-13.1-2.8
			c-4.1,0-8,1-11.9,3c-3.8,2-7.1,4.8-9.7,8.2H96.7z"/>
		<path d="M153.9,77.2V56.8c-0.6-0.4-1.1-0.7-1.7-1c-0.6-0.3-1.1-0.7-1.7-1c-1.9-1.1-3.9-1.9-5.8-2.5c-1.9-0.6-4-0.8-6.3-0.8
			c-7.4,0-13.7,2.5-18.9,7.6c-5.2,5.1-7.8,11.4-7.8,18.8c0,7.6,2.8,14.2,8.3,19.9c5.5,5.7,11.9,8.5,19.3,8.5c2.9,0,5.5-0.4,8-1.2
			c2.5-0.8,4.9-2.1,7.3-3.8c0.9-0.6,1.9-1.4,2.8-2.2c0.9-0.8,1.9-1.7,2.8-2.6l2.4,2.1c-3.4,3.6-7.3,6.6-11.7,8.8
			c-4.4,2.3-9,3.4-14,3.4c-8.4,0-15.6-2.9-21.5-8.8c-5.9-5.8-8.8-13-8.8-21.4c0-8.8,3.6-16.6,10.7-23.4c7.1-6.8,15.2-10.2,24.2-10.2
			c1.9,0,3.8,0.2,5.5,0.5c1.7,0.3,3.4,0.8,5.1,1.5c0.3,0.1,0.6,0.2,0.9,0.3c0.3,0.1,0.7,0.3,1,0.5v-6.8h2.6v34.5H153.9z"/>
		<path d="M224.8,60.1v35.3c0,4.9,0.3,7.9,1,9c0.7,1.1,2.5,1.7,5.4,1.7l2.6-0.1v2.8h-22.4V106h7V56.8l-5,6l-1.9-1.7l15.2-18.2
			l1.8,1.7l-3.6,4.3v5.4c1.9-1.7,3.5-3,4.9-4.1c1.4-1.1,2.7-1.9,4-2.4c0.9-0.4,1.8-0.6,2.7-0.8c0.9-0.1,1.8-0.2,2.8-0.2
			c0.1,0,0.2,0,0.3,0c0.1,0,0.2,0,0.4,0c1,0,2.1,0.1,3.3,0.4c1.2,0.3,2.6,0.7,4.2,1.4v-5.7h2.6V69h-2.6v-2.2c0-5.6-0.7-9.6-2.2-12.2
			c-1.4-2.6-3.8-3.9-7-3.9c-2.6,0-5.1,0.9-7.5,2.6c-2.4,1.7-4.4,4.1-6,7V60.1z"/>
		<path d="M303.4,100.4c-3,2.5-5.7,4.5-8.2,6s-4.9,2.5-7.2,3.1c-1.3,0.4-2.6,0.6-3.9,0.8c-1.3,0.2-2.6,0.3-3.9,0.3
			c-8.5,0-15.8-2.9-21.7-8.8c-5.9-5.9-8.9-13.1-8.9-21.6c0-8.7,3.6-16.4,10.8-23.2c7.2-6.8,15.4-10.1,24.7-10.1
			c2.2,0,4.3,0.2,6.3,0.7c2,0.5,4,1.2,6,2.2c0.9,0.6,1.9,1.1,2.9,1.7c1,0.6,2,1.3,3.1,2.2V17.9l-6,7.2l-1.9-1.7l15.3-18.1l1.8,1.7
			l-2.6,3.2v85.2c0,5.2,0.3,8.3,1,9.4c0.6,1.1,2.5,1.6,5.4,1.6l1.9-0.1v2.5h-14.9V100.4z M303.4,96.4V62.8c-0.9-1-1.9-2-2.8-2.9
			c-0.9-0.9-1.8-1.8-2.6-2.6c-2.5-2-5-3.5-7.6-4.4c-2.5-0.9-5.4-1.4-8.5-1.4c-7.3,0-13.6,2.5-19,7.4c-5.3,5-8,10.9-8,17.7
			c0,8.3,2.7,15.4,8.2,21.1c5.5,5.7,12.2,8.5,20.2,8.5c3.3,0,6.5-0.6,9.5-1.9c3-1.3,5.9-3.2,8.8-5.9c0.4-0.3,0.7-0.6,1-0.8
			c0.3-0.3,0.6-0.6,0.9-1V96.4z"/>
		<path d="M357.5,67.6c-0.3-6.7-1.3-11.4-3.2-14.2c-1.9-2.8-4.9-4.2-9.2-4.2c-2.9,0-5.3,0.9-7.4,2.8c-2,1.9-3.1,4.1-3.1,6.8
			c0,1.8,0.3,3.2,1,4.3c0.7,1.1,2,2.1,3.8,3.1c0.6,0.3,1.4,0.6,2.2,0.9c0.8,0.3,1.6,0.7,2.6,1c0.8,0.3,1.7,0.6,2.6,0.9
			c0.9,0.3,1.8,0.6,2.7,0.9c4.9,1.8,9.4,4.1,13.4,6.9c4,2.8,6,7.3,6,13.3c0,5.9-2.4,10.8-7.2,14.7c-4.8,3.9-10.8,5.8-18.1,5.8
			c-7.7,0-13.9-1.8-18.6-5.3c-4.7-3.5-7.1-8.2-7.1-14.2c0-4.1,1.6-7.6,4.7-10.6c3.1-3,6.9-4.4,11.1-4.4c3.5,0,6.4,1,8.8,2.9
			c2.3,1.9,3.5,4.4,3.5,7.5c0,1.9-0.6,3.5-1.9,5.1c-1.3,1.5-2.7,2.3-4.4,2.3c-0.6,0-1.2-0.2-1.5-0.6c-0.4-0.4-0.6-0.8-0.6-1.3
			c0-0.5,0.1-0.9,0.2-1.3c0.1-0.4,0.3-0.8,0.5-1.2c0.1-0.5,0.2-0.9,0.3-1.3c0.1-0.4,0.2-0.9,0.2-1.3c0-1.6-0.8-3-2.5-4.2
			s-3.6-1.9-5.7-1.9c-2.8,0-5.1,0.9-6.9,2.6c-1.8,1.8-2.7,4.1-2.7,6.9c0,4.5,2.5,8.6,7.6,12.2c5.1,3.6,10.9,5.4,17.4,5.4
			c5.2,0,9.3-1.5,12.4-4.6c3.1-3.1,4.6-7.1,4.6-12.2c0-4.9-1.8-8.4-5.3-10.4c-3.5-2-7.4-3.7-11.5-5.1c-4.2-1.4-8-3.1-11.5-5
			c-3.5-1.9-5.3-5.3-5.3-10.1c0-4,1.6-7.3,4.7-9.9c3.1-2.6,6.9-4,11.5-4c1.6,0,3.1,0.2,4.6,0.6c1.5,0.4,2.9,0.8,4.3,1.3
			c0.2,0.1,0.4,0.2,0.6,0.2c0.2,0,0.4,0.1,0.6,0.2c0.3,0.1,0.6,0.2,0.9,0.3c0.3,0.1,0.6,0.2,0.9,0.3v-6h2.6v24H357.5z"/>
	</g>
</g>
</svg>
