<!-- Generator: Adobe Illustrator 19.2.1, SVG Export Plug-In  -->
<svg version="1.1"
	 xmlns="http://www.w3.org/2000/svg" xmlns:xlink="http://www.w3.org/1999/xlink" xmlns:a="http://ns.adobe.com/AdobeSVGViewerExtensions/3.0/"
	 x="0px" y="0px" width="165.835px" height="62.568px" viewBox="0 0 165.835 62.568"
	 style="enable-background:new 0 0 165.835 62.568;" xml:space="preserve">
<style type="text/css">
	.st0{fill:#5D5D5D;}
</style>
<defs>
</defs>
<g>
	<path class="st0" d="M0,61.561V0h11.8v61.561H0z"/>
	<path class="st0" d="M22.392,30.57l-10.708-1.932c1.203-4.311,3.275-7.502,6.215-9.574c2.939-2.071,7.307-3.107,13.102-3.107
		c5.263,0,9.182,0.624,11.758,1.869c2.575,1.246,4.388,2.828,5.438,4.745c1.05,1.918,1.575,5.438,1.575,10.561l-0.126,13.773
		c0,3.92,0.189,6.81,0.567,8.671c0.378,1.862,1.084,3.857,2.121,5.984H40.659c-0.309-0.783-0.687-1.945-1.134-3.485
		c-0.196-0.699-0.336-1.161-0.42-1.386c-2.016,1.96-4.172,3.43-6.467,4.409c-2.296,0.979-4.745,1.47-7.349,1.47
		c-4.592,0-8.209-1.245-10.855-3.737c-2.646-2.491-3.968-5.641-3.968-9.448c0-2.52,0.602-4.767,1.806-6.74
		c1.203-1.974,2.89-3.485,5.06-4.535c2.169-1.05,5.297-1.966,9.385-2.75c5.515-1.035,9.336-2.001,11.464-2.897v-1.176
		c0-2.268-0.561-3.884-1.68-4.85c-1.12-0.966-3.233-1.449-6.341-1.449c-2.1,0-3.737,0.414-4.913,1.239
		C24.072,27.05,23.12,28.499,22.392,30.57z M38.181,40.145c-1.512,0.504-3.905,1.106-7.181,1.806
		c-3.275,0.7-5.417,1.386-6.425,2.058c-1.54,1.092-2.31,2.478-2.31,4.157c0,1.652,0.615,3.08,1.848,4.283
		c1.231,1.204,2.799,1.806,4.703,1.806c2.127,0,4.157-0.699,6.089-2.1c1.428-1.063,2.365-2.365,2.813-3.905
		c0.308-1.008,0.462-2.925,0.462-5.753V40.145z"/>
	<path class="st0" d="M71.533,16.965v9.406H63.47v17.973c0,3.64,0.077,5.76,0.231,6.361c0.153,0.603,0.504,1.1,1.05,1.491
		c0.546,0.393,1.21,0.588,1.995,0.588c1.092,0,2.673-0.378,4.745-1.134l1.008,9.154c-2.744,1.176-5.852,1.764-9.322,1.764
		c-2.128,0-4.046-0.357-5.753-1.071c-1.708-0.714-2.96-1.638-3.758-2.771s-1.351-2.666-1.659-4.598
		c-0.252-1.371-0.378-4.143-0.378-8.314V26.371h-5.417v-9.406h5.417v-8.86L63.47,1.218v15.747H71.533z"/>
	<path class="st0" d="M95.227,47.367l11.758,1.974c-1.512,4.312-3.899,7.594-7.16,9.847c-3.262,2.254-7.342,3.381-12.241,3.381
		c-7.755,0-13.494-2.533-17.217-7.601c-2.939-4.059-4.409-9.182-4.409-15.369c0-7.391,1.932-13.178,5.795-17.364
		c3.863-4.185,8.748-6.278,14.655-6.278c6.635,0,11.869,2.191,15.705,6.572c3.835,4.382,5.669,11.093,5.501,20.135H78.052
		c0.084,3.5,1.035,6.222,2.855,8.167c1.819,1.946,4.087,2.919,6.803,2.919c1.848,0,3.401-0.504,4.661-1.512
		S94.582,49.607,95.227,47.367z M95.898,35.441c-0.084-3.415-0.966-6.011-2.646-7.79c-1.68-1.777-3.724-2.667-6.131-2.667
		c-2.576,0-4.703,0.938-6.383,2.813c-1.68,1.876-2.506,4.424-2.478,7.643H95.898z"/>
	<path class="st0" d="M102.753,48.837l11.842-1.806c0.504,2.296,1.525,4.038,3.065,5.228c1.539,1.19,3.695,1.785,6.467,1.785
		c3.051,0,5.347-0.56,6.887-1.68c1.035-0.783,1.554-1.833,1.554-3.149c0-0.896-0.28-1.638-0.84-2.226
		c-0.588-0.56-1.904-1.077-3.947-1.554c-9.519-2.1-15.552-4.017-18.099-5.753c-3.527-2.407-5.291-5.753-5.291-10.036
		c0-3.863,1.525-7.11,4.577-9.742c3.051-2.631,7.782-3.947,14.193-3.947c6.103,0,10.638,0.994,13.605,2.981
		c2.967,1.988,5.011,4.928,6.131,8.818l-11.128,2.058c-0.477-1.735-1.379-3.065-2.708-3.989c-1.33-0.924-3.227-1.386-5.69-1.386
		c-3.107,0-5.333,0.435-6.677,1.302c-0.896,0.616-1.344,1.414-1.344,2.394c0,0.84,0.392,1.554,1.176,2.142
		c1.063,0.784,4.738,1.89,11.023,3.317c6.284,1.428,10.672,3.178,13.165,5.249c2.463,2.1,3.695,5.025,3.695,8.776
		c0,4.088-1.708,7.601-5.123,10.54c-3.416,2.939-8.469,4.409-15.159,4.409c-6.075,0-10.883-1.231-14.424-3.695
		C106.161,56.41,103.845,53.064,102.753,48.837z"/>
	<path class="st0" d="M164.87,16.965v9.406h-8.062v17.973c0,3.64,0.077,5.76,0.23,6.361c0.154,0.603,0.504,1.1,1.051,1.491
		c0.545,0.393,1.21,0.588,1.994,0.588c1.092,0,2.673-0.378,4.745-1.134l1.008,9.154c-2.744,1.176-5.852,1.764-9.322,1.764
		c-2.128,0-4.046-0.357-5.753-1.071c-1.708-0.714-2.961-1.638-3.758-2.771c-0.798-1.134-1.351-2.666-1.659-4.598
		c-0.252-1.371-0.378-4.143-0.378-8.314V26.371h-5.417v-9.406h5.417v-8.86l11.842-6.887v15.747H164.87z"/>
</g>
</svg>