<!-- Generator: Adobe Illustrator 19.0.0, SVG Export Plug-In  -->
<svg version="1.1"
	 xmlns="http://www.w3.org/2000/svg" xmlns:xlink="http://www.w3.org/1999/xlink" xmlns:a="http://ns.adobe.com/AdobeSVGViewerExtensions/3.0/"
	 x="0px" y="0px" width="248.131px" height="61.41px" viewBox="0 0 248.131 61.41"
	 style="enable-background:new 0 0 248.131 61.41;" xml:space="preserve">
<defs>
</defs>
<g id="XMLID_27_">
	<path id="XMLID_37_" d="M0,60.342V1.068h8.188v28.747L32.93,1.068h9.879l-25.543,29.37L44.5,60.342H34.176L8.188,30.972v29.37H0z"
		/>
	<path id="XMLID_34_" d="M74.761,61.41c-4.628,0-8.753-0.832-12.371-2.492c-3.62-1.661-6.646-3.886-9.078-6.675
		c-2.434-2.788-4.287-6.052-5.562-9.79c-1.276-3.738-1.914-7.654-1.914-11.748c0-4.094,0.637-8.01,1.914-11.748
		c1.275-3.738,3.129-7,5.562-9.79c2.432-2.789,5.458-5.013,9.078-6.675C66.008,0.832,70.132,0,74.761,0
		c4.628,0,8.751,0.832,12.371,2.492c3.619,1.662,6.645,3.887,9.078,6.675c2.432,2.79,4.286,6.052,5.562,9.79
		c1.275,3.738,1.914,7.654,1.914,11.748c0,4.094-0.638,8.01-1.914,11.748c-1.276,3.738-3.13,7.002-5.562,9.79
		c-2.434,2.79-5.459,5.015-9.078,6.675C83.512,60.578,79.389,61.41,74.761,61.41z M74.761,54.824c3.382,0,6.377-0.623,8.989-1.869
		c2.61-1.246,4.775-2.966,6.497-5.162c1.72-2.194,3.026-4.762,3.916-7.699s1.335-6.066,1.335-9.39c0-3.322-0.445-6.452-1.335-9.389
		s-2.196-5.487-3.916-7.654C88.525,11.496,86.36,9.776,83.75,8.5c-2.611-1.275-5.607-1.914-8.989-1.914
		c-3.382,0-6.379,0.638-8.989,1.914c-2.611,1.276-4.777,2.997-6.497,5.162c-1.722,2.167-3.026,4.717-3.916,7.654
		c-0.89,2.937-1.335,6.067-1.335,9.389c0,3.324,0.445,6.453,1.335,9.39c0.89,2.937,2.194,5.504,3.916,7.699
		c1.72,2.196,3.886,3.916,6.497,5.162C68.382,54.201,71.378,54.824,74.761,54.824z"/>
	<path id="XMLID_32_" d="M155.839,60.342l-33.197-46.547v46.547h-7.832V1.068h7.832l33.197,46.547V1.068h7.832v59.274H155.839z"/>
	<path id="XMLID_30_" d="M186.544,60.342h-8.188V1.068h8.188V60.342z"/>
	<path id="XMLID_28_" d="M229.708,0c3.322,0,6.497,0.282,9.523,0.845c3.026,0.564,5.754,1.439,8.188,2.625l-1.335,6.497
		c-2.552-1.008-5.207-1.809-7.965-2.403c-2.759-0.593-5.534-0.89-8.322-0.89c-7.358,0-13.143,2.147-17.355,6.441
		c-4.213,4.294-6.319,10.378-6.319,18.255c0,7.582,1.987,13.4,5.963,17.457c3.975,4.058,9.938,6.085,17.889,6.085
		c1.898,0,3.812-0.133,5.74-0.4c1.927-0.267,3.574-0.607,4.939-1.023V34.176h7.476v23.895c-2.255,0.962-5.133,1.761-8.633,2.392
		c-3.502,0.63-7.002,0.947-10.502,0.947c-4.866,0-9.227-0.727-13.083-2.18c-3.858-1.454-7.12-3.5-9.79-6.141
		c-2.67-2.64-4.703-5.799-6.097-9.479c-1.395-3.678-2.091-7.743-2.091-12.193c0-4.628,0.726-8.87,2.18-12.727
		c1.454-3.856,3.545-7.165,6.275-9.924c2.728-2.759,6.052-4.909,9.968-6.452C220.274,0.771,224.725,0,229.708,0z"/>
</g>
</svg>