<!-- Generator: Adobe Illustrator 19.1.0, SVG Export Plug-In  -->
<svg version="1.1"
	 xmlns="http://www.w3.org/2000/svg" xmlns:xlink="http://www.w3.org/1999/xlink" xmlns:a="http://ns.adobe.com/AdobeSVGViewerExtensions/3.0/"
	 x="0px" y="0px" width="213.673px" height="32.868px" viewBox="0 0 213.673 32.868"
	 style="enable-background:new 0 0 213.673 32.868;" xml:space="preserve">
<style type="text/css">
	.st0{fill:#333333;}
</style>
<defs>
</defs>
<g>
	<path class="st0" d="M17.721,6.402c-0.704-0.946-1.573-1.655-2.607-2.128c-1.034-0.473-2.112-0.709-3.234-0.709
		c-1.298,0-2.492,0.264-3.581,0.792C7.211,4.884,6.27,5.594,5.478,6.485S4.07,8.41,3.63,9.587c-0.44,1.177-0.66,2.404-0.66,3.679
		c0,1.364,0.22,2.635,0.66,3.812c0.439,1.177,1.05,2.2,1.832,3.069c0.78,0.869,1.716,1.557,2.805,2.062
		c1.089,0.506,2.293,0.759,3.614,0.759c1.43,0,2.706-0.281,3.828-0.841c1.122-0.561,2.101-1.37,2.937-2.426l2.079,1.749
		c-1.056,1.408-2.326,2.442-3.812,3.102c-1.485,0.66-3.163,0.99-5.032,0.99c-1.672,0-3.234-0.309-4.686-0.924
		c-1.452-0.616-2.712-1.468-3.779-2.558c-1.067-1.089-1.903-2.381-2.508-3.877C0.302,16.688,0,15.048,0,13.266
		c0-1.716,0.292-3.321,0.875-4.818c0.583-1.496,1.403-2.793,2.458-3.894c1.056-1.1,2.31-1.969,3.762-2.607
		C8.547,1.31,10.142,0.99,11.88,0.99c1.584,0,3.107,0.286,4.57,0.858c1.463,0.572,2.689,1.507,3.68,2.805L17.721,6.402z"/>
	<path class="st0" d="M23.925,11.484c0.792-0.814,1.732-1.414,2.821-1.799c1.089-0.384,2.194-0.577,3.316-0.577
		c2.288,0,3.938,0.539,4.95,1.617c1.012,1.078,1.518,2.717,1.518,4.917v6.633c0,0.44,0.021,0.896,0.066,1.369
		c0.044,0.474,0.099,0.908,0.165,1.304h-2.475c-0.088-0.352-0.138-0.743-0.148-1.171c-0.011-0.429-0.017-0.809-0.017-1.139h-0.066
		c-0.506,0.792-1.183,1.441-2.029,1.947c-0.847,0.506-1.865,0.759-3.053,0.759c-0.792,0-1.535-0.099-2.228-0.297
		c-0.693-0.198-1.298-0.489-1.815-0.875c-0.517-0.385-0.93-0.863-1.237-1.436c-0.309-0.572-0.462-1.232-0.462-1.98
		c0-1.276,0.33-2.277,0.99-3.003s1.479-1.265,2.458-1.617c0.979-0.352,2.035-0.572,3.168-0.66c1.133-0.087,2.172-0.132,3.119-0.132
		h0.99v-0.462c0-1.122-0.335-1.969-1.006-2.541c-0.671-0.572-1.612-0.858-2.821-0.858c-0.836,0-1.656,0.138-2.459,0.413
		s-1.513,0.698-2.128,1.271L23.925,11.484z M31.383,17.523c-1.65,0-2.959,0.231-3.927,0.693c-0.968,0.462-1.452,1.221-1.452,2.277
		c0,0.968,0.324,1.656,0.973,2.062c0.649,0.407,1.457,0.61,2.426,0.61c0.748,0,1.402-0.126,1.963-0.379
		c0.561-0.252,1.028-0.588,1.402-1.006c0.374-0.417,0.66-0.908,0.858-1.469c0.198-0.561,0.308-1.16,0.33-1.798v-0.99H31.383z"/>
	<path class="st0" d="M41.25,13.167c0-0.704-0.022-1.364-0.066-1.98c-0.044-0.615-0.066-1.176-0.066-1.683h2.442
		c0,0.418,0.011,0.836,0.033,1.254c0.021,0.418,0.033,0.847,0.033,1.287h0.066c0.176-0.374,0.423-0.737,0.743-1.089
		c0.319-0.352,0.698-0.665,1.139-0.94c0.439-0.275,0.935-0.495,1.485-0.66c0.55-0.165,1.144-0.248,1.782-0.248
		c0.176,0,0.352,0.011,0.528,0.033c0.176,0.022,0.352,0.066,0.528,0.132l-0.165,2.607c-0.44-0.132-0.902-0.198-1.386-0.198
		c-1.584,0-2.734,0.512-3.449,1.535s-1.072,2.425-1.072,4.208v7.524H41.25V13.167z"/>
	<path class="st0" d="M53.097,0h2.574v24.948h-2.574V0z"/>
	<path class="st0" d="M86.789,6.402c-0.704-0.946-1.573-1.655-2.607-2.128c-1.034-0.473-2.112-0.709-3.234-0.709
		c-1.298,0-2.492,0.264-3.581,0.792c-1.089,0.528-2.03,1.237-2.822,2.128s-1.408,1.925-1.848,3.102
		c-0.44,1.177-0.66,2.404-0.66,3.679c0,1.364,0.22,2.635,0.66,3.812c0.439,1.177,1.05,2.2,1.832,3.069
		c0.78,0.869,1.716,1.557,2.805,2.062c1.089,0.506,2.293,0.759,3.614,0.759c1.43,0,2.706-0.281,3.828-0.841
		c1.122-0.561,2.101-1.37,2.937-2.426l2.079,1.749c-1.056,1.408-2.326,2.442-3.812,3.102c-1.485,0.66-3.163,0.99-5.032,0.99
		c-1.672,0-3.234-0.309-4.686-0.924c-1.452-0.616-2.712-1.468-3.779-2.558c-1.067-1.089-1.903-2.381-2.508-3.877
		c-0.605-1.496-0.908-3.135-0.908-4.917c0-1.716,0.292-3.321,0.875-4.818c0.583-1.496,1.403-2.793,2.458-3.894
		c1.056-1.1,2.31-1.969,3.762-2.607C77.615,1.31,79.21,0.99,80.948,0.99c1.584,0,3.107,0.286,4.57,0.858
		c1.463,0.572,2.689,1.507,3.68,2.805L86.789,6.402z"/>
	<path class="st0" d="M93.191,13.167c0-0.704-0.022-1.364-0.066-1.98c-0.044-0.615-0.066-1.176-0.066-1.683h2.442
		c0,0.418,0.011,0.836,0.033,1.254c0.021,0.418,0.033,0.847,0.033,1.287h0.066c0.176-0.374,0.423-0.737,0.743-1.089
		c0.319-0.352,0.698-0.665,1.139-0.94c0.439-0.275,0.935-0.495,1.485-0.66c0.55-0.165,1.144-0.248,1.782-0.248
		c0.176,0,0.352,0.011,0.528,0.033c0.176,0.022,0.352,0.066,0.528,0.132l-0.165,2.607c-0.44-0.132-0.902-0.198-1.386-0.198
		c-1.584,0-2.734,0.512-3.449,1.535s-1.072,2.425-1.072,4.208v7.524h-2.574V13.167z"/>
	<path class="st0" d="M118.007,22.143c-0.924,1.188-1.936,2.019-3.036,2.492c-1.101,0.473-2.376,0.709-3.828,0.709
		c-1.21,0-2.299-0.214-3.267-0.644c-0.968-0.429-1.788-1.006-2.458-1.732c-0.671-0.726-1.188-1.584-1.551-2.574
		c-0.363-0.99-0.545-2.046-0.545-3.168c0-1.188,0.198-2.282,0.594-3.283s0.946-1.859,1.65-2.574c0.704-0.714,1.54-1.271,2.508-1.667
		c0.968-0.396,2.023-0.594,3.168-0.594c1.078,0,2.067,0.181,2.97,0.544c0.902,0.363,1.677,0.891,2.327,1.584
		c0.648,0.693,1.149,1.54,1.501,2.541c0.352,1.001,0.528,2.14,0.528,3.416v0.825h-12.474c0.043,0.66,0.203,1.293,0.478,1.897
		c0.275,0.605,0.632,1.134,1.073,1.584c0.44,0.451,0.957,0.809,1.551,1.073c0.594,0.264,1.243,0.396,1.947,0.396
		c1.122,0,2.067-0.198,2.838-0.594c0.77-0.396,1.463-0.979,2.079-1.749L118.007,22.143z M115.796,15.84
		c-0.044-1.32-0.473-2.376-1.287-3.168s-1.936-1.188-3.366-1.188c-1.43,0-2.585,0.396-3.465,1.188
		c-0.88,0.792-1.408,1.848-1.584,3.168H115.796z"/>
	<path class="st0" d="M122.198,3.465c0-0.506,0.182-0.946,0.544-1.32c0.363-0.374,0.809-0.561,1.336-0.561s0.974,0.187,1.336,0.561
		c0.363,0.375,0.544,0.814,0.544,1.32c0,0.55-0.176,1.001-0.528,1.353c-0.352,0.352-0.803,0.528-1.353,0.528
		c-0.55,0-1.001-0.176-1.353-0.528C122.374,4.467,122.198,4.016,122.198,3.465z M122.792,9.504h2.574v15.444h-2.574V9.504z"/>
	<path class="st0" d="M145.892,24.255c0,2.816-0.721,4.955-2.162,6.418c-1.441,1.463-3.526,2.194-6.253,2.194
		c-1.518,0-2.888-0.22-4.108-0.66c-1.221-0.44-2.382-1.199-3.481-2.277l1.848-2.112c0.814,0.879,1.678,1.545,2.591,1.997
		c0.913,0.451,1.963,0.676,3.151,0.676c1.144,0,2.096-0.17,2.854-0.511c0.759-0.342,1.358-0.804,1.798-1.386
		c0.44-0.583,0.748-1.249,0.924-1.997c0.176-0.748,0.264-1.529,0.264-2.343v-1.98h-0.066c-0.616,0.99-1.419,1.716-2.409,2.178
		c-0.99,0.462-2.002,0.693-3.036,0.693c-1.21,0-2.321-0.198-3.333-0.594c-1.012-0.396-1.881-0.946-2.607-1.65
		s-1.287-1.54-1.683-2.508c-0.396-0.968-0.594-2.023-0.594-3.168c0-1.254,0.198-2.387,0.594-3.399
		c0.396-1.012,0.951-1.864,1.667-2.558c0.715-0.693,1.578-1.226,2.59-1.6c1.012-0.374,2.134-0.561,3.366-0.561
		c0.528,0,1.056,0.061,1.584,0.181c0.528,0.122,1.04,0.309,1.535,0.561c0.495,0.253,0.94,0.572,1.336,0.957
		c0.396,0.385,0.726,0.831,0.99,1.336h0.066v-2.64h2.574V24.255z M132.362,17.226c0,0.792,0.143,1.524,0.429,2.195
		c0.286,0.671,0.677,1.254,1.171,1.749c0.495,0.495,1.073,0.886,1.732,1.171c0.66,0.286,1.364,0.429,2.112,0.429
		c0.879,0,1.661-0.153,2.343-0.462c0.682-0.308,1.259-0.72,1.732-1.237c0.473-0.517,0.831-1.111,1.073-1.782
		c0.242-0.671,0.363-1.38,0.363-2.128c0-0.836-0.132-1.601-0.396-2.293c-0.264-0.693-0.638-1.292-1.122-1.798
		c-0.484-0.506-1.067-0.896-1.749-1.171c-0.683-0.275-1.431-0.413-2.244-0.413c-0.814,0-1.557,0.148-2.228,0.445
		c-0.671,0.297-1.243,0.705-1.716,1.221c-0.474,0.517-0.842,1.122-1.105,1.815C132.494,15.659,132.362,16.413,132.362,17.226z"/>
	<path class="st0" d="M150.644,0h2.574v11.649h0.066c0.176-0.308,0.417-0.611,0.726-0.908c0.308-0.297,0.676-0.566,1.105-0.809
		c0.429-0.242,0.907-0.439,1.436-0.594c0.528-0.154,1.089-0.231,1.683-0.231c1.011,0,1.886,0.154,2.623,0.462
		c0.737,0.308,1.348,0.737,1.832,1.287c0.483,0.55,0.841,1.216,1.073,1.996c0.23,0.781,0.346,1.634,0.346,2.558v9.537h-2.574v-9.273
		c0-1.298-0.286-2.321-0.858-3.069c-0.572-0.748-1.463-1.122-2.673-1.122c-0.836,0-1.557,0.143-2.161,0.429
		c-0.605,0.286-1.101,0.693-1.485,1.221s-0.671,1.155-0.858,1.881s-0.28,1.529-0.28,2.409v7.524h-2.574V0z"/>
	<path class="st0" d="M177.439,11.682h-4.554v7.722c0,0.506,0.011,0.974,0.033,1.402c0.021,0.429,0.109,0.803,0.264,1.122
		c0.154,0.319,0.385,0.572,0.693,0.759c0.308,0.188,0.747,0.281,1.32,0.281c0.373,0,0.759-0.044,1.154-0.132
		c0.396-0.088,0.771-0.22,1.122-0.396l0.1,2.343c-0.44,0.198-0.93,0.341-1.469,0.429c-0.54,0.087-1.051,0.132-1.535,0.132
		c-0.924,0-1.661-0.121-2.211-0.363c-0.55-0.242-0.979-0.583-1.286-1.023c-0.309-0.439-0.512-0.984-0.611-1.633
		c-0.099-0.648-0.148-1.37-0.148-2.162v-8.481h-3.365V9.504h3.365V5.115h2.574v4.389h4.554V11.682z"/>
	<path class="st0" d="M179.716,17.226c0-1.209,0.209-2.31,0.627-3.3c0.418-0.99,0.99-1.842,1.716-2.558
		c0.727-0.714,1.596-1.271,2.607-1.667s2.112-0.594,3.3-0.594c1.188,0,2.288,0.198,3.3,0.594s1.882,0.952,2.607,1.667
		c0.726,0.715,1.298,1.567,1.716,2.558c0.418,0.99,0.627,2.09,0.627,3.3c0,1.21-0.209,2.31-0.627,3.3
		c-0.418,0.99-0.99,1.843-1.716,2.558s-1.596,1.27-2.607,1.666c-1.012,0.396-2.111,0.594-3.3,0.594c-1.188,0-2.288-0.198-3.3-0.594
		c-1.012-0.396-1.881-0.951-2.607-1.666c-0.726-0.715-1.298-1.568-1.716-2.558C179.925,19.536,179.716,18.437,179.716,17.226z
		 M182.488,17.226c0,0.814,0.126,1.568,0.379,2.261s0.622,1.298,1.105,1.815c0.484,0.517,1.062,0.924,1.732,1.221
		c0.671,0.297,1.425,0.445,2.261,0.445s1.59-0.148,2.261-0.445c0.671-0.297,1.248-0.704,1.732-1.221
		c0.483-0.517,0.853-1.122,1.105-1.815s0.38-1.446,0.38-2.261c0-0.813-0.127-1.567-0.38-2.26s-0.622-1.298-1.105-1.815
		c-0.484-0.517-1.062-0.924-1.732-1.221s-1.425-0.445-2.261-0.445s-1.59,0.148-2.261,0.445s-1.248,0.705-1.732,1.221
		c-0.483,0.517-0.853,1.122-1.105,1.815S182.488,16.413,182.488,17.226z"/>
	<path class="st0" d="M200.209,13.167c0-0.704-0.022-1.364-0.066-1.98c-0.044-0.615-0.066-1.176-0.066-1.683h2.442
		c0,0.418,0.011,0.836,0.033,1.254c0.021,0.418,0.033,0.847,0.033,1.287h0.065c0.176-0.374,0.424-0.737,0.743-1.089
		c0.318-0.352,0.697-0.665,1.138-0.94c0.44-0.275,0.936-0.495,1.485-0.66c0.55-0.165,1.144-0.248,1.782-0.248
		c1.012,0,1.886,0.154,2.623,0.462s1.348,0.737,1.832,1.287c0.483,0.55,0.841,1.216,1.072,1.996c0.23,0.781,0.347,1.634,0.347,2.558
		v9.537h-2.574v-9.273c0-1.298-0.286-2.321-0.858-3.069s-1.463-1.122-2.673-1.122c-0.836,0-1.557,0.143-2.161,0.429
		c-0.605,0.286-1.101,0.693-1.485,1.221s-0.671,1.155-0.857,1.881c-0.188,0.726-0.281,1.529-0.281,2.409v7.524h-2.573V13.167z"/>
</g>
</svg>