<!-- Generator: Adobe Illustrator 18.1.1, SVG Export Plug-In  -->
<svg version="1.1"
	 xmlns="http://www.w3.org/2000/svg" xmlns:xlink="http://www.w3.org/1999/xlink" xmlns:a="http://ns.adobe.com/AdobeSVGViewerExtensions/3.0/"
	 x="0px" y="0px" width="1093.567px" height="62.014px" viewBox="0 0 1093.567 62.014" enable-background="new 0 0 1093.567 62.014"
	 xml:space="preserve">
<defs>
</defs>
<g>
	<path d="M0,0.007l10.261,0.016l11.524,43.258c0.36,1.088,0.674,2.477,0.945,4.165c0.269,1.689,0.404,3.506,0.404,5.451
		c0-1.835,0.028-2.981,0.084-3.441c0.057-0.46,0.625-2.753,1.703-6.884L36.205,0.007h12.299l11.411,42.641l0.973,4.745
		c0.114,1.048,0.243,2.039,0.387,2.971c0.142,0.933,0.215,1.776,0.215,2.533l0.536-5.286l0.805-4.332L74.385,0.005l9.896,0.001
		L67.339,62.013H55.555l-12.112-44.98c-0.406-1.833-0.667-3.151-0.782-3.955c-0.29-1.948-0.434-3.84-0.434-5.674
		c0,1.892-0.115,3.512-0.344,4.859c-0.23,1.348-0.546,2.911-0.946,4.687l-12.04,45.064H17.028L0,0.007z"/>
	<path d="M105.436,62.013V0.007h10.233v62.006H105.436z"/>
	<path d="M142.932,62.013V0.007h10.233v53.75h23.822v8.256H142.932z"/>
	<path d="M197.282,62.013V0.007h10.233v53.75h23.822v8.256H197.282z"/>
	<path d="M251.634,62.013V0.007h10.233v62.006H251.634z"/>
	<path d="M282.507,62.013l25.025-62.006h11.095l24.769,62.006l-11.03-0.025l-5.734-15.283h-27.56l-5.993,15.305L282.507,62.013z
		 M311.659,14.369l-9.604,24.252h21.718l-9.221-24.238c-0.506-1.263-0.885-2.384-1.137-3.361c-0.253-0.976-0.379-2.24-0.379-3.791
		C313.037,9.869,312.577,12.248,311.659,14.369z"/>
	<path d="M363.777,62.013V0.007l15.097,0.015l17.323,44.567c0.605,1.658,1.029,3.244,1.271,4.757
		c0.242,1.514,0.364,3.186,0.364,5.014c0-1.885,0.165-3.728,0.499-5.528c0.333-1.799,0.71-3.213,1.135-4.242L416.874,0.02
		l15.015-0.013v62.006h-9.89v-45.15c0-0.974,0.154-2.55,0.465-4.73c0.311-2.178,0.528-3.754,0.653-4.73l-1.464,5.246l-1.376,3.784
		l-17.8,45.58h-9.287l-17.718-45.58c-0.172-0.344-0.416-0.931-0.73-1.763c-0.315-0.831-0.56-1.505-0.731-2.021l-1.462-5.246
		c0.124,0.917,0.342,2.552,0.652,4.902c0.31,2.352,0.466,3.87,0.466,4.558v45.15H363.777z"/>
	<path d="M494.582,62.013l25.025-62.006h11.095l24.769,62.006l-11.03-0.025l-5.734-15.283h-27.56l-5.993,15.305L494.582,62.013z
		 M523.734,14.369l-9.604,24.252h21.718l-9.221-24.238c-0.506-1.263-0.885-2.384-1.137-3.361c-0.253-0.976-0.379-2.24-0.379-3.791
		C525.112,9.869,524.652,12.248,523.734,14.369z"/>
	<path d="M575.852,62.013V0.007h10.233v53.75h23.822v8.256H575.852z"/>
	<path d="M630.203,62.013V0.007h34.142v8.256h-23.908v17.802h21.07v8.084h-21.07v19.78h25.714v8.084H630.203z"/>
	<path d="M683.607,62.013l22.018-32.939L686.102,0.007l11.702-0.004l12.318,18.649c0.975,1.553,1.662,3.508,2.064,5.865
		c0.229-1.258,0.487-2.286,0.775-3.086c0.286-0.8,0.802-1.743,1.548-2.829L726.684,0l11.438,0.007l-19.77,28.983l21.756,33.024
		l-11.779-0.059L714.125,40.55c-0.935-1.365-1.723-3.441-2.365-6.229c-0.526,2.634-1.344,4.723-2.453,6.269l-14.105,21.413
		L683.607,62.013z"/>
	<path d="M754.213,62.013l25.025-62.006h11.095l24.769,62.006l-11.03-0.025l-5.734-15.283h-27.56l-5.993,15.305L754.213,62.013z
		 M783.365,14.369l-9.604,24.252h21.718l-9.221-24.238c-0.506-1.263-0.885-2.384-1.137-3.361c-0.253-0.976-0.379-2.24-0.379-3.791
		C784.743,9.869,784.283,12.248,783.365,14.369z"/>
	<path d="M835.482,62.013l0.086-62.006h12.212l25.196,42.485c0.4,0.746,0.817,1.621,1.247,2.623c0.43,1.003,0.803,1.935,1.118,2.795
		c0.315,0.86,0.646,1.705,0.99,2.536c0.344,0.832,0.717,1.878,1.118,3.139c-0.482-2.464-0.904-4.958-1.265-7.482
		c-0.361-2.522-0.541-4.356-0.541-5.504l-0.173-40.592h10.062v62.006l-12.09-0.021l-25.039-42.218
		c-0.231-0.344-0.663-1.231-1.297-2.664c-0.403-0.858-0.807-1.717-1.21-2.577l-2.332-6.614c0.458,2.236,0.859,4.502,1.204,6.794
		c0.344,2.293,0.516,3.985,0.516,5.074l0.172,42.226H835.482z"/>
	<path d="M912.71,62.013V0.007h16.684c1.72,0,3.526,0.058,5.418,0.172c1.893,0.116,3.555,0.258,4.988,0.43
		c7.396,1.204,13.244,4.501,17.544,9.89c4.3,5.39,6.45,12.184,6.45,20.382c0,9.862-2.954,17.516-8.858,22.962
		c-5.905,5.447-14.248,8.17-25.025,8.17H912.71z M923.029,8.091v45.838h7.482c7.052,0,12.599-2.057,16.641-6.172
		s6.063-9.739,6.063-16.876c0-8.229-2.466-14.359-7.396-18.388c-1.835-1.553-3.956-2.675-6.363-3.366
		c-2.408-0.691-5.418-1.036-9.03-1.036H923.029z"/>
	<path d="M988.905,62.013V0.007h34.142v8.256h-23.908v17.802h21.07v8.084h-21.07v19.78h25.714v8.084H988.905z"/>
	<path d="M1048.761,62.013V0.007h18.834l5.676,0.258c4.586,0.575,8.256,2.354,11.008,5.339c2.752,2.986,4.128,6.66,4.128,11.022
		c0,3.732-0.961,6.903-2.881,9.515c-1.922,2.612-4.745,4.549-8.471,5.812c1.032,0.4,1.791,0.857,2.278,1.371s1.132,1.47,1.936,2.868
		c0.802,1.397,1.576,2.867,2.322,4.407l9.977,21.414l-10.913-0.004l-8.45-18.137c-0.865-1.835-1.527-3.125-1.988-3.872
		c-0.461-0.746-1.065-1.491-1.814-2.238c-1.44-1.32-3.398-1.979-5.876-1.979h-5.617v26.23H1048.761z M1058.908,8.091v19.608h6.45
		c8.37,0,12.556-3.384,12.556-10.151c0-6.305-4.071-9.457-12.212-9.457H1058.908z"/>
</g>
</svg>