<!-- Generator: Adobe Illustrator 18.1.1, SVG Export Plug-In  -->
<svg version="1.1"
	 xmlns="http://www.w3.org/2000/svg" xmlns:xlink="http://www.w3.org/1999/xlink" xmlns:a="http://ns.adobe.com/AdobeSVGViewerExtensions/3.0/"
	 x="0px" y="0px" width="262.27px" height="70.868px" viewBox="0 0 262.27 70.868" enable-background="new 0 0 262.27 70.868"
	 xml:space="preserve">
<defs>
</defs>
<g>
	<path fill="#5D5D5D" d="M11.8,61.561H0V16.965h10.96v6.341c1.875-2.995,3.562-4.969,5.06-5.921
		c1.497-0.951,3.198-1.428,5.102-1.428c2.688,0,5.276,0.742,7.769,2.226l-3.653,10.288c-1.988-1.287-3.836-1.932-5.543-1.932
		c-1.652,0-3.052,0.456-4.199,1.365c-1.148,0.91-2.051,2.555-2.708,4.934c-0.658,2.38-0.987,7.363-0.987,14.949V61.561z"/>
	<path fill="#5D5D5D" d="M49.477,47.367l11.758,1.974c-1.512,4.312-3.898,7.594-7.16,9.847c-3.262,2.253-7.342,3.38-12.241,3.38
		c-7.755,0-13.494-2.533-17.217-7.601c-2.939-4.059-4.409-9.182-4.409-15.369c0-7.391,1.932-13.178,5.795-17.364
		c3.863-4.185,8.748-6.278,14.655-6.278c6.635,0,11.869,2.191,15.706,6.572c3.834,4.382,5.668,11.093,5.5,20.135H32.302
		c0.084,3.5,1.035,6.222,2.855,8.167c1.819,1.946,4.087,2.918,6.803,2.918c1.848,0,3.401-0.504,4.661-1.512
		S48.833,49.607,49.477,47.367z M50.149,35.441c-0.084-3.415-0.966-6.011-2.646-7.79c-1.68-1.777-3.724-2.667-6.131-2.667
		c-2.576,0-4.703,0.938-6.383,2.813c-1.68,1.876-2.506,4.424-2.478,7.643H50.149z"/>
	<path fill="#5D5D5D" d="M61.161,61.561V0h11.8v61.561H61.161z"/>
	<path fill="#5D5D5D" d="M100.56,47.367l11.758,1.974c-1.512,4.312-3.898,7.594-7.16,9.847c-3.261,2.253-7.342,3.38-12.24,3.38
		c-7.755,0-13.494-2.533-17.217-7.601c-2.939-4.059-4.409-9.182-4.409-15.369c0-7.391,1.932-13.178,5.795-17.364
		c3.863-4.185,8.748-6.278,14.655-6.278c6.635,0,11.869,2.191,15.705,6.572c3.835,4.382,5.669,11.093,5.501,20.135H83.385
		c0.084,3.5,1.035,6.222,2.855,8.167c1.819,1.946,4.087,2.918,6.803,2.918c1.848,0,3.401-0.504,4.661-1.512
		S99.915,49.607,100.56,47.367z M101.231,35.441c-0.084-3.415-0.966-6.011-2.646-7.79c-1.68-1.777-3.724-2.667-6.131-2.667
		c-2.576,0-4.703,0.938-6.383,2.813c-1.68,1.876-2.506,4.424-2.478,7.643H101.231z"/>
	<path fill="#5D5D5D" d="M121.062,30.57l-10.708-1.932c1.203-4.311,3.275-7.502,6.215-9.574c2.939-2.071,7.307-3.107,13.102-3.107
		c5.263,0,9.182,0.624,11.758,1.869c2.575,1.246,4.389,2.828,5.438,4.745c1.051,1.918,1.575,5.438,1.575,10.561l-0.126,13.773
		c0,3.92,0.189,6.81,0.566,8.671c0.379,1.862,1.085,3.857,2.121,5.984h-11.674c-0.309-0.783-0.687-1.945-1.134-3.485
		c-0.196-0.699-0.336-1.161-0.42-1.386c-2.016,1.96-4.172,3.43-6.467,4.409c-2.296,0.979-4.745,1.47-7.349,1.47
		c-4.592,0-8.209-1.245-10.855-3.737c-2.645-2.491-3.968-5.641-3.968-9.448c0-2.52,0.602-4.766,1.806-6.74
		c1.203-1.974,2.891-3.485,5.061-4.535c2.169-1.05,5.297-1.966,9.385-2.75c5.515-1.035,9.336-2.001,11.464-2.897v-1.176
		c0-2.268-0.561-3.884-1.68-4.85c-1.12-0.966-3.233-1.449-6.341-1.449c-2.1,0-3.737,0.414-4.913,1.239
		C122.741,27.05,121.789,28.499,121.062,30.57z M136.851,40.145c-1.512,0.504-3.905,1.106-7.181,1.806
		c-3.275,0.7-5.417,1.386-6.425,2.058c-1.54,1.092-2.31,2.478-2.31,4.157c0,1.652,0.615,3.08,1.848,4.283
		c1.231,1.204,2.799,1.806,4.703,1.806c2.127,0,4.157-0.699,6.089-2.1c1.428-1.063,2.365-2.365,2.813-3.905
		c0.308-1.008,0.462-2.925,0.462-5.753V40.145z"/>
	<path fill="#5D5D5D" d="M145.596,48.837l11.842-1.806c0.504,2.296,1.525,4.039,3.065,5.228c1.539,1.19,3.695,1.785,6.467,1.785
		c3.051,0,5.347-0.56,6.887-1.68c1.035-0.783,1.554-1.833,1.554-3.149c0-0.896-0.28-1.638-0.84-2.226
		c-0.588-0.56-1.904-1.077-3.947-1.554c-9.519-2.1-15.552-4.017-18.099-5.753c-3.527-2.407-5.291-5.753-5.291-10.036
		c0-3.863,1.525-7.11,4.577-9.742c3.051-2.631,7.782-3.947,14.193-3.947c6.103,0,10.638,0.994,13.605,2.981
		c2.967,1.988,5.011,4.928,6.131,8.818l-11.128,2.058c-0.477-1.735-1.379-3.065-2.708-3.989c-1.33-0.924-3.228-1.386-5.69-1.386
		c-3.107,0-5.333,0.435-6.677,1.302c-0.896,0.616-1.344,1.414-1.344,2.394c0,0.84,0.392,1.554,1.176,2.142
		c1.063,0.784,4.738,1.89,11.023,3.317c6.284,1.428,10.672,3.178,13.164,5.249c2.463,2.1,3.695,5.025,3.695,8.776
		c0,4.088-1.708,7.601-5.123,10.54c-3.416,2.939-8.469,4.409-15.159,4.409c-6.075,0-10.883-1.231-14.425-3.695
		C149.004,56.41,146.688,53.064,145.596,48.837z"/>
	<path fill="#5D5D5D" d="M213.087,47.367l11.758,1.974c-1.512,4.312-3.898,7.594-7.16,9.847c-3.261,2.253-7.342,3.38-12.24,3.38
		c-7.755,0-13.494-2.533-17.217-7.601c-2.939-4.059-4.409-9.182-4.409-15.369c0-7.391,1.932-13.178,5.795-17.364
		c3.863-4.185,8.748-6.278,14.655-6.278c6.635,0,11.869,2.191,15.705,6.572c3.835,4.382,5.669,11.093,5.501,20.135h-29.562
		c0.084,3.5,1.035,6.222,2.855,8.167c1.819,1.946,4.087,2.918,6.803,2.918c1.848,0,3.401-0.504,4.661-1.512
		S212.442,49.607,213.087,47.367z M213.759,35.441c-0.084-3.415-0.966-6.011-2.646-7.79c-1.68-1.777-3.724-2.667-6.131-2.667
		c-2.576,0-4.703,0.938-6.383,2.813c-1.68,1.876-2.506,4.424-2.478,7.643H213.759z"/>
	<path fill="#5D5D5D" d="M220.613,48.837l11.842-1.806c0.504,2.296,1.525,4.039,3.065,5.228c1.539,1.19,3.695,1.785,6.467,1.785
		c3.051,0,5.347-0.56,6.887-1.68c1.035-0.783,1.554-1.833,1.554-3.149c0-0.896-0.28-1.638-0.84-2.226
		c-0.588-0.56-1.904-1.077-3.947-1.554c-9.519-2.1-15.552-4.017-18.099-5.753c-3.527-2.407-5.291-5.753-5.291-10.036
		c0-3.863,1.525-7.11,4.577-9.742c3.051-2.631,7.782-3.947,14.193-3.947c6.103,0,10.638,0.994,13.605,2.981
		c2.967,1.988,5.011,4.928,6.131,8.818l-11.128,2.058c-0.477-1.735-1.379-3.065-2.708-3.989c-1.33-0.924-3.228-1.386-5.69-1.386
		c-3.107,0-5.333,0.435-6.677,1.302c-0.896,0.616-1.344,1.414-1.344,2.394c0,0.84,0.392,1.554,1.176,2.142
		c1.063,0.784,4.738,1.89,11.023,3.317c6.284,1.428,10.672,3.178,13.164,5.249c2.463,2.1,3.695,5.025,3.695,8.776
		c0,4.088-1.708,7.601-5.123,10.54c-3.416,2.939-8.469,4.409-15.159,4.409c-6.075,0-10.883-1.231-14.425-3.695
		C224.021,56.41,221.705,53.064,220.613,48.837z"/>
</g>
<line fill="none" stroke="#666666" stroke-width="2" stroke-miterlimit="10" x1="3.185" y1="69.868" x2="252.185" y2="69.868"/>
</svg>