<!-- Generator: Adobe Illustrator 19.1.0, SVG Export Plug-In  -->
<svg version="1.1"
	 xmlns="http://www.w3.org/2000/svg" xmlns:xlink="http://www.w3.org/1999/xlink" xmlns:a="http://ns.adobe.com/AdobeSVGViewerExtensions/3.0/"
	 x="0px" y="0px" width="261.892px" height="41.003px" viewBox="0 0 261.892 41.003"
	 style="enable-background:new 0 0 261.892 41.003;" xml:space="preserve">
<defs>
</defs>
<g>
	<path d="M5.487,25.587V5.507c0-0.21-0.084-0.294-0.294-0.294H1.622c-0.336-0.126-0.588-0.798-0.588-1.47
		c0-0.63,0.21-1.344,0.588-1.47h10.334c0.378,0.126,0.63,0.84,0.63,1.47c0,0.672-0.252,1.344-0.63,1.47H9.267
		c-0.252,0-0.294,0.084-0.294,0.294v20.08c0,4.831-1.68,9.452-7.436,11.846c-1.218-0.126-1.848-1.933-1.386-3.025
		C4.31,32.602,5.487,29.158,5.487,25.587z"/>
	<path d="M20.396,31.678c-3.234,0-5.419-1.554-5.419-5.167c0-4.915,4.453-7.058,9.326-7.058c1.722,0,2.73,0.252,2.982,0.294
		c0.042-0.378,0.042-1.05,0.042-1.513c0-2.604-1.554-3.612-3.864-3.612c-2.479,0-4.663,1.008-5.377,1.47
		c-1.05-0.084-1.723-1.596-1.134-2.646c0.882-0.588,3.36-1.638,6.763-1.638c4.957,0,6.847,2.058,6.847,6.175
		c0,2.059-0.21,4.873-0.21,7.52c0,2.311,0.504,3.234,1.722,3.234c0.672,0,1.218-0.294,1.344-0.42
		c0.882,0.084,1.344,1.512,1.008,2.395c-0.42,0.378-1.47,0.966-3.319,0.966c-2.058,0-3.57-1.05-3.739-3.612l-0.168-0.042
		C26.236,29.578,24.135,31.678,20.396,31.678z M24.387,22.016c-3.192,0-6.049,1.302-6.049,4.201c0,1.723,0.924,2.604,2.982,2.604
		c2.227,0,3.949-1.512,4.831-2.772c0.798-1.218,1.05-2.73,1.092-3.696C26.908,22.268,26.11,22.016,24.387,22.016z"/>
	<path d="M54.838,10.884c-1.302,0.756-3.066,2.059-4.033,3.276c0.462,0.504,1.596,1.723,1.596,4.369
		c0,4.537-3.865,6.679-7.688,6.679c-1.092,0-1.638-0.042-2.142-0.168c-0.924,0.63-1.596,1.638-1.596,2.436
		c0,0.882,1.008,1.092,5.083,1.092c5.461,0,8.906,0.63,8.906,5.125c0,5.125-5.041,7.309-10.124,7.309
		c-5.587,0-9.367-1.848-9.367-5.965c0-0.966,0.168-1.764,0.294-2.059c0.756-0.588,2.94-0.378,3.234,0.504
		c-0.084,0.252-0.126,0.756-0.126,1.218c0,2.142,2.143,3.402,6.091,3.402s6.637-1.428,6.637-3.991c0-2.058-1.387-2.604-5.587-2.604
		c-5.503,0-8.359-0.336-8.359-2.604c0-2.016,1.386-3.654,2.437-4.579c-0.756-0.42-3.234-1.848-3.234-5.797
		c0-4.411,3.57-6.721,7.729-6.721c1.891,0,2.982,0.378,3.739,0.714c0.756-1.05,3.108-3.234,4.789-3.991
		C54.124,8.49,55.006,9.834,54.838,10.884z M44.546,14.455c-2.562,0-4.369,1.512-4.369,4.075c0,2.521,1.764,4.033,4.369,4.033
		c2.521,0,4.537-1.47,4.537-4.033C49.083,15.925,47.109,14.455,44.546,14.455z"/>
	<path d="M75.963,10.884c-1.302,0.756-3.066,2.059-4.033,3.276c0.462,0.504,1.596,1.723,1.596,4.369
		c0,4.537-3.865,6.679-7.688,6.679c-1.092,0-1.638-0.042-2.142-0.168c-0.924,0.63-1.596,1.638-1.596,2.436
		c0,0.882,1.008,1.092,5.083,1.092c5.461,0,8.906,0.63,8.906,5.125c0,5.125-5.041,7.309-10.124,7.309
		c-5.587,0-9.367-1.848-9.367-5.965c0-0.966,0.168-1.764,0.294-2.059c0.756-0.588,2.94-0.378,3.234,0.504
		C60.042,33.736,60,34.24,60,34.703c0,2.142,2.143,3.402,6.091,3.402s6.637-1.428,6.637-3.991c0-2.058-1.387-2.604-5.587-2.604
		c-5.503,0-8.359-0.336-8.359-2.604c0-2.016,1.386-3.654,2.437-4.579c-0.756-0.42-3.234-1.848-3.234-5.797
		c0-4.411,3.57-6.721,7.729-6.721c1.891,0,2.982,0.378,3.739,0.714c0.756-1.05,3.108-3.234,4.789-3.991
		C75.249,8.49,76.131,9.834,75.963,10.884z M65.671,14.455c-2.562,0-4.369,1.512-4.369,4.075c0,2.521,1.764,4.033,4.369,4.033
		c2.521,0,4.537-1.47,4.537-4.033C70.208,15.925,68.234,14.455,65.671,14.455z"/>
	<path d="M88.687,28.779c2.982,0,5.125-1.008,5.797-1.344c0.462-0.042,0.924,0.378,1.176,1.008c0.252,0.672,0.168,1.344-0.084,1.596
		c-0.882,0.504-3.192,1.638-7.057,1.638c-5.881,0-10.208-3.318-10.208-9.746s4.495-10.124,9.368-10.124
		c5.671,0,8.023,4.369,8.023,8.527c0,0.42-0.126,0.546-1.092,0.756c-3.15,0.63-9.62,1.344-12.896,1.47
		C81.966,26.595,85.033,28.779,88.687,28.779z M91.166,18.992c0.672-0.126,0.798-0.21,0.798-0.504c0-1.723-1.555-3.865-4.453-3.865
		c-2.814,0-5.377,1.932-5.755,5.419C84.235,19.958,89.276,19.412,91.166,18.992z"/>
	<path d="M114.98,3.701c0-0.504-0.168-0.672-0.63-0.672h-2.688c-0.378-0.084-0.63-0.756-0.63-1.344c0-0.588,0.21-1.218,0.63-1.344
		l5.713-0.336c0.63-0.042,0.882,0.21,0.882,0.882v21.339c0,2.311,0.168,4.453,0.378,5.125c0.21,0.756,0.336,1.008,1.134,1.008h1.555
		c0.336,0.126,0.588,0.756,0.588,1.344s-0.21,1.218-0.588,1.344h-4.453c-0.672,0-0.924-0.084-1.134-0.588
		c-0.252-0.546-0.546-1.891-0.588-2.772l-0.252-0.084c-1.05,1.639-3.403,4.075-7.478,4.075c-5.293,0-7.897-3.654-7.897-8.989
		c0-6.091,3.655-10.88,10.04-10.88c2.688,0,4.621,0.756,5.419,1.47V3.701z M114.98,18.74c0-1.512-0.21-1.975-0.84-2.604
		c-0.756-0.756-2.226-1.47-4.621-1.47c-4.201,0-6.595,3.234-6.595,7.729c0,3.696,1.806,6.385,5.167,6.385
		c3.36,0,5.335-2.226,6.217-4.243c0.42-0.924,0.672-1.932,0.672-3.234V18.74z"/>
	<path d="M139.043,5.507c0-0.21-0.084-0.294-0.336-0.294h-2.688c-0.378-0.126-0.588-0.798-0.588-1.47c0-0.63,0.21-1.344,0.588-1.47
		h10.334c0.378,0.126,0.63,0.84,0.63,1.47c0,0.672-0.252,1.344-0.63,1.47h-3.529c-0.252,0-0.294,0.084-0.294,0.294v22.306
		c2.1,0.042,7.939,0.336,9.83,0.336c1.302,0,1.554-0.672,1.554-2.898c0-1.218-0.084-2.311-0.21-2.94
		c0.21-0.924,2.646-1.26,3.235-0.294c0.084,0.672,0.21,1.891,0.21,3.277c0,3.528-0.21,5.755-3.739,5.755
		c-2.898,0-9.83-0.336-12.56-0.336c-1.891,0-3.949,0.168-4.999,0.336c-0.756-0.336-1.008-2.185-0.378-2.814
		c0.756-0.294,2.814-0.42,3.57-0.42V5.507z"/>
	<path d="M170.669,28.779c2.982,0,5.125-1.008,5.797-1.344c0.462-0.042,0.924,0.378,1.176,1.008
		c0.252,0.672,0.168,1.344-0.084,1.596c-0.882,0.504-3.192,1.638-7.057,1.638c-5.881,0-10.208-3.318-10.208-9.746
		s4.495-10.124,9.368-10.124c5.671,0,8.023,4.369,8.023,8.527c0,0.42-0.126,0.546-1.092,0.756c-3.15,0.63-9.62,1.344-12.896,1.47
		C163.948,26.595,167.015,28.779,170.669,28.779z M173.148,18.992c0.672-0.126,0.798-0.21,0.798-0.504
		c0-1.723-1.554-3.865-4.453-3.865c-2.814,0-5.377,1.932-5.755,5.419C166.217,19.958,171.257,19.412,173.148,18.992z"/>
	<path d="M186.754,31.678c-3.234,0-5.419-1.554-5.419-5.167c0-4.915,4.453-7.058,9.326-7.058c1.722,0,2.73,0.252,2.982,0.294
		c0.042-0.378,0.042-1.05,0.042-1.513c0-2.604-1.554-3.612-3.864-3.612c-2.479,0-4.663,1.008-5.377,1.47
		c-1.05-0.084-1.723-1.596-1.134-2.646c0.882-0.588,3.36-1.638,6.763-1.638c4.957,0,6.847,2.058,6.847,6.175
		c0,2.059-0.21,4.873-0.21,7.52c0,2.311,0.504,3.234,1.722,3.234c0.672,0,1.218-0.294,1.344-0.42
		c0.882,0.084,1.344,1.512,1.008,2.395c-0.42,0.378-1.47,0.966-3.319,0.966c-2.058,0-3.57-1.05-3.739-3.612l-0.168-0.042
		C192.593,29.578,190.493,31.678,186.754,31.678z M190.744,22.016c-3.192,0-6.049,1.302-6.049,4.201
		c0,1.723,0.924,2.604,2.982,2.604c2.227,0,3.949-1.512,4.831-2.772c0.798-1.218,1.05-2.73,1.092-3.696
		C193.265,22.268,192.467,22.016,190.744,22.016z"/>
	<path d="M217.877,15.379c0.084-0.168,0-0.252-0.21-0.252h-2.143c-0.378-0.168-0.63-0.756-0.63-1.344c0-0.588,0.252-1.26,0.63-1.344
		h7.184c0.378,0.084,0.63,0.756,0.63,1.344c0,0.588-0.21,1.176-0.63,1.344h-1.008c-0.294,0-0.505,0.084-0.631,0.336l-7.351,15.207
		c-0.378,0.798-0.547,0.924-1.177,0.924h-0.966c-0.63,0-0.84-0.126-1.135-0.84l-6.847-15.249c-0.126-0.294-0.294-0.378-0.588-0.378
		h-1.471c-0.378-0.168-0.588-0.756-0.588-1.344c0-0.588,0.252-1.26,0.588-1.344h8.317c0.378,0.084,0.63,0.756,0.63,1.344
		c0,0.588-0.252,1.176-0.63,1.344h-2.562c-0.21,0-0.252,0.084-0.21,0.252l5.125,11.762h0.21L217.877,15.379z"/>
	<path d="M235.643,28.779c2.982,0,5.124-1.008,5.797-1.344c0.462-0.042,0.924,0.378,1.176,1.008
		c0.252,0.672,0.168,1.344-0.084,1.596c-0.882,0.504-3.192,1.638-7.058,1.638c-5.881,0-10.207-3.318-10.207-9.746
		s4.494-10.124,9.367-10.124c5.671,0,8.023,4.369,8.023,8.527c0,0.42-0.126,0.546-1.092,0.756c-3.15,0.63-9.62,1.344-12.896,1.47
		C228.921,26.595,231.988,28.779,235.643,28.779z M238.12,18.992c0.673-0.126,0.799-0.21,0.799-0.504
		c0-1.723-1.555-3.865-4.453-3.865c-2.814,0-5.377,1.932-5.755,5.419C231.19,19.958,236.231,19.412,238.12,18.992z"/>
	<path d="M257.986,15.589c-0.21-0.798-0.882-1.302-3.024-1.302c-2.73,0-4.495,0.924-4.495,2.646c0,1.806,1.177,2.226,5.041,3.108
		c3.528,0.756,6.385,1.638,6.385,5.335c0,4.453-3.99,6.301-8.569,6.301c-3.066,0-4.831-0.714-5.629-1.218
		c-0.84-0.63-1.092-1.471-1.092-2.815c0-1.218,0.168-2.436,0.294-3.192c0.294-0.294,0.798-0.42,1.47-0.42
		c0.715,0.042,1.387,0.336,1.597,0.714c-0.084,0.42-0.21,1.47-0.21,2.227c0,0.84,0.126,1.176,0.714,1.512
		c0.504,0.294,1.597,0.714,3.15,0.714c3.193,0,4.873-1.386,4.873-3.277c0-1.806-1.302-2.395-4.999-3.192
		c-3.612-0.84-6.385-1.638-6.385-5.251c0-3.865,3.78-5.671,8.401-5.671c3.612,0,4.915,0.756,5.293,1.512
		c0.378,0.798,0.378,3.402,0.252,4.117c-0.21,0.336-0.714,0.63-1.512,0.63c-0.757,0-1.303-0.294-1.555-0.588
		C258.028,17.102,258.112,16.093,257.986,15.589z"/>
</g>
</svg>