<!-- Generator: Adobe Illustrator 19.1.0, SVG Export Plug-In  -->
<svg version="1.1"
	 xmlns="http://www.w3.org/2000/svg" xmlns:xlink="http://www.w3.org/1999/xlink" xmlns:a="http://ns.adobe.com/AdobeSVGViewerExtensions/3.0/"
	 x="0px" y="0px" width="123.357px" height="35.344px" viewBox="0 0 123.357 35.344"
	 style="enable-background:new 0 0 123.357 35.344;" xml:space="preserve">
<defs>
</defs>
<g>
	<path d="M0,0h3.445v31.148h13.266v3.328H0V0z"/>
	<path d="M26.033,0h3.445v20.812c0,2.469,0.047,4.008,0.141,4.617c0.172,1.359,0.57,2.496,1.195,3.41s1.586,1.68,2.883,2.297
		s2.602,0.926,3.914,0.926c1.141,0,2.234-0.242,3.281-0.727s1.922-1.156,2.625-2.016s1.219-1.898,1.547-3.117
		c0.234-0.875,0.352-2.672,0.352-5.391V0h3.445v20.812c0,3.078-0.301,5.566-0.902,7.465s-1.805,3.551-3.609,4.957
		s-3.988,2.109-6.551,2.109c-2.781,0-5.164-0.664-7.148-1.992s-3.312-3.086-3.984-5.273c-0.422-1.344-0.633-3.766-0.633-7.266V0z"/>
	<path d="M61.089,0h3.516v12.938L78.386,0h4.629L66.457,15.469l17.848,19.008h-4.589l-15.11-16.059v16.059h-3.516V0z"/>
	<path d="M107.279,0l16.078,34.477h-3.722l-5.422-11.344H99.361L93.99,34.477h-3.844L106.435,0H107.279z M106.844,7.325
		l-5.908,12.479h11.787L106.844,7.325z"/>
</g>
</svg>