<!-- Generator: Adobe Illustrator 19.1.0, SVG Export Plug-In  -->
<svg version="1.1"
	 xmlns="http://www.w3.org/2000/svg" xmlns:xlink="http://www.w3.org/1999/xlink" xmlns:a="http://ns.adobe.com/AdobeSVGViewerExtensions/3.0/"
	 x="0px" y="0px" width="267.825px" height="19.214px" viewBox="0 0 267.825 19.214"
	 style="enable-background:new 0 0 267.825 19.214;" xml:space="preserve">
<style type="text/css">
	.st0{fill:#333333;}
</style>
<defs>
</defs>
<g>
	<path class="st0" d="M10.504,13.728c0,1.976-0.459,3.385-1.378,4.225c-0.919,0.841-2.323,1.261-4.212,1.261
		c-0.988,0-1.799-0.135-2.431-0.403c-0.633-0.269-1.136-0.65-1.508-1.144c-0.373-0.494-0.629-1.07-0.767-1.729
		C0.069,15.28,0,14.586,0,13.858v-0.806h3.432v0.572c0,0.988,0.108,1.721,0.325,2.197c0.217,0.477,0.663,0.715,1.339,0.715
		c0.676,0,1.122-0.238,1.339-0.715c0.216-0.477,0.325-1.209,0.325-2.197V0.364h3.744V13.728z"/>
	<path class="st0" d="M23.218,0.364l4.914,18.564h-3.9l-0.858-3.926h-4.94l-0.858,3.926h-3.9L18.59,0.364H23.218z M22.724,11.934
		L20.93,3.588h-0.052l-1.794,8.346H22.724z"/>
	<path class="st0" d="M38.012,0.364c0.953,0,1.755,0.161,2.405,0.481c0.65,0.321,1.174,0.741,1.573,1.261
		c0.398,0.52,0.685,1.114,0.858,1.781c0.173,0.667,0.26,1.348,0.26,2.041c0,0.954-0.143,1.786-0.429,2.496
		c-0.286,0.711-0.685,1.292-1.196,1.742c-0.512,0.451-1.131,0.789-1.859,1.014c-0.728,0.226-1.534,0.338-2.418,0.338h-2.002v7.41
		h-3.744V0.364H38.012z M36.868,8.762c0.745,0,1.348-0.225,1.807-0.676c0.459-0.451,0.689-1.153,0.689-2.106
		c0-0.936-0.2-1.646-0.598-2.132C38.367,3.363,37.7,3.12,36.764,3.12h-1.56v5.642H36.868z"/>
	<path class="st0" d="M54.262,0.364l4.914,18.564h-3.9l-0.858-3.926h-4.94l-0.858,3.926h-3.9l4.914-18.564H54.262z M53.768,11.934
		l-1.794-8.346h-0.052l-1.794,8.346H53.768z"/>
	<path class="st0" d="M71.344,13.078h0.052V0.364h3.432v18.564h-4.264l-4.576-13h-0.052v13h-3.432V0.364h4.316L71.344,13.078z"/>
	<path class="st0" d="M89.83,3.432H83.2V7.8h6.24v3.068H83.2v4.992h6.89v3.068H79.456V0.364H89.83V3.432z"/>
	<path class="st0" d="M97.005,13.676c0,0.434,0.035,0.828,0.104,1.183c0.069,0.355,0.199,0.654,0.39,0.897
		c0.19,0.243,0.446,0.433,0.767,0.572c0.32,0.139,0.723,0.208,1.209,0.208c0.572,0,1.087-0.186,1.547-0.559
		c0.459-0.373,0.689-0.949,0.689-1.729c0-0.416-0.057-0.775-0.169-1.079c-0.113-0.303-0.299-0.576-0.559-0.819
		c-0.26-0.242-0.603-0.463-1.027-0.663c-0.425-0.199-0.949-0.403-1.573-0.611c-0.832-0.277-1.551-0.581-2.158-0.91
		c-0.607-0.329-1.114-0.715-1.521-1.157c-0.408-0.442-0.707-0.953-0.897-1.534c-0.191-0.581-0.286-1.252-0.286-2.015
		c0-1.837,0.511-3.207,1.534-4.108C96.078,0.451,97.482,0,99.268,0c0.832,0,1.599,0.091,2.301,0.273
		c0.702,0.182,1.309,0.477,1.82,0.884c0.511,0.407,0.91,0.927,1.196,1.56s0.429,1.391,0.429,2.275v0.52h-3.588
		c0-0.884-0.156-1.564-0.468-2.041c-0.312-0.477-0.832-0.715-1.56-0.715c-0.416,0-0.763,0.061-1.04,0.182
		C98.08,3.06,97.859,3.22,97.694,3.419c-0.165,0.199-0.277,0.429-0.338,0.689c-0.061,0.26-0.091,0.529-0.091,0.806
		c0,0.572,0.121,1.053,0.364,1.443c0.243,0.39,0.763,0.75,1.56,1.079l2.886,1.248c0.71,0.312,1.291,0.637,1.742,0.975
		s0.81,0.702,1.079,1.092c0.269,0.39,0.455,0.819,0.559,1.287c0.104,0.468,0.156,0.988,0.156,1.56c0,1.959-0.568,3.385-1.703,4.277
		c-1.136,0.893-2.717,1.339-4.745,1.339c-2.115,0-3.627-0.459-4.537-1.378s-1.365-2.236-1.365-3.952V13.13h3.744V13.676z"/>
	<path class="st0" d="M119.885,3.432h-6.63V7.8h6.24v3.068h-6.24v4.992h6.89v3.068h-10.634V0.364h10.374V3.432z"/>
	<path class="st0" d="M138.579,0.364c0.763,0,1.469,0.078,2.119,0.234c0.65,0.156,1.209,0.416,1.677,0.78
		c0.468,0.364,0.832,0.849,1.092,1.456c0.26,0.607,0.39,1.352,0.39,2.236c0,1.005-0.234,1.868-0.702,2.587
		c-0.468,0.719-1.17,1.209-2.106,1.469v0.052c1.04,0.139,1.863,0.581,2.47,1.326c0.606,0.745,0.91,1.742,0.91,2.99
		c0,0.728-0.096,1.421-0.286,2.08c-0.191,0.659-0.516,1.235-0.975,1.729s-1.057,0.889-1.794,1.183
		c-0.737,0.295-1.651,0.442-2.743,0.442h-6.318V0.364H138.579z M137.123,7.982c1.04,0,1.798-0.186,2.275-0.559
		c0.477-0.373,0.715-1.001,0.715-1.885c0-0.884-0.217-1.508-0.65-1.872c-0.434-0.364-1.118-0.546-2.054-0.546h-1.352v4.862H137.123z
		 M137.513,16.172c0.901,0,1.629-0.199,2.184-0.598c0.555-0.398,0.832-1.135,0.832-2.21c0-0.537-0.074-0.983-0.221-1.339
		c-0.147-0.355-0.347-0.641-0.598-0.858c-0.251-0.216-0.55-0.368-0.897-0.455s-0.728-0.13-1.144-0.13h-1.612v5.59H137.513z"/>
	<path class="st0" d="M155.712,0.364c1.56,0,2.773,0.395,3.64,1.183s1.3,1.989,1.3,3.601c0,1.248-0.251,2.266-0.754,3.055
		c-0.503,0.789-1.283,1.296-2.34,1.521v0.052c0.936,0.139,1.621,0.442,2.054,0.91c0.433,0.468,0.702,1.222,0.806,2.262
		c0.035,0.347,0.061,0.724,0.078,1.131c0.017,0.408,0.035,0.863,0.052,1.365c0.035,0.988,0.087,1.742,0.156,2.262
		c0.104,0.52,0.329,0.875,0.676,1.066v0.156h-4.056c-0.191-0.26-0.312-0.559-0.364-0.897c-0.052-0.338-0.087-0.689-0.104-1.053
		l-0.104-3.562c-0.035-0.728-0.217-1.3-0.546-1.716c-0.33-0.416-0.884-0.624-1.664-0.624h-2.002v7.852h-3.744V0.364H155.712z
		 M154.101,8.476c0.901,0,1.595-0.212,2.08-0.637c0.485-0.425,0.728-1.14,0.728-2.145c0-1.716-0.867-2.574-2.6-2.574h-1.768v5.356
		H154.101z"/>
	<path class="st0" d="M175.655,3.432h-6.63V7.8h6.24v3.068h-6.24v4.992h6.89v3.068h-10.634V0.364h10.374V3.432z"/>
	<path class="st0" d="M188.057,0.364l4.915,18.564h-3.9l-0.858-3.926h-4.94l-0.858,3.926h-3.9l4.914-18.564H188.057z
		 M187.562,11.934l-1.794-8.346h-0.052l-1.794,8.346H187.562z"/>
	<path class="st0" d="M200.042,7.8h0.052l4.732-7.436h4.056l-5.044,7.956l5.616,10.608h-4.212l-3.822-7.618l-1.378,2.106v5.512
		h-3.744V0.364h3.744V7.8z"/>
	<path class="st0" d="M222.662,0.364v3.068h-6.63V7.8h6.24v3.068h-6.24v8.06h-3.744V0.364H222.662z"/>
	<path class="st0" d="M233.193,0.364l4.914,18.564h-3.9l-0.857-3.926h-4.94l-0.857,3.926h-3.9l4.914-18.564H233.193z
		 M232.699,11.934l-1.794-8.346h-0.052l-1.794,8.346H232.699z"/>
	<path class="st0" d="M244.451,13.676c0,0.434,0.034,0.828,0.104,1.183c0.069,0.355,0.199,0.654,0.39,0.897
		c0.191,0.243,0.446,0.433,0.768,0.572c0.32,0.139,0.724,0.208,1.209,0.208c0.572,0,1.087-0.186,1.547-0.559
		c0.459-0.373,0.689-0.949,0.689-1.729c0-0.416-0.057-0.775-0.17-1.079c-0.112-0.303-0.299-0.576-0.559-0.819
		c-0.26-0.242-0.603-0.463-1.027-0.663c-0.425-0.199-0.948-0.403-1.572-0.611c-0.832-0.277-1.552-0.581-2.158-0.91
		c-0.607-0.329-1.114-0.715-1.521-1.157s-0.706-0.953-0.896-1.534c-0.191-0.581-0.286-1.252-0.286-2.015
		c0-1.837,0.511-3.207,1.534-4.108C243.523,0.451,244.927,0,246.712,0c0.832,0,1.599,0.091,2.301,0.273
		c0.702,0.182,1.309,0.477,1.82,0.884c0.511,0.407,0.91,0.927,1.195,1.56c0.286,0.633,0.43,1.391,0.43,2.275v0.52h-3.588
		c0-0.884-0.156-1.564-0.469-2.041c-0.312-0.477-0.832-0.715-1.56-0.715c-0.416,0-0.763,0.061-1.04,0.182
		c-0.277,0.122-0.498,0.282-0.663,0.481s-0.277,0.429-0.338,0.689c-0.061,0.26-0.091,0.529-0.091,0.806
		c0,0.572,0.121,1.053,0.364,1.443c0.242,0.39,0.762,0.75,1.56,1.079l2.886,1.248c0.711,0.312,1.291,0.637,1.742,0.975
		c0.45,0.338,0.811,0.702,1.079,1.092c0.269,0.39,0.455,0.819,0.559,1.287c0.104,0.468,0.156,0.988,0.156,1.56
		c0,1.959-0.567,3.385-1.703,4.277c-1.135,0.893-2.717,1.339-4.745,1.339c-2.114,0-3.627-0.459-4.537-1.378
		c-0.909-0.919-1.364-2.236-1.364-3.952V13.13h3.744V13.676z"/>
	<path class="st0" d="M267.825,3.432h-4.056v15.496h-3.744V3.432h-4.057V0.364h11.856V3.432z"/>
</g>
</svg>