<!-- Generator: Adobe Illustrator 18.1.1, SVG Export Plug-In  -->
<svg version="1.1"
	 xmlns="http://www.w3.org/2000/svg" xmlns:xlink="http://www.w3.org/1999/xlink" xmlns:a="http://ns.adobe.com/AdobeSVGViewerExtensions/3.0/"
	 x="0px" y="0px" width="23.704px" height="23.704px" viewBox="0 0 23.704 23.704" enable-background="new 0 0 23.704 23.704"
	 xml:space="preserve">
<defs>
</defs>
<g>
	<path d="M11.866,0c1.643,0,3.181,0.312,4.616,0.935c1.435,0.623,2.686,1.468,3.752,2.535c1.067,1.067,1.912,2.318,2.535,3.752
		c0.623,1.435,0.935,2.974,0.935,4.616s-0.312,3.182-0.935,4.616s-1.468,2.69-2.535,3.767s-2.318,1.926-3.752,2.549
		c-1.435,0.623-2.974,0.935-4.616,0.935S8.685,23.393,7.25,22.77c-1.435-0.623-2.69-1.473-3.767-2.549s-1.926-2.332-2.549-3.767
		S0,13.48,0,11.838s0.312-3.181,0.935-4.616c0.623-1.435,1.473-2.686,2.549-3.752C4.56,2.403,5.815,1.558,7.25,0.935
		C8.685,0.312,10.224,0,11.866,0z M5.098,12.064c-0.396,0.34-0.595,0.755-0.595,1.246c0,0.51,0.198,0.916,0.595,1.218V12.064z
		 M6.315,11.696H6.174c-0.095,0-0.175,0.005-0.241,0.014c-0.066,0.01-0.146,0.024-0.241,0.043v3.115
		c0.094,0.019,0.174,0.033,0.241,0.043c0.066,0.009,0.146,0.014,0.241,0.014h0.142V11.696z M7.562,10.847
		c-0.246,0.302-0.416,0.67-0.51,1.104c-0.019-0.019-0.038-0.033-0.057-0.042c-0.019-0.01-0.038-0.024-0.057-0.043v3.059h0.623
		V10.847z M8.779,9.969c-0.113,0.038-0.222,0.085-0.326,0.142c-0.104,0.057-0.203,0.113-0.297,0.17v4.645h0.623V9.969z
		 M10.025,9.884C9.95,9.865,9.884,9.851,9.827,9.841C9.771,9.832,9.704,9.827,9.629,9.827c-0.038,0-0.076,0.005-0.113,0.014
		C9.478,9.851,9.44,9.855,9.402,9.855v5.069h0.623V9.884z M11.243,9.827c-0.038,0.076-0.085,0.142-0.142,0.198
		s-0.104,0.113-0.142,0.17c-0.208-0.113-0.416-0.198-0.623-0.255v4.984h0.906V9.827z M17.417,14.925
		c0.604-0.038,1.052-0.227,1.345-0.566c0.292-0.34,0.439-0.746,0.439-1.218c0-0.491-0.166-0.906-0.496-1.246
		c-0.331-0.34-0.75-0.51-1.26-0.51c-0.208,0-0.435,0.047-0.68,0.142c-0.095-0.774-0.435-1.43-1.02-1.968
		c-0.585-0.538-1.284-0.807-2.096-0.807c-0.416,0-0.798,0.071-1.147,0.212c-0.35,0.142-0.666,0.335-0.949,0.581v5.381H17.417z"/>
</g>
</svg>