<!-- Generator: Adobe Illustrator 19.1.0, SVG Export Plug-In  -->
<svg version="1.1"
	 xmlns="http://www.w3.org/2000/svg" xmlns:xlink="http://www.w3.org/1999/xlink" xmlns:a="http://ns.adobe.com/AdobeSVGViewerExtensions/3.0/"
	 x="0px" y="0px" width="350.074px" height="70.985px" viewBox="0 0 350.074 70.985"
	 style="enable-background:new 0 0 350.074 70.985;" xml:space="preserve">
<style type="text/css">
	.st0{fill:#5D5D5D;}
	.st1{fill:none;stroke:#000000;stroke-width:3;stroke-miterlimit:10;}
</style>
<defs>
</defs>
<g>
	<path class="st0" d="M43.546,61.561h-10.96V55.01c-1.82,2.548-3.968,4.445-6.446,5.69s-4.976,1.869-7.496,1.869
		c-5.123,0-9.511-2.064-13.165-6.194C1.827,52.246,0,46.485,0,39.095c0-7.559,1.777-13.304,5.333-17.238
		c3.555-3.933,8.048-5.9,13.479-5.9c4.982,0,9.294,2.072,12.934,6.215V0h11.8V61.561z M12.052,38.297
		c0,4.76,0.657,8.203,1.974,10.33c1.903,3.08,4.562,4.619,7.979,4.619c2.715,0,5.024-1.155,6.929-3.464
		c1.903-2.31,2.855-5.759,2.855-10.351c0-5.123-0.924-8.811-2.771-11.065c-1.848-2.253-4.214-3.38-7.097-3.38
		c-2.8,0-5.144,1.113-7.034,3.338S12.052,33.874,12.052,38.297z"/>
	<path class="st0" d="M44.858,10.918V0h11.8v10.918H44.858z M44.858,61.561V16.965h11.8v44.596H44.858z"/>
	<path class="st0" d="M54.274,48.837l11.842-1.806c0.504,2.296,1.525,4.039,3.065,5.228c1.539,1.19,3.695,1.785,6.467,1.785
		c3.051,0,5.347-0.56,6.887-1.68c1.035-0.783,1.554-1.833,1.554-3.149c0-0.896-0.28-1.638-0.84-2.226
		c-0.588-0.56-1.904-1.077-3.947-1.554c-9.519-2.1-15.552-4.017-18.099-5.753c-3.527-2.407-5.291-5.753-5.291-10.036
		c0-3.863,1.525-7.11,4.577-9.742c3.051-2.631,7.782-3.947,14.193-3.947c6.103,0,10.638,0.994,13.605,2.981
		c2.967,1.988,5.011,4.928,6.131,8.818l-11.128,2.058c-0.477-1.735-1.379-3.065-2.708-3.989c-1.33-0.924-3.227-1.386-5.69-1.386
		c-3.107,0-5.333,0.435-6.677,1.302c-0.896,0.616-1.344,1.414-1.344,2.394c0,0.84,0.392,1.554,1.176,2.142
		c1.063,0.784,4.738,1.89,11.023,3.317c6.284,1.428,10.672,3.178,13.165,5.249c2.463,2.1,3.695,5.025,3.695,8.776
		c0,4.088-1.708,7.601-5.123,10.54c-3.416,2.939-8.469,4.409-15.159,4.409c-6.075,0-10.883-1.231-14.424-3.695
		C57.682,56.41,55.366,53.064,54.274,48.837z"/>
	<path class="st0" d="M116.391,16.965v9.406h-8.062v17.973c0,3.64,0.077,5.76,0.231,6.362c0.153,0.603,0.504,1.099,1.05,1.491
		c0.546,0.393,1.21,0.588,1.995,0.588c1.092,0,2.673-0.378,4.745-1.134l1.008,9.154c-2.744,1.176-5.852,1.764-9.322,1.764
		c-2.128,0-4.046-0.357-5.753-1.071c-1.708-0.714-2.96-1.638-3.758-2.771s-1.351-2.667-1.659-4.598
		c-0.252-1.371-0.378-4.143-0.378-8.314V26.371h-5.417v-9.406h5.417v-8.86l11.842-6.887v15.747H116.391z"/>
	<path class="st0" d="M125.555,61.561h-11.8V16.965h10.96v6.341c1.875-2.995,3.562-4.969,5.06-5.921
		c1.497-0.951,3.198-1.428,5.102-1.428c2.688,0,5.276,0.742,7.769,2.226l-3.653,10.288c-1.988-1.287-3.836-1.932-5.543-1.932
		c-1.652,0-3.052,0.456-4.199,1.365c-1.148,0.91-2.051,2.555-2.708,4.934c-0.658,2.38-0.987,7.363-0.987,14.949V61.561z"/>
	<path class="st0" d="M137.407,10.918V0h11.8v10.918H137.407z M137.407,61.561V16.965h11.8v44.596H137.407z"/>
	<path class="st0" d="M150.477,61.561V0h11.8v22.172c3.639-4.143,7.95-6.215,12.934-6.215c5.431,0,9.924,1.967,13.479,5.9
		c3.555,3.934,5.333,9.582,5.333,16.944c0,7.615-1.813,13.479-5.438,17.595c-3.626,4.115-8.028,6.173-13.207,6.173
		c-2.548,0-5.06-0.637-7.538-1.911s-4.613-3.156-6.404-5.648v6.551H150.477z M162.192,38.297c0,4.619,0.728,8.035,2.184,10.246
		c2.043,3.136,4.759,4.703,8.146,4.703c2.604,0,4.822-1.113,6.656-3.338c1.833-2.226,2.75-5.732,2.75-10.519
		c0-5.095-0.924-8.769-2.771-11.023c-1.848-2.253-4.214-3.38-7.097-3.38c-2.828,0-5.18,1.099-7.055,3.296
		C163.13,30.48,162.192,33.818,162.192,38.297z"/>
	<path class="st0" d="M222.545,61.561v-6.677c-1.624,2.38-3.758,4.256-6.404,5.627s-5.438,2.058-8.377,2.058
		c-2.996,0-5.684-0.658-8.062-1.974c-2.38-1.315-4.102-3.163-5.165-5.543c-1.064-2.379-1.596-5.669-1.596-9.868V16.965h11.8v20.492
		c0,6.271,0.216,10.114,0.651,11.527c0.434,1.414,1.224,2.534,2.373,3.359c1.147,0.826,2.604,1.239,4.367,1.239
		c2.016,0,3.821-0.552,5.417-1.659c1.596-1.105,2.688-2.478,3.275-4.115s0.882-5.648,0.882-12.031V16.965h11.8v44.596H222.545z"/>
	<path class="st0" d="M255.855,16.965v9.406h-8.062v17.973c0,3.64,0.077,5.76,0.231,6.362c0.153,0.603,0.504,1.099,1.05,1.491
		c0.546,0.393,1.21,0.588,1.995,0.588c1.092,0,2.673-0.378,4.745-1.134l1.008,9.154c-2.744,1.176-5.852,1.764-9.322,1.764
		c-2.128,0-4.046-0.357-5.753-1.071c-1.708-0.714-2.96-1.638-3.758-2.771s-1.351-2.667-1.659-4.598
		c-0.252-1.371-0.378-4.143-0.378-8.314V26.371h-5.417v-9.406h5.417v-8.86l11.842-6.887v15.747H255.855z"/>
	<path class="st0" d="M253.724,10.918V0h11.8v10.918H253.724z M253.724,61.561V16.965h11.8v44.596H253.724z"/>
	<path class="st0" d="M264.567,38.633c0-3.919,0.966-7.712,2.897-11.38c1.932-3.667,4.667-6.467,8.209-8.398
		c3.541-1.932,7.496-2.897,11.863-2.897c6.746,0,12.275,2.191,16.587,6.572c4.311,4.382,6.467,9.917,6.467,16.608
		c0,6.747-2.177,12.339-6.529,16.776c-4.354,4.438-9.834,6.656-16.44,6.656c-4.088,0-7.986-0.924-11.695-2.771
		c-3.71-1.848-6.53-4.556-8.461-8.125S264.567,43.756,264.567,38.633z M276.661,39.263c0,4.424,1.05,7.811,3.149,10.162
		s4.688,3.527,7.769,3.527c3.079,0,5.662-1.176,7.748-3.527c2.085-2.352,3.128-5.767,3.128-10.246c0-4.367-1.043-7.727-3.128-10.078
		c-2.086-2.352-4.669-3.527-7.748-3.527c-3.08,0-5.669,1.176-7.769,3.527S276.661,34.84,276.661,39.263z"/>
	<path class="st0" d="M350.074,61.561h-11.8v-22.76c0-4.814-0.252-7.929-0.756-9.343c-0.504-1.413-1.322-2.512-2.457-3.296
		c-1.133-0.783-2.498-1.176-4.094-1.176c-2.044,0-3.878,0.561-5.501,1.68c-1.624,1.12-2.736,2.604-3.339,4.451
		c-0.602,1.848-0.902,5.264-0.902,10.246v20.198h-11.8V16.965h10.96v6.551c3.891-5.039,8.79-7.559,14.697-7.559
		c2.604,0,4.982,0.469,7.139,1.407c2.155,0.938,3.786,2.135,4.893,3.59c1.105,1.456,1.875,3.107,2.309,4.955
		c0.435,1.848,0.651,4.493,0.651,7.937V61.561z"/>
</g>
<line class="st1" x1="13.473" y1="69.485" x2="348.473" y2="69.485"/>
</svg>