<!-- Generator: Adobe Illustrator 18.1.1, SVG Export Plug-In  -->
<svg version="1.1"
	 xmlns="http://www.w3.org/2000/svg" xmlns:xlink="http://www.w3.org/1999/xlink" xmlns:a="http://ns.adobe.com/AdobeSVGViewerExtensions/3.0/"
	 x="0px" y="0px" width="187.588px" height="66.809px" viewBox="0 0 187.588 66.809" enable-background="new 0 0 187.588 66.809"
	 xml:space="preserve">
<defs>
</defs>
<g>
	<path fill="#5D5D5D" d="M11.8,60.343H0V15.747h10.96v6.341c1.875-2.995,3.562-4.969,5.061-5.921
		c1.497-0.951,3.197-1.428,5.102-1.428c2.688,0,5.276,0.742,7.769,2.226l-3.653,10.288c-1.988-1.287-3.836-1.932-5.543-1.932
		c-1.652,0-3.052,0.456-4.199,1.365c-1.148,0.91-2.051,2.555-2.709,4.934C12.129,34,11.8,38.983,11.8,46.569V60.343z"/>
	<path fill="#5D5D5D" d="M20.922,37.415c0-3.919,0.966-7.712,2.897-11.38c1.932-3.667,4.668-6.467,8.21-8.398
		c3.541-1.932,7.495-2.897,11.862-2.897c6.746,0,12.275,2.191,16.587,6.572c4.311,4.382,6.467,9.917,6.467,16.608
		c0,6.747-2.177,12.339-6.529,16.776c-4.354,4.438-9.834,6.656-16.44,6.656c-4.088,0-7.985-0.924-11.694-2.771
		c-3.71-1.848-6.53-4.556-8.462-8.125S20.922,42.538,20.922,37.415z M33.016,38.045c0,4.424,1.05,7.811,3.149,10.162
		s4.688,3.527,7.769,3.527c3.079,0,5.662-1.176,7.748-3.527c2.085-2.352,3.128-5.767,3.128-10.246c0-4.367-1.043-7.727-3.128-10.078
		c-2.086-2.352-4.669-3.527-7.748-3.527c-3.08,0-5.669,1.176-7.769,3.527S33.016,33.622,33.016,38.045z"/>
	<path fill="#5D5D5D" d="M61.707,47.619l11.842-1.806c0.504,2.296,1.525,4.039,3.065,5.228c1.539,1.19,3.695,1.785,6.467,1.785
		c3.051,0,5.347-0.56,6.887-1.68c1.035-0.783,1.554-1.833,1.554-3.149c0-0.896-0.28-1.638-0.84-2.226
		c-0.588-0.56-1.904-1.077-3.947-1.554c-9.519-2.1-15.552-4.017-18.099-5.753c-3.527-2.407-5.291-5.753-5.291-10.036
		c0-3.863,1.525-7.11,4.577-9.742c3.051-2.631,7.782-3.947,14.193-3.947c6.103,0,10.638,0.994,13.605,2.981
		c2.967,1.988,5.011,4.928,6.131,8.818l-11.128,2.058c-0.477-1.735-1.379-3.065-2.708-3.989c-1.33-0.924-3.228-1.386-5.69-1.386
		c-3.107,0-5.333,0.435-6.677,1.302c-0.896,0.616-1.344,1.414-1.344,2.394c0,0.84,0.392,1.554,1.176,2.142
		c1.063,0.784,4.738,1.89,11.023,3.317c6.284,1.428,10.672,3.178,13.164,5.249c2.463,2.1,3.695,5.025,3.695,8.776
		c0,4.088-1.708,7.601-5.123,10.54c-3.416,2.939-8.469,4.409-15.159,4.409c-6.075,0-10.883-1.231-14.425-3.695
		C65.115,55.192,62.799,51.847,61.707,47.619z"/>
	<path fill="#5D5D5D" d="M123.823,15.747v9.406h-8.062v17.973c0,3.64,0.077,5.76,0.23,6.362c0.154,0.603,0.504,1.099,1.051,1.491
		c0.545,0.393,1.21,0.588,1.994,0.588c1.092,0,2.673-0.378,4.745-1.134l1.008,9.154c-2.744,1.176-5.852,1.764-9.322,1.764
		c-2.128,0-4.046-0.357-5.753-1.071c-1.708-0.714-2.961-1.638-3.758-2.771c-0.799-1.134-1.352-2.667-1.659-4.598
		c-0.252-1.371-0.378-4.143-0.378-8.314V25.153h-5.417v-9.406h5.417v-8.86L115.761,0v15.747H123.823z"/>
	<path fill="#5D5D5D" d="M147.517,46.149l11.758,1.974c-1.512,4.312-3.898,7.594-7.16,9.847c-3.261,2.254-7.342,3.38-12.24,3.38
		c-7.755,0-13.494-2.533-17.217-7.601c-2.939-4.059-4.409-9.182-4.409-15.369c0-7.391,1.932-13.178,5.795-17.364
		c3.863-4.185,8.748-6.278,14.655-6.278c6.635,0,11.869,2.191,15.705,6.572c3.835,4.382,5.669,11.093,5.501,20.135h-29.562
		c0.084,3.5,1.035,6.222,2.855,8.167c1.819,1.946,4.087,2.918,6.803,2.918c1.848,0,3.401-0.504,4.661-1.512
		S146.872,48.39,147.517,46.149z M148.188,34.224c-0.084-3.415-0.966-6.011-2.646-7.79c-1.68-1.777-3.724-2.667-6.131-2.667
		c-2.576,0-4.703,0.938-6.383,2.813c-1.68,1.876-2.506,4.424-2.478,7.643H148.188z"/>
	<path fill="#5D5D5D" d="M170.497,60.343h-11.8V15.747h10.96v6.341c1.875-2.995,3.562-4.969,5.061-5.921
		c1.497-0.951,3.197-1.428,5.102-1.428c2.688,0,5.276,0.742,7.769,2.226l-3.653,10.288c-1.988-1.287-3.836-1.932-5.543-1.932
		c-1.652,0-3.052,0.456-4.199,1.365c-1.148,0.91-2.051,2.555-2.709,4.934c-0.657,2.38-0.986,7.363-0.986,14.949V60.343z"/>
</g>
<line fill="none" stroke="#5D5D5D" stroke-width="2" stroke-miterlimit="10" x1="1.331" y1="65.809" x2="167.331" y2="65.809"/>
</svg>