<!-- Generator: Adobe Illustrator 18.1.1, SVG Export Plug-In  -->
<svg version="1.1"
	 xmlns="http://www.w3.org/2000/svg" xmlns:xlink="http://www.w3.org/1999/xlink" xmlns:a="http://ns.adobe.com/AdobeSVGViewerExtensions/3.0/"
	 x="0px" y="0px" width="168.692px" height="28.45px" viewBox="0 0 168.692 28.45" enable-background="new 0 0 168.692 28.45"
	 xml:space="preserve">
<defs>
</defs>
<g>
	<path d="M9.512,3.857c-0.793,0-1.513,0.135-2.161,0.406C6.704,4.534,6.152,4.911,5.699,5.394C5.244,5.878,4.891,6.453,4.64,7.12
		C4.389,7.787,4.263,8.517,4.263,9.309c0,0.832,0.145,1.557,0.435,2.175c0.29,0.619,0.662,1.15,1.116,1.595
		c0.454,0.445,0.961,0.798,1.522,1.059c0.561,0.261,1.112,0.44,1.653,0.537c0.522,0.097,1.092,0.228,1.711,0.392
		c0.618,0.164,1.189,0.406,1.711,0.725c0.522,0.319,0.957,0.75,1.305,1.291c0.348,0.542,0.522,1.228,0.522,2.059
		c0,0.735-0.116,1.378-0.348,1.929s-0.551,1.011-0.957,1.378c-0.406,0.367-0.875,0.643-1.407,0.826s-1.097,0.275-1.696,0.275H0
		v-3.856h9.483c0.155,0,0.275-0.054,0.363-0.16c0.087-0.105,0.13-0.217,0.13-0.333c0-0.271-0.116-0.454-0.348-0.551
		c-0.058-0.02-0.29-0.068-0.696-0.146c-0.406-0.077-0.866-0.174-1.377-0.29c-0.513-0.116-1.02-0.246-1.522-0.392
		c-0.503-0.145-0.89-0.294-1.16-0.449c-0.561-0.31-1.112-0.696-1.653-1.16c-0.542-0.464-1.02-1.02-1.436-1.667
		c-0.416-0.648-0.75-1.402-1-2.262c-0.251-0.86-0.377-1.851-0.377-2.973c0-1.295,0.237-2.513,0.711-3.654
		C1.59,4.515,2.233,3.529,3.045,2.697c0.812-0.831,1.773-1.489,2.886-1.972C7.042,0.242,8.236,0,9.512,0h9.599v3.857H9.512z
		 M9.657,8.787c-0.155,0-0.276,0.049-0.363,0.145c-0.087,0.097-0.13,0.213-0.13,0.348c0,0.116,0.029,0.228,0.087,0.333
		C9.309,9.72,9.396,9.783,9.512,9.802c0.058,0.02,0.285,0.072,0.681,0.16c0.396,0.087,0.846,0.188,1.349,0.304
		c0.502,0.116,1.01,0.247,1.522,0.392s0.904,0.286,1.174,0.42c0.58,0.329,1.15,0.725,1.711,1.189
		c0.561,0.464,1.063,1.02,1.508,1.667c0.444,0.648,0.802,1.402,1.073,2.262c0.271,0.86,0.406,1.842,0.406,2.943
		c0,1.315-0.237,2.538-0.71,3.669c-0.474,1.131-1.117,2.112-1.929,2.943s-1.774,1.489-2.885,1.972
		c-1.112,0.483-2.306,0.726-3.582,0.726H0v-3.857h9.831c0.812,0,1.551-0.135,2.218-0.406c0.667-0.271,1.242-0.647,1.726-1.131
		c0.483-0.482,0.855-1.059,1.117-1.726c0.261-0.667,0.392-1.396,0.392-2.189c0-1.005-0.184-1.827-0.551-2.465
		c-0.367-0.638-0.822-1.146-1.363-1.522c-0.542-0.377-1.126-0.657-1.755-0.841c-0.628-0.183-1.203-0.333-1.725-0.449
		c-0.58-0.116-1.146-0.275-1.697-0.479c-0.551-0.203-1.04-0.479-1.464-0.827c-0.425-0.348-0.769-0.783-1.029-1.305
		c-0.261-0.522-0.392-1.17-0.392-1.943c0-0.734,0.106-1.377,0.319-1.928c0.212-0.551,0.507-1.01,0.885-1.377
		c0.377-0.367,0.821-0.643,1.334-0.827c0.512-0.184,1.068-0.275,1.667-0.275h9.599v3.857L9.657,8.787z"/>
	<path d="M20.184,8.758c0-1.218,0.222-2.364,0.667-3.437c0.444-1.073,1.039-2.001,1.784-2.784c0.744-0.783,1.604-1.401,2.581-1.856
		C26.191,0.228,27.202,0,28.246,0h10.991v3.857H28.71c-0.735,0-1.392,0.145-1.972,0.435c-0.58,0.29-1.069,0.667-1.465,1.131
		c-0.396,0.464-0.701,0.991-0.914,1.581s-0.319,1.174-0.319,1.754v10.934c0,0.579,0.106,1.165,0.319,1.754
		c0.213,0.59,0.517,1.116,0.914,1.581c0.396,0.464,0.885,0.841,1.465,1.131c0.58,0.29,1.237,0.435,1.972,0.435h10.527v3.857H28.246
		c-1.044,0-2.055-0.228-3.03-0.682c-0.977-0.454-1.837-1.073-2.581-1.856c-0.745-0.782-1.339-1.711-1.784-2.783
		c-0.445-1.073-0.667-2.219-0.667-3.437V8.758z M25.085,13.746V9.338c0-0.502,0.082-1.02,0.247-1.552
		c0.164-0.531,0.411-1.01,0.74-1.436c0.328-0.425,0.744-0.773,1.247-1.044c0.503-0.271,1.092-0.406,1.769-0.406h10.15v3.857H29.174
		c-0.116,0-0.237,0.068-0.363,0.203c-0.126,0.135-0.188,0.319-0.188,0.551v0.406h8.41v3.828H25.085z M25.085,14.703h11.948v3.857
		h-8.41v0.377c0,0.232,0.062,0.416,0.188,0.552c0.125,0.135,0.247,0.203,0.363,0.203h10.063v3.856h-10.15
		c-0.677,0-1.266-0.135-1.769-0.406c-0.503-0.271-0.918-0.618-1.247-1.044c-0.329-0.425-0.576-0.903-0.74-1.436
		c-0.165-0.531-0.247-1.048-0.247-1.551V14.703z"/>
	<path d="M49.3,25.056h12.035L53.969,4.611c-0.058-0.193-0.232-0.367-0.522-0.522s-0.57-0.232-0.841-0.232
		c-0.31,0-0.595,0.077-0.855,0.232c-0.261,0.155-0.42,0.329-0.479,0.522L42.891,28.45h-3.857l8.961-25.289
		c0.135-0.406,0.328-0.797,0.58-1.174c0.251-0.377,0.566-0.715,0.943-1.015c0.377-0.299,0.821-0.537,1.334-0.71
		C51.363,0.087,51.948,0,52.606,0c0.657,0,1.237,0.087,1.74,0.261s0.943,0.411,1.32,0.71c0.377,0.3,0.691,0.638,0.942,1.015
		c0.251,0.377,0.454,0.769,0.609,1.174l8.961,25.289H49.3V25.056z M49.3,24.012v-1.102l-1.856,5.539h-3.509L51.91,5.336
		c0.039-0.116,0.131-0.218,0.276-0.305s0.285-0.13,0.42-0.13c0.135,0,0.28,0.043,0.435,0.13c0.154,0.087,0.251,0.188,0.29,0.305
		l6.612,18.676H49.3z M52.606,13.253l-2.32,7.308h4.727L52.606,13.253z"/>
	<path d="M86.275,28.45h-13.05c-1.044,0-2.055-0.228-3.03-0.682c-0.977-0.454-1.837-1.073-2.581-1.856
		c-0.745-0.782-1.339-1.711-1.784-2.783c-0.445-1.073-0.667-2.219-0.667-3.437V8.758c0-1.218,0.222-2.364,0.667-3.437
		c0.444-1.073,1.039-2.001,1.784-2.784c0.744-0.783,1.604-1.401,2.581-1.856C71.17,0.228,72.181,0,73.225,0h13.05v3.857H73.688
		c-0.735,0-1.392,0.145-1.972,0.435c-0.58,0.29-1.069,0.667-1.465,1.131c-0.396,0.464-0.701,0.991-0.914,1.581
		S69.02,8.178,69.02,8.758v10.934c0,0.579,0.106,1.165,0.319,1.754c0.213,0.59,0.517,1.116,0.914,1.581
		c0.396,0.464,0.885,0.841,1.465,1.131c0.58,0.29,1.237,0.435,1.972,0.435h9.338V13.746h-8.642V9.918h11.89V28.45z M74.153,19.692
		h3.189c0.136,0,0.237-0.059,0.305-0.175c0.067-0.115,0.102-0.241,0.102-0.377c0-0.154-0.034-0.29-0.102-0.405
		c-0.067-0.116-0.169-0.175-0.305-0.175h-2.958v-3.857h7.626v8.845h-7.946c-0.677,0-1.266-0.135-1.769-0.406
		c-0.503-0.271-0.918-0.618-1.247-1.044c-0.329-0.425-0.576-0.903-0.74-1.436c-0.165-0.531-0.247-1.048-0.247-1.551V9.338
		c0-0.502,0.082-1.02,0.247-1.552c0.164-0.531,0.411-1.01,0.74-1.436c0.328-0.425,0.744-0.773,1.247-1.044
		c0.503-0.271,1.092-0.406,1.769-0.406h12.209v3.857H74.153c-0.116,0-0.237,0.068-0.363,0.203c-0.126,0.135-0.188,0.319-0.188,0.551
		v9.425c0,0.232,0.062,0.416,0.188,0.552C73.916,19.624,74.037,19.692,74.153,19.692z"/>
	<path d="M99.73,24.592c0.734,0,1.354-0.102,1.856-0.305c0.502-0.202,0.913-0.487,1.232-0.855c0.319-0.366,0.551-0.802,0.696-1.305
		c0.145-0.503,0.217-1.044,0.217-1.624V0h3.654v19.692c0,1.547-0.155,2.876-0.464,3.987c-0.31,1.111-0.793,2.021-1.45,2.726
		c-0.657,0.706-1.493,1.224-2.509,1.552c-1.015,0.329-2.229,0.493-3.639,0.493h-3.713c-2.765,0-4.799-0.687-6.104-2.06
		c-1.305-1.372-1.958-3.605-1.958-6.698V0h3.655v20.503c0,0.58,0.072,1.121,0.217,1.624c0.146,0.503,0.377,0.938,0.696,1.305
		c0.319,0.368,0.729,0.653,1.232,0.855c0.503,0.203,1.121,0.305,1.856,0.305H99.73z M98.396,19.692c0.213,0,0.357-0.068,0.436-0.203
		c0.077-0.136,0.116-0.319,0.116-0.552V0h3.74v19.923c0,0.677-0.048,1.242-0.145,1.696c-0.097,0.455-0.267,0.827-0.508,1.117
		c-0.242,0.29-0.58,0.498-1.015,0.623c-0.436,0.126-0.991,0.188-1.668,0.188h-3.77c-0.677,0-1.232-0.062-1.668-0.188
		c-0.435-0.125-0.773-0.333-1.015-0.623c-0.242-0.29-0.411-0.662-0.508-1.117c-0.097-0.454-0.145-1.02-0.145-1.696V0h3.741v18.937
		c0,0.232,0.033,0.416,0.101,0.552c0.068,0.135,0.218,0.203,0.45,0.203H98.396z"/>
	<path d="M128.093,28.45h-10.991c-1.044,0-2.054-0.228-3.03-0.682s-1.837-1.073-2.581-1.856c-0.744-0.782-1.339-1.711-1.783-2.783
		c-0.445-1.073-0.667-2.219-0.667-3.437V0h3.857v19.692c0,0.579,0.105,1.165,0.318,1.754c0.213,0.59,0.518,1.116,0.914,1.581
		c0.396,0.464,0.884,0.841,1.464,1.131s1.237,0.435,1.973,0.435h10.526V28.45z M118.465,19.692h9.628v3.856h-10.149
		c-0.678,0-1.267-0.135-1.77-0.406c-0.503-0.271-0.918-0.618-1.247-1.044c-0.329-0.425-0.575-0.903-0.739-1.436
		c-0.164-0.531-0.246-1.048-0.246-1.551V0h3.973v18.937c0,0.232,0.062,0.411,0.188,0.537s0.246,0.188,0.362,0.188V19.692z"/>
	<path d="M148.363,28.45h-10.991c-1.044,0-2.054-0.228-3.03-0.682s-1.837-1.073-2.581-1.856c-0.744-0.782-1.339-1.711-1.783-2.783
		c-0.445-1.073-0.667-2.219-0.667-3.437V0h3.857v19.692c0,0.579,0.105,1.165,0.318,1.754c0.213,0.59,0.518,1.116,0.914,1.581
		c0.396,0.464,0.884,0.841,1.464,1.131s1.237,0.435,1.973,0.435h10.526V28.45z M138.735,19.692h9.628v3.856h-10.149
		c-0.678,0-1.267-0.135-1.77-0.406c-0.503-0.271-0.918-0.618-1.247-1.044c-0.329-0.425-0.575-0.903-0.739-1.436
		c-0.164-0.531-0.246-1.048-0.246-1.551V0h3.973v18.937c0,0.232,0.062,0.411,0.188,0.537s0.246,0.188,0.362,0.188V19.692z"/>
	<path d="M159.093,3.857c-0.793,0-1.513,0.135-2.16,0.406c-0.648,0.271-1.199,0.648-1.653,1.131
		c-0.454,0.484-0.808,1.059-1.059,1.726s-0.377,1.397-0.377,2.189c0,0.832,0.146,1.557,0.436,2.175s0.662,1.15,1.116,1.595
		c0.454,0.445,0.962,0.798,1.522,1.059c0.561,0.261,1.111,0.44,1.653,0.537c0.521,0.097,1.092,0.228,1.711,0.392
		c0.618,0.164,1.188,0.406,1.711,0.725c0.521,0.319,0.957,0.75,1.305,1.291c0.349,0.542,0.522,1.228,0.522,2.059
		c0,0.735-0.116,1.378-0.349,1.929c-0.231,0.551-0.551,1.011-0.957,1.378c-0.405,0.367-0.875,0.643-1.406,0.826
		c-0.532,0.184-1.098,0.275-1.696,0.275h-9.831v-3.856h9.483c0.154,0,0.275-0.054,0.362-0.16c0.087-0.105,0.13-0.217,0.13-0.333
		c0-0.271-0.115-0.454-0.348-0.551c-0.058-0.02-0.29-0.068-0.696-0.146c-0.405-0.077-0.865-0.174-1.377-0.29
		c-0.513-0.116-1.021-0.246-1.522-0.392c-0.503-0.145-0.89-0.294-1.16-0.449c-0.562-0.31-1.112-0.696-1.653-1.16
		c-0.541-0.464-1.02-1.02-1.436-1.667s-0.749-1.402-1-2.262c-0.252-0.86-0.377-1.851-0.377-2.973c0-1.295,0.236-2.513,0.71-3.654
		c0.474-1.141,1.117-2.126,1.929-2.958c0.812-0.831,1.773-1.489,2.886-1.972C156.623,0.242,157.817,0,159.093,0h9.6v3.857H159.093z
		 M159.238,8.787c-0.155,0-0.275,0.049-0.362,0.145c-0.088,0.097-0.131,0.213-0.131,0.348c0,0.116,0.029,0.228,0.087,0.333
		c0.058,0.106,0.146,0.169,0.261,0.188c0.059,0.02,0.285,0.072,0.682,0.16c0.396,0.087,0.846,0.188,1.349,0.304
		c0.503,0.116,1.01,0.247,1.522,0.392c0.512,0.145,0.903,0.286,1.175,0.42c0.58,0.329,1.149,0.725,1.711,1.189
		c0.561,0.464,1.062,1.02,1.508,1.667c0.444,0.648,0.802,1.402,1.073,2.262c0.271,0.86,0.405,1.842,0.405,2.943
		c0,1.315-0.236,2.538-0.71,3.669s-1.116,2.112-1.929,2.943c-0.812,0.831-1.773,1.489-2.886,1.972
		c-1.111,0.483-2.305,0.726-3.581,0.726h-9.831v-3.857h9.831c0.812,0,1.552-0.135,2.219-0.406c0.667-0.271,1.242-0.647,1.726-1.131
		c0.482-0.482,0.855-1.059,1.116-1.726s0.392-1.396,0.392-2.189c0-1.005-0.185-1.827-0.551-2.465
		c-0.368-0.638-0.822-1.146-1.363-1.522c-0.542-0.377-1.127-0.657-1.755-0.841c-0.628-0.183-1.203-0.333-1.726-0.449
		c-0.58-0.116-1.146-0.275-1.696-0.479s-1.039-0.479-1.465-0.827c-0.425-0.348-0.768-0.783-1.029-1.305
		c-0.261-0.522-0.392-1.17-0.392-1.943c0-0.734,0.106-1.377,0.319-1.928c0.213-0.551,0.508-1.01,0.885-1.377
		s0.821-0.643,1.334-0.827c0.512-0.184,1.067-0.275,1.667-0.275h9.6v3.857L159.238,8.787z"/>
</g>
</svg>