<!-- Generator: Adobe Illustrator 18.1.1, SVG Export Plug-In  -->
<svg version="1.1"
	 xmlns="http://www.w3.org/2000/svg" xmlns:xlink="http://www.w3.org/1999/xlink" xmlns:a="http://ns.adobe.com/AdobeSVGViewerExtensions/3.0/"
	 x="0px" y="0px" width="23.704px" height="23.704px" viewBox="0 0 23.704 23.704" enable-background="new 0 0 23.704 23.704"
	 xml:space="preserve">
<defs>
</defs>
<g>
	<path d="M11.838,0c1.643,0,3.182,0.312,4.616,0.935s2.69,1.468,3.767,2.535c1.076,1.067,1.926,2.318,2.549,3.752
		c0.623,1.435,0.935,2.974,0.935,4.616s-0.312,3.182-0.935,4.616c-0.623,1.435-1.473,2.69-2.549,3.767s-2.332,1.926-3.767,2.549
		s-2.974,0.935-4.616,0.935s-3.182-0.312-4.616-0.935s-2.686-1.473-3.753-2.549c-1.066-1.076-1.911-2.332-2.534-3.767
		C0.312,15.02,0,13.48,0,11.838s0.312-3.181,0.935-4.616c0.623-1.435,1.468-2.686,2.534-3.752c1.067-1.066,2.318-1.912,3.753-2.535
		S10.195,0,11.838,0z M17.729,9.289c0.548-0.415,1.029-0.916,1.444-1.501c-0.265,0.113-0.533,0.208-0.808,0.283
		c-0.273,0.076-0.562,0.132-0.863,0.17c0.302-0.188,0.566-0.42,0.793-0.694c0.227-0.273,0.387-0.571,0.481-0.892
		c-0.283,0.151-0.576,0.288-0.878,0.411c-0.302,0.123-0.613,0.212-0.935,0.269c-0.265-0.264-0.576-0.481-0.935-0.651
		s-0.755-0.255-1.189-0.255c-0.396,0-0.77,0.076-1.119,0.227c-0.349,0.151-0.65,0.359-0.906,0.623
		c-0.254,0.265-0.457,0.571-0.608,0.92c-0.151,0.35-0.227,0.722-0.227,1.119c0,0.113,0.005,0.227,0.015,0.34
		c0.009,0.113,0.023,0.217,0.042,0.312C10.847,9.912,9.742,9.62,8.723,9.091c-1.02-0.528-1.888-1.236-2.605-2.124
		C5.853,7.401,5.721,7.883,5.721,8.411c0,0.491,0.118,0.949,0.354,1.374c0.236,0.425,0.543,0.77,0.921,1.034
		c-0.491-0.038-0.925-0.16-1.303-0.368v0.028c0,0.718,0.222,1.336,0.665,1.855c0.444,0.52,0.996,0.845,1.657,0.977
		c-0.132,0.038-0.26,0.066-0.382,0.085c-0.123,0.019-0.251,0.028-0.383,0.028c-0.095,0-0.184-0.004-0.27-0.014
		c-0.084-0.009-0.174-0.023-0.269-0.042c0.188,0.566,0.524,1.039,1.005,1.416c0.482,0.378,1.044,0.566,1.686,0.566
		c-0.491,0.396-1.043,0.704-1.656,0.92c-0.614,0.217-1.251,0.326-1.912,0.326c-0.132,0-0.255-0.004-0.368-0.014
		c-0.113-0.009-0.227-0.023-0.34-0.042c0.642,0.416,1.336,0.736,2.081,0.963c0.746,0.227,1.525,0.34,2.337,0.34
		c1.321,0,2.492-0.25,3.512-0.75c1.02-0.5,1.874-1.142,2.563-1.926c0.688-0.783,1.213-1.661,1.571-2.634
		c0.358-0.972,0.538-1.93,0.538-2.875V9.289z"/>
</g>
</svg>