<!-- Generator: Adobe Illustrator 19.2.1, SVG Export Plug-In  -->
<svg version="1.1"
	 xmlns="http://www.w3.org/2000/svg" xmlns:xlink="http://www.w3.org/1999/xlink" xmlns:a="http://ns.adobe.com/AdobeSVGViewerExtensions/3.0/"
	 x="0px" y="0px" width="348.984px" height="78.525px" viewBox="0 0 348.984 78.525"
	 style="enable-background:new 0 0 348.984 78.525;" xml:space="preserve">
<style type="text/css">
	.st0{fill:#5D5D5D;}
</style>
<defs>
</defs>
<g>
	<path class="st0" d="M0,61.561V0h11.8v22.172c3.639-4.143,7.95-6.215,12.934-6.215c5.431,0,9.924,1.967,13.479,5.9
		c3.555,3.934,5.333,9.582,5.333,16.944c0,7.615-1.813,13.479-5.438,17.595c-3.626,4.115-8.028,6.173-13.207,6.173
		c-2.548,0-5.06-0.637-7.538-1.91c-2.478-1.274-4.613-3.156-6.404-5.648v6.551H0z M11.716,38.297c0,4.619,0.728,8.035,2.184,10.246
		c2.043,3.136,4.759,4.703,8.146,4.703c2.604,0,4.822-1.113,6.656-3.338c1.833-2.227,2.75-5.732,2.75-10.52
		c0-5.095-0.924-8.769-2.771-11.023c-1.848-2.253-4.214-3.38-7.097-3.38c-2.828,0-5.18,1.099-7.055,3.296
		C12.653,30.48,11.716,33.818,11.716,38.297z"/>
	<path class="st0" d="M51.535,30.57l-10.708-1.932c1.203-4.311,3.275-7.502,6.215-9.574c2.939-2.071,7.307-3.107,13.102-3.107
		c5.263,0,9.182,0.624,11.758,1.869c2.575,1.246,4.388,2.828,5.438,4.745c1.05,1.918,1.575,5.438,1.575,10.561l-0.126,13.773
		c0,3.92,0.189,6.81,0.567,8.671c0.378,1.862,1.084,3.857,2.121,5.984H69.801c-0.309-0.783-0.687-1.945-1.134-3.485
		c-0.196-0.699-0.336-1.161-0.42-1.386c-2.016,1.96-4.172,3.43-6.467,4.409c-2.296,0.979-4.745,1.47-7.349,1.47
		c-4.592,0-8.209-1.245-10.855-3.737c-2.646-2.491-3.968-5.641-3.968-9.448c0-2.52,0.602-4.766,1.806-6.74
		c1.203-1.973,2.89-3.484,5.06-4.535c2.169-1.05,5.297-1.966,9.385-2.75c5.515-1.035,9.336-2.001,11.464-2.897v-1.176
		c0-2.268-0.561-3.884-1.68-4.85c-1.12-0.966-3.233-1.449-6.341-1.449c-2.1,0-3.737,0.414-4.913,1.239
		C53.214,27.05,52.262,28.499,51.535,30.57z M67.324,40.145c-1.512,0.504-3.905,1.106-7.181,1.806
		c-3.275,0.7-5.417,1.386-6.425,2.058c-1.54,1.092-2.31,2.478-2.31,4.157c0,1.652,0.615,3.08,1.848,4.283
		c1.231,1.204,2.799,1.806,4.703,1.806c2.127,0,4.157-0.699,6.089-2.1c1.428-1.063,2.365-2.365,2.813-3.905
		c0.308-1.008,0.462-2.925,0.462-5.753V40.145z"/>
	<path class="st0" d="M120.79,61.561h-11.8v-22.76c0-4.814-0.252-7.929-0.756-9.343c-0.504-1.413-1.323-2.512-2.457-3.296
		c-1.134-0.783-2.499-1.176-4.094-1.176c-2.044,0-3.878,0.561-5.501,1.68c-1.624,1.12-2.737,2.604-3.338,4.451
		c-0.603,1.848-0.903,5.264-0.903,10.246v20.198h-11.8V16.965h10.96v6.551c3.891-5.039,8.79-7.559,14.697-7.559
		c2.604,0,4.982,0.469,7.139,1.407c2.155,0.938,3.786,2.135,4.892,3.59c1.105,1.456,1.875,3.107,2.31,4.955
		c0.434,1.848,0.651,4.493,0.651,7.937V61.561z"/>
	<path class="st0" d="M163.338,61.561h-10.96V55.01c-1.82,2.548-3.968,4.444-6.446,5.689c-2.478,1.246-4.976,1.869-7.496,1.869
		c-5.123,0-9.511-2.064-13.165-6.193c-3.653-4.13-5.48-9.89-5.48-17.28c0-7.559,1.777-13.304,5.333-17.238
		c3.555-3.933,8.048-5.9,13.479-5.9c4.982,0,9.294,2.072,12.934,6.215V0h11.8V61.561z M131.844,38.297
		c0,4.76,0.657,8.203,1.974,10.33c1.903,3.08,4.562,4.619,7.979,4.619c2.715,0,5.024-1.154,6.929-3.465
		c1.903-2.309,2.855-5.759,2.855-10.351c0-5.123-0.924-8.811-2.771-11.065c-1.848-2.253-4.214-3.38-7.097-3.38
		c-2.8,0-5.144,1.113-7.034,3.338S131.844,33.874,131.844,38.297z"/>
	<path class="st0" d="M203.535,30.15l-11.632,2.1c-0.393-2.323-1.281-4.073-2.667-5.249s-3.185-1.764-5.396-1.764
		c-2.939,0-5.285,1.015-7.034,3.044c-1.75,2.03-2.625,5.424-2.625,10.183c0,5.291,0.888,9.028,2.667,11.212
		c1.777,2.184,4.164,3.275,7.16,3.275c2.239,0,4.073-0.637,5.501-1.911c1.428-1.273,2.436-3.464,3.023-6.571l11.59,1.974
		c-1.204,5.319-3.514,9.337-6.929,12.052c-3.416,2.716-7.993,4.073-13.731,4.073c-6.523,0-11.723-2.058-15.6-6.173
		c-3.878-4.115-5.816-9.812-5.816-17.091c0-7.362,1.945-13.094,5.837-17.196c3.891-4.101,9.154-6.152,15.789-6.152
		c5.431,0,9.749,1.169,12.955,3.506C199.832,21.801,202.134,25.363,203.535,30.15z"/>
	<path class="st0" d="M210.977,30.57l-10.708-1.932c1.203-4.311,3.275-7.502,6.215-9.574c2.939-2.071,7.307-3.107,13.102-3.107
		c5.263,0,9.182,0.624,11.758,1.869c2.575,1.246,4.388,2.828,5.438,4.745c1.05,1.918,1.575,5.438,1.575,10.561l-0.126,13.773
		c0,3.92,0.189,6.81,0.567,8.671c0.378,1.862,1.084,3.857,2.121,5.984h-11.674c-0.309-0.783-0.687-1.945-1.134-3.485
		c-0.196-0.699-0.336-1.161-0.42-1.386c-2.016,1.96-4.172,3.43-6.467,4.409c-2.296,0.979-4.745,1.47-7.349,1.47
		c-4.592,0-8.209-1.245-10.855-3.737c-2.646-2.491-3.968-5.641-3.968-9.448c0-2.52,0.602-4.766,1.806-6.74
		c1.203-1.973,2.89-3.484,5.06-4.535c2.169-1.05,5.297-1.966,9.385-2.75c5.515-1.035,9.336-2.001,11.464-2.897v-1.176
		c0-2.268-0.561-3.884-1.68-4.85c-1.12-0.966-3.233-1.449-6.341-1.449c-2.1,0-3.737,0.414-4.913,1.239
		C212.657,27.05,211.705,28.499,210.977,30.57z M226.766,40.145c-1.512,0.504-3.905,1.106-7.181,1.806
		c-3.275,0.7-5.417,1.386-6.425,2.058c-1.54,1.092-2.31,2.478-2.31,4.157c0,1.652,0.615,3.08,1.848,4.283
		c1.231,1.204,2.799,1.806,4.703,1.806c2.127,0,4.157-0.699,6.089-2.1c1.428-1.063,2.365-2.365,2.813-3.905
		c0.308-1.008,0.462-2.925,0.462-5.753V40.145z"/>
	<path class="st0" d="M238.786,16.965h10.876v6.089c3.891-4.73,8.524-7.097,13.899-7.097c2.855,0,5.333,0.588,7.433,1.764
		s3.821,2.954,5.165,5.333c1.959-2.379,4.073-4.157,6.341-5.333s4.688-1.764,7.265-1.764c3.275,0,6.047,0.666,8.314,1.995
		c2.268,1.33,3.961,3.283,5.081,5.858c0.812,1.904,1.218,4.983,1.218,9.238v28.513h-11.8V36.071c0-4.423-0.406-7.278-1.218-8.566
		c-1.092-1.68-2.771-2.52-5.039-2.52c-1.652,0-3.206,0.504-4.661,1.512c-1.456,1.008-2.506,2.485-3.149,4.43
		c-0.645,1.946-0.966,5.018-0.966,9.217v21.416h-11.8V37.121c0-4.339-0.21-7.139-0.63-8.398s-1.071-2.197-1.953-2.813
		c-0.882-0.615-2.079-0.924-3.59-0.924c-1.82,0-3.458,0.49-4.913,1.47c-1.456,0.98-2.499,2.394-3.128,4.241
		s-0.945,4.913-0.945,9.196v21.668h-11.8V16.965z"/>
	<path class="st0" d="M305.48,16.965h11.002v6.551c1.428-2.239,3.359-4.059,5.795-5.459c2.436-1.399,5.137-2.1,8.104-2.1
		c5.179,0,9.574,2.03,13.186,6.089c3.611,4.06,5.417,9.715,5.417,16.965c0,7.447-1.82,13.234-5.459,17.364
		c-3.64,4.129-8.049,6.193-13.228,6.193c-2.464,0-4.697-0.49-6.698-1.47c-2.002-0.979-4.109-2.659-6.32-5.039v22.466h-11.8V16.965z
		 M317.154,38.507c0,5.012,0.993,8.714,2.981,11.106c1.987,2.395,4.409,3.591,7.265,3.591c2.743,0,5.024-1.099,6.845-3.296
		c1.819-2.198,2.729-5.802,2.729-10.813c0-4.675-0.938-8.146-2.813-10.414c-1.876-2.268-4.199-3.401-6.971-3.401
		c-2.884,0-5.277,1.113-7.181,3.338C318.105,30.843,317.154,34.14,317.154,38.507z"/>
</g>
</svg>