<!-- Generator: Adobe Illustrator 18.1.1, SVG Export Plug-In  -->
<svg version="1.1"
	 xmlns="http://www.w3.org/2000/svg" xmlns:xlink="http://www.w3.org/1999/xlink" xmlns:a="http://ns.adobe.com/AdobeSVGViewerExtensions/3.0/"
	 x="0px" y="0px" width="195.87px" height="44.101px" viewBox="0 0 195.87 44.101" enable-background="new 0 0 195.87 44.101"
	 xml:space="preserve">
<defs>
</defs>
<g>
	<path fill="#5D5D5D" d="M25.321,11.958v6.63h-8.062v12.668c0,2.565,0.077,4.06,0.231,4.484c0.153,0.425,0.504,0.774,1.05,1.05
		c0.546,0.277,1.21,0.414,1.995,0.414c1.092,0,2.673-0.266,4.745-0.799l1.008,6.452c-2.744,0.829-5.852,1.243-9.322,1.243
		c-2.128,0-4.046-0.251-5.753-0.754c-1.708-0.503-2.96-1.154-3.758-1.953c-0.798-0.799-1.351-1.88-1.659-3.241
		c-0.252-0.966-0.378-2.92-0.378-5.86V18.588H0v-6.63h5.417V5.712l11.842-4.854v11.099H25.321z"/>
	<path fill="#5D5D5D" d="M31.504,43.391L17.395,11.958h11.464l8.356,20.6l7.685-20.6h11.38l7.433,20.6l8.524-20.6h11.632
		L69.549,43.391H58.211l-7.685-20.216l-7.559,20.216H31.504z"/>
	<path fill="#5D5D5D" d="M79.763,7.696V0h11.8v7.696H79.763z M79.763,43.391V11.958h11.8v31.433H79.763z"/>
	<path fill="#5D5D5D" d="M113.786,11.958v6.63h-8.062v12.668c0,2.565,0.078,4.06,0.23,4.484c0.154,0.425,0.504,0.774,1.051,1.05
		c0.545,0.277,1.211,0.414,1.994,0.414c1.092,0,2.674-0.266,4.746-0.799l1.008,6.452c-2.744,0.829-5.852,1.243-9.322,1.243
		c-2.129,0-4.047-0.251-5.754-0.754c-1.708-0.503-2.96-1.154-3.757-1.953c-0.799-0.799-1.352-1.88-1.659-3.241
		c-0.252-0.966-0.378-2.92-0.378-5.86V18.588h-5.417v-6.63h5.417V5.712l11.841-4.854v11.099H113.786z"/>
	<path fill="#5D5D5D" d="M132.106,11.958v6.63h-8.062v12.668c0,2.565,0.076,4.06,0.23,4.484c0.154,0.425,0.504,0.774,1.051,1.05
		c0.545,0.277,1.209,0.414,1.994,0.414c1.092,0,2.672-0.266,4.744-0.799l1.008,6.452c-2.744,0.829-5.852,1.243-9.322,1.243
		c-2.127,0-4.045-0.251-5.752-0.754c-1.709-0.503-2.961-1.154-3.758-1.953c-0.799-0.799-1.352-1.88-1.66-3.241
		c-0.252-0.966-0.377-2.92-0.377-5.86V18.588h-5.418v-6.63h5.418V5.712l11.842-4.854v11.099H132.106z"/>
	<path fill="#5D5D5D" d="M155.8,33.387l11.758,1.391c-1.512,3.039-3.898,5.353-7.16,6.941c-3.262,1.589-7.342,2.382-12.24,2.382
		c-7.756,0-13.494-1.786-17.217-5.357c-2.939-2.861-4.41-6.472-4.41-10.833c0-5.209,1.932-9.288,5.795-12.239
		c3.863-2.95,8.748-4.425,14.656-4.425c6.635,0,11.869,1.544,15.705,4.632c3.834,3.089,5.668,7.819,5.5,14.192h-29.562
		c0.084,2.467,1.035,4.386,2.855,5.757c1.82,1.372,4.088,2.057,6.803,2.057c1.848,0,3.402-0.355,4.662-1.066
		C154.204,36.11,155.155,34.966,155.8,33.387z M156.472,24.981c-0.084-2.407-0.967-4.237-2.646-5.49
		c-1.68-1.253-3.723-1.879-6.131-1.879c-2.576,0-4.703,0.661-6.383,1.983c-1.68,1.322-2.506,3.118-2.477,5.387H156.472z"/>
	<path fill="#5D5D5D" d="M178.778,43.391h-11.799V11.958h10.959v4.469c1.875-2.111,3.562-3.502,5.061-4.173
		c1.498-0.67,3.197-1.006,5.102-1.006c2.688,0,5.277,0.523,7.77,1.569l-3.654,7.252c-1.988-0.907-3.836-1.362-5.543-1.362
		c-1.652,0-3.051,0.321-4.199,0.962c-1.148,0.642-2.051,1.801-2.709,3.477c-0.656,1.677-0.986,5.19-0.986,10.537V43.391z"/>
</g>
</svg>