<!-- Generator: Adobe Illustrator 18.1.1, SVG Export Plug-In  -->
<svg version="1.1"
	 xmlns="http://www.w3.org/2000/svg" xmlns:xlink="http://www.w3.org/1999/xlink" xmlns:a="http://ns.adobe.com/AdobeSVGViewerExtensions/3.0/"
	 x="0px" y="0px" width="120.287px" height="35.255px" viewBox="0 0 120.287 35.255" enable-background="new 0 0 120.287 35.255"
	 xml:space="preserve">
<defs>
</defs>
<g>
	<path fill="#5D5D5D" d="M30.951,34.687V0h6.648v12.493c2.051-2.334,4.48-3.502,7.288-3.502c3.06,0,5.592,1.108,7.595,3.325
		s3.005,5.398,3.005,9.546c0,4.291-1.021,7.596-3.063,9.914c-2.043,2.319-4.523,3.479-7.441,3.479c-1.436,0-2.852-0.359-4.247-1.077
		c-1.396-0.717-2.6-1.778-3.608-3.182v3.69H30.951z M37.552,21.579c0,2.603,0.41,4.527,1.23,5.772c1.151,1.768,2.682,2.65,4.59,2.65
		c1.467,0,2.717-0.627,3.75-1.881s1.55-3.229,1.55-5.927c0-2.871-0.521-4.941-1.562-6.211c-1.041-1.27-2.374-1.904-3.998-1.904
		c-1.594,0-2.919,0.619-3.976,1.857C38.081,17.174,37.552,19.055,37.552,21.579z"/>
	<path fill="#5D5D5D" d="M59.988,17.225l-6.033-1.088c0.678-2.429,1.846-4.227,3.502-5.395c1.656-1.167,4.117-1.751,7.382-1.751
		c2.966,0,5.174,0.352,6.625,1.053s2.473,1.593,3.064,2.673c0.592,1.081,0.887,3.064,0.887,5.95l-0.07,7.761
		c0,2.209,0.106,3.838,0.319,4.887s0.611,2.173,1.194,3.371h-6.577c-0.174-0.441-0.387-1.096-0.639-1.964
		c-0.11-0.394-0.189-0.654-0.237-0.78c-1.136,1.104-2.351,1.933-3.644,2.484s-2.674,0.828-4.141,0.828
		c-2.587,0-4.626-0.702-6.116-2.106c-1.49-1.403-2.236-3.178-2.236-5.323c0-1.42,0.34-2.686,1.018-3.798
		c0.679-1.112,1.629-1.964,2.852-2.555c1.222-0.592,2.984-1.108,5.288-1.55c3.107-0.584,5.261-1.128,6.459-1.633v-0.663
		c0-1.277-0.315-2.188-0.946-2.732c-0.631-0.544-1.821-0.816-3.572-0.816c-1.184,0-2.106,0.233-2.769,0.698
		C60.935,15.242,60.398,16.058,59.988,17.225z M68.884,22.62c-0.852,0.283-2.2,0.623-4.046,1.017
		c-1.846,0.395-3.052,0.781-3.62,1.16c-0.867,0.615-1.301,1.396-1.301,2.342c0,0.932,0.347,1.735,1.041,2.414
		c0.693,0.678,1.577,1.017,2.649,1.017c1.199,0,2.343-0.394,3.432-1.183c0.804-0.6,1.332-1.333,1.585-2.2
		c0.173-0.568,0.26-1.648,0.26-3.242V22.62z"/>
	<path fill="#5D5D5D" d="M98.064,16.988l-6.554,1.184c-0.222-1.309-0.722-2.295-1.503-2.958c-0.78-0.663-1.794-0.994-3.04-0.994
		c-1.656,0-2.978,0.572-3.963,1.716c-0.986,1.143-1.479,3.056-1.479,5.737c0,2.981,0.501,5.088,1.503,6.318
		c1.001,1.229,2.346,1.845,4.034,1.845c1.262,0,2.295-0.358,3.1-1.076s1.372-1.952,1.703-3.703l6.53,1.112
		c-0.678,2.997-1.979,5.261-3.903,6.791c-1.925,1.529-4.504,2.295-7.737,2.295c-3.676,0-6.605-1.159-8.79-3.479
		c-2.186-2.318-3.277-5.528-3.277-9.63c0-4.148,1.097-7.378,3.289-9.689c2.192-2.311,5.158-3.466,8.896-3.466
		c3.06,0,5.493,0.659,7.3,1.976C95.978,12.284,97.275,14.292,98.064,16.988z"/>
	<path fill="#5D5D5D" d="M97.052,34.687V0h6.648v18.408l7.785-8.849h8.186l-8.588,9.18l9.203,15.947h-7.168L106.8,23.4l-3.1,3.241
		v8.045H97.052z"/>
</g>
<g>
	<path fill="#5D5D5D" d="M25.856,29.136c0.431-2.063,0.329-3.969-0.306-5.716c-0.635-1.746-1.922-3.191-3.861-4.338
		c-1.939-1.145-4.814-1.672-8.625-1.581v8.641L0,13.078L13.064,0.014v8.438c4.559-0.113,8.125,0.714,10.7,2.483
		c2.574,1.769,4.258,3.992,5.052,6.668c0.793,2.677,0.742,5.574-0.153,8.692c-0.896,3.119-2.535,5.971-4.916,8.557
		C24.722,33.104,25.425,31.2,25.856,29.136z"/>
</g>
</svg>