<!-- Generator: Adobe Illustrator 18.1.1, SVG Export Plug-In  -->
<svg version="1.1"
	 xmlns="http://www.w3.org/2000/svg" xmlns:xlink="http://www.w3.org/1999/xlink" xmlns:a="http://ns.adobe.com/AdobeSVGViewerExtensions/3.0/"
	 x="0px" y="0px" width="724.491px" height="194.214px" viewBox="0 0 724.491 194.214" enable-background="new 0 0 724.491 194.214"
	 xml:space="preserve">
<defs>
</defs>
<g>
	<g>
		<path fill="#5D5D5D" d="M169.369,190.015h-49.166V95.182c0-20.061-1.05-33.039-3.149-38.93c-2.1-5.889-5.511-10.468-10.235-13.735
			c-4.724-3.264-10.411-4.899-17.06-4.899c-8.516,0-16.157,2.334-22.92,6.999c-6.767,4.667-11.403,10.848-13.91,18.546
			c-2.51,7.699-3.762,21.931-3.762,42.692v84.159H0V4.199h45.667v27.295C61.878,10.498,82.292,0,106.905,0
			c10.848,0,20.761,1.955,29.745,5.861c8.98,3.91,15.774,8.896,20.383,14.96c4.607,6.066,7.813,12.947,9.624,20.646
			c1.807,7.699,2.712,18.722,2.712,33.069V190.015z"/>
		<path fill="#5D5D5D" d="M283.839,130.875l48.991,8.224c-6.299,17.964-16.245,31.642-29.832,41.03
			c-13.59,9.391-30.592,14.085-51.003,14.085c-32.312,0-56.225-10.556-71.736-31.669c-12.248-16.912-18.372-38.258-18.372-64.038
			c0-30.794,8.048-54.91,24.146-72.349C202.129,8.721,222.483,0,247.096,0c27.645,0,49.456,9.128,65.438,27.382
			c15.979,18.257,23.621,46.222,22.92,83.897H212.278c0.35,14.583,4.314,25.925,11.897,34.031
			c7.581,8.108,17.029,12.16,28.345,12.16c7.699,0,14.172-2.1,19.421-6.299S281.155,140.209,283.839,130.875z M286.639,81.185
			c-0.35-14.23-4.024-25.048-11.023-32.457c-6.999-7.406-15.515-11.11-25.545-11.11c-10.733,0-19.597,3.909-26.595,11.723
			c-6.999,7.816-10.44,18.432-10.323,31.844H286.639z"/>
		<path fill="#5D5D5D" d="M367.166,190.015L308.377,4.199h47.766l34.818,121.777l32.02-121.777h47.416l30.969,121.777L536.884,4.199
			h48.466l-59.663,185.815h-47.242L446.426,70.512l-31.494,119.503H367.166z"/>
		<path fill="#5D5D5D" d="M550.923,137l49.341-7.523c2.1,9.565,6.356,16.827,12.772,21.783c6.414,4.959,15.397,7.436,26.945,7.436
			c12.712,0,22.278-2.332,28.694-6.999c4.314-3.264,6.474-7.638,6.474-13.123c0-3.732-1.167-6.824-3.499-9.273
			c-2.449-2.332-7.934-4.489-16.447-6.474c-39.66-8.749-64.798-16.737-75.411-23.971c-14.697-10.03-22.045-23.97-22.045-41.817
			c0-16.097,6.355-29.627,19.071-40.593C589.531,5.484,609.245,0,635.958,0c25.428,0,44.324,4.142,56.689,12.423
			c12.362,8.283,20.879,20.531,25.545,36.743l-46.366,8.573c-1.984-7.231-5.746-12.772-11.285-16.622
			c-5.542-3.849-13.445-5.774-23.708-5.774c-12.948,0-22.221,1.81-27.82,5.424c-3.734,2.567-5.599,5.891-5.599,9.973
			c0,3.499,1.632,6.474,4.899,8.923c4.432,3.267,19.741,7.874,45.929,13.822c26.185,5.949,44.469,13.24,54.853,21.871
			c10.263,8.748,15.396,20.938,15.396,36.568c0,17.032-7.116,31.669-21.346,43.917c-14.232,12.248-35.286,18.372-63.163,18.372
			c-25.313,0-45.347-5.131-60.102-15.397C565.123,168.554,555.472,154.614,550.923,137z"/>
	</g>
</g>
</svg>