<!-- Generator: Adobe Illustrator 18.1.1, SVG Export Plug-In  -->
<svg version="1.1"
	 xmlns="http://www.w3.org/2000/svg" xmlns:xlink="http://www.w3.org/1999/xlink" xmlns:a="http://ns.adobe.com/AdobeSVGViewerExtensions/3.0/"
	 x="0px" y="0px" width="621.486px" height="127.806px" viewBox="0 0 621.486 127.806" enable-background="new 0 0 621.486 127.806"
	 xml:space="preserve">
<defs>
</defs>
<g>
	<path fill="#5D5D5D" d="M0,17.517V0h23.156v17.517H0z M0,98.768v-71.55h23.156v71.55H0z"/>
	<path fill="#5D5D5D" d="M106.239,98.768H83.083V62.252c0-7.725-0.494-12.722-1.483-14.99c-0.989-2.268-2.596-4.031-4.821-5.289
		c-2.225-1.257-4.903-1.887-8.034-1.887c-4.011,0-7.61,0.899-10.795,2.695c-3.187,1.797-5.371,4.177-6.551,7.142
		c-1.182,2.964-1.772,8.445-1.772,16.439v32.406H26.472v-71.55h21.507v10.51c7.635-8.084,17.25-12.127,28.841-12.127
		c5.109,0,9.778,0.752,14.009,2.257c4.23,1.505,7.429,3.425,9.6,5.76c2.17,2.336,3.68,4.986,4.532,7.95
		c0.851,2.964,1.277,7.209,1.277,12.733V98.768z"/>
	<path fill="#5D5D5D" d="M101.314,78.354l23.238-2.897c0.989,3.684,2.994,6.479,6.016,8.388c3.021,1.909,7.251,2.863,12.69,2.863
		c5.987,0,10.493-0.898,13.515-2.695c2.032-1.257,3.049-2.941,3.049-5.053c0-1.437-0.55-2.627-1.648-3.571
		c-1.154-0.898-3.737-1.729-7.746-2.493c-18.679-3.369-30.518-6.444-35.516-9.23c-6.922-3.862-10.383-9.23-10.383-16.102
		c0-6.198,2.994-11.408,8.982-15.63c5.987-4.221,15.271-6.333,27.853-6.333c11.976,0,20.875,1.595,26.699,4.783
		c5.823,3.19,9.833,7.906,12.031,14.148l-21.837,3.301c-0.935-2.785-2.706-4.918-5.315-6.4c-2.61-1.482-6.332-2.223-11.166-2.223
		c-6.098,0-10.465,0.697-13.103,2.088c-1.759,0.988-2.637,2.269-2.637,3.84c0,1.347,0.769,2.493,2.307,3.436
		c2.087,1.258,9.297,3.032,21.631,5.322c12.332,2.291,20.943,5.098,25.833,8.421c4.833,3.369,7.251,8.063,7.251,14.081
		c0,6.558-3.352,12.194-10.053,16.911c-6.703,4.716-16.619,7.074-29.748,7.074c-11.921,0-21.356-1.976-28.306-5.929
		C108.002,90.504,103.457,85.137,101.314,78.354z"/>
	<path fill="#5D5D5D" d="M223.21,27.218V42.31h-15.821v28.835c0,5.839,0.15,9.241,0.453,10.207c0.301,0.967,0.989,1.764,2.06,2.392
		c1.071,0.629,2.375,0.943,3.914,0.943c2.143,0,5.246-0.606,9.312-1.819l1.978,14.687c-5.385,1.887-11.482,2.83-18.294,2.83
		c-4.175,0-7.939-0.572-11.289-1.718c-3.352-1.146-5.81-2.627-7.375-4.447c-1.565-1.819-2.651-4.278-3.255-7.377
		c-0.495-2.2-0.742-6.647-0.742-13.34V42.31h-10.63V27.218h10.63V13.003l23.238-11.049v25.265H223.21z"/>
	<path fill="#5D5D5D" d="M236.332,49.047l-21.013-3.099c2.361-6.916,6.427-12.036,12.196-15.361
		c5.768-3.323,14.338-4.985,25.71-4.985c10.328,0,18.019,1,23.073,2.998c5.054,1.999,8.611,4.537,10.671,7.613
		c2.06,3.077,3.09,8.725,3.09,16.944l-0.248,22.098c0,6.289,0.371,10.926,1.113,13.913c0.742,2.987,2.128,6.188,4.161,9.601h-22.908
		c-0.605-1.257-1.347-3.121-2.225-5.592c-0.385-1.122-0.659-1.863-0.824-2.224c-3.956,3.145-8.187,5.502-12.69,7.074
		c-4.505,1.572-9.312,2.358-14.421,2.358c-9.01,0-16.11-1.998-21.301-5.996c-5.191-3.997-7.787-9.05-7.787-15.159
		c0-4.042,1.181-7.647,3.543-10.813c2.361-3.167,5.671-5.592,9.93-7.276c4.256-1.685,10.396-3.155,18.417-4.413
		c10.822-1.661,18.321-3.21,22.497-4.648v-1.887c0-3.638-1.1-6.232-3.296-7.781c-2.198-1.55-6.345-2.325-12.443-2.325
		c-4.12,0-7.334,0.664-9.641,1.988C239.628,43.399,237.76,45.724,236.332,49.047z M267.316,64.408
		c-2.967,0.808-7.664,1.775-14.091,2.897c-6.427,1.123-10.63,2.223-12.608,3.301c-3.021,1.751-4.532,3.975-4.532,6.67
		c0,2.65,1.208,4.941,3.626,6.872c2.417,1.932,5.493,2.897,9.229,2.897c4.174,0,8.158-1.123,11.948-3.369
		c2.802-1.707,4.642-3.795,5.521-6.266c0.604-1.617,0.907-4.693,0.907-9.23V64.408z"/>
	<path fill="#5D5D5D" d="M290.491,103.484l26.452,2.627c0.439,2.515,1.455,4.244,3.049,5.188c2.196,1.348,5.658,2.021,10.383,2.021
		c6.042,0,10.575-0.741,13.597-2.223c2.032-0.988,3.57-2.583,4.615-4.783c0.713-1.573,1.071-4.47,1.071-8.691V87.18
		c-6.922,7.726-15.657,11.588-26.205,11.588c-11.757,0-21.068-4.064-27.935-12.194c-5.385-6.422-8.076-14.418-8.076-23.985
		c0-11.992,3.529-21.155,10.589-27.488c7.059-6.333,15.834-9.5,26.328-9.5c10.822,0,19.749,3.885,26.782,11.655V27.218h21.672
		v64.206c0,8.444-0.852,14.755-2.554,18.932c-1.704,4.177-4.093,7.456-7.169,9.836c-3.077,2.38-7.183,4.245-12.319,5.592
		c-5.137,1.347-11.633,2.021-19.488,2.021c-14.833,0-25.354-2.078-31.561-6.232c-6.208-4.155-9.312-9.422-9.312-15.799
		C290.409,105.146,290.436,104.382,290.491,103.484z M311.175,61.511c0,7.591,1.799,13.149,5.397,16.674
		c3.598,3.527,8.035,5.289,13.309,5.289c5.657,0,10.437-1.808,14.338-5.424c3.9-3.615,5.851-8.971,5.851-16.068
		c0-7.411-1.869-12.912-5.604-16.506c-3.737-3.593-8.461-5.39-14.174-5.39c-5.549,0-10.123,1.763-13.72,5.289
		C312.974,48.902,311.175,54.28,311.175,61.511z"/>
	<path fill="#5D5D5D" d="M397.637,98.768h-23.156v-71.55h21.507v10.173c3.68-4.806,6.99-7.972,9.93-9.5
		c2.938-1.526,6.275-2.291,10.013-2.291c5.273,0,10.354,1.19,15.244,3.571l-7.169,16.506c-3.901-2.065-7.527-3.099-10.877-3.099
		c-3.242,0-5.989,0.73-8.241,2.189c-2.253,1.46-4.024,4.099-5.314,7.916c-1.292,3.818-1.937,11.813-1.937,23.985V98.768z"/>
	<path fill="#5D5D5D" d="M438.199,49.047l-21.013-3.099c2.361-6.916,6.428-12.036,12.195-15.361
		c5.769-3.323,14.339-4.985,25.711-4.985c10.327,0,18.018,1,23.073,2.998c5.054,1.999,8.61,4.537,10.671,7.613
		c2.061,3.077,3.09,8.725,3.09,16.944l-0.247,22.098c0,6.289,0.371,10.926,1.112,13.913c0.742,2.987,2.129,6.188,4.162,9.601
		h-22.909c-0.604-1.257-1.347-3.121-2.225-5.592c-0.385-1.122-0.659-1.863-0.824-2.224c-3.955,3.145-8.186,5.502-12.689,7.074
		c-4.506,1.572-9.312,2.358-14.421,2.358c-9.011,0-16.11-1.998-21.302-5.996c-5.191-3.997-7.787-9.05-7.787-15.159
		c0-4.042,1.181-7.647,3.543-10.813c2.361-3.167,5.672-5.592,9.93-7.276c4.257-1.685,10.396-3.155,18.418-4.413
		c10.821-1.661,18.32-3.21,22.496-4.648v-1.887c0-3.638-1.1-6.232-3.296-7.781c-2.198-1.55-6.346-2.325-12.443-2.325
		c-4.12,0-7.334,0.664-9.642,1.988C441.496,43.399,439.628,45.724,438.199,49.047z M469.184,64.408
		c-2.967,0.808-7.664,1.775-14.091,2.897c-6.428,1.123-10.631,2.223-12.608,3.301c-3.021,1.751-4.532,3.975-4.532,6.67
		c0,2.65,1.208,4.941,3.626,6.872c2.417,1.932,5.493,2.897,9.229,2.897c4.174,0,8.158-1.123,11.948-3.369
		c2.802-1.707,4.642-3.795,5.521-6.266c0.604-1.617,0.906-4.693,0.906-9.23V64.408z"/>
	<path fill="#5D5D5D" d="M492.771,27.218h21.343v9.769c7.636-7.59,16.729-11.386,27.275-11.386c5.604,0,10.466,0.943,14.586,2.83
		c4.12,1.886,7.499,4.739,10.136,8.556c3.845-3.817,7.993-6.67,12.443-8.556c4.449-1.887,9.2-2.83,14.256-2.83
		c6.428,0,11.866,1.067,16.315,3.2c4.45,2.134,7.773,5.267,9.972,9.398c1.593,3.055,2.39,7.995,2.39,14.822v45.746H598.33V57.873
		c0-7.096-0.797-11.678-2.39-13.744c-2.143-2.695-5.438-4.042-9.889-4.042c-3.241,0-6.291,0.809-9.146,2.426
		c-2.857,1.617-4.917,3.986-6.181,7.107c-1.264,3.123-1.895,8.051-1.895,14.789v34.36h-23.156V59.557
		c0-6.961-0.412-11.453-1.235-13.475c-0.824-2.021-2.102-3.525-3.832-4.514c-1.73-0.987-4.079-1.482-7.046-1.482
		c-3.571,0-6.785,0.787-9.642,2.358c-2.856,1.572-4.902,3.84-6.139,6.804c-1.236,2.965-1.854,7.883-1.854,14.755v34.764h-23.155
		V27.218z"/>
</g>
</svg>