<!-- Generator: Adobe Illustrator 19.1.0, SVG Export Plug-In  -->
<svg version="1.1"
	 xmlns="http://www.w3.org/2000/svg" xmlns:xlink="http://www.w3.org/1999/xlink" xmlns:a="http://ns.adobe.com/AdobeSVGViewerExtensions/3.0/"
	 x="0px" y="0px" width="198.167px" height="40.934px" viewBox="0 0 198.167 40.934"
	 style="enable-background:new 0 0 198.167 40.934;" xml:space="preserve">
<defs>
</defs>
<g>
	<path d="M18.847,30.434c0,3.445-0.813,6.057-2.44,7.834s-4.02,2.666-7.178,2.666c-1.039,0-2.126-0.096-3.261-0.287
		s-2.27-0.472-3.404-0.841v-3.732c1.34,0.629,2.557,1.094,3.65,1.395s2.099,0.451,3.015,0.451c2.037,0,3.521-0.554,4.45-1.661
		s1.395-2.864,1.395-5.271v-0.164V28.26c-0.602,1.285-1.422,2.242-2.461,2.871s-2.304,0.943-3.794,0.943
		c-2.68,0-4.819-1.073-6.419-3.22S0,23.837,0,20.241c0-3.609,0.8-6.487,2.399-8.634s3.739-3.22,6.419-3.22
		c1.477,0,2.728,0.294,3.753,0.882s1.859,1.497,2.502,2.728V9.023h3.773V30.434z M15.073,20.241c0-2.83-0.461-4.98-1.384-6.45
		s-2.266-2.205-4.03-2.205c-1.846,0-3.254,0.735-4.225,2.205s-1.456,3.62-1.456,6.45s0.489,4.987,1.466,6.47
		s2.396,2.225,4.255,2.225c1.736,0,3.066-0.745,3.989-2.235S15.073,23.058,15.073,20.241z"/>
	<path d="M35.396,8.388c3.186,0,5.623,1.032,7.311,3.097s2.533,5.052,2.533,8.962c0,3.924-0.841,6.915-2.522,8.972
		s-4.122,3.086-7.321,3.086c-3.186,0-5.619-1.029-7.301-3.086s-2.522-5.048-2.522-8.972c0-3.91,0.841-6.897,2.522-8.962
		S32.211,8.388,35.396,8.388z M35.396,11.587c-1.914,0-3.363,0.745-4.348,2.235s-1.477,3.698-1.477,6.624
		c0,2.912,0.492,5.117,1.477,6.614s2.434,2.246,4.348,2.246c1.928,0,3.384-0.749,4.368-2.246s1.477-3.702,1.477-6.614
		c0-2.926-0.492-5.134-1.477-6.624S37.324,11.587,35.396,11.587z"/>
	<path d="M55.781,11.874c0.602-1.121,1.432-1.982,2.492-2.584s2.287-0.902,3.681-0.902c2.762,0,4.936,1.063,6.521,3.189
		s2.379,5.055,2.379,8.788c0,3.787-0.796,6.757-2.389,8.911s-3.777,3.23-6.552,3.23c-1.367,0-2.574-0.297-3.62-0.892
		s-1.883-1.459-2.512-2.594v2.892h-3.773V0h3.773V11.874z M66.876,20.446c0-2.926-0.465-5.134-1.395-6.624s-2.304-2.235-4.122-2.235
		c-1.832,0-3.22,0.749-4.163,2.246s-1.415,3.702-1.415,6.614c0,2.898,0.472,5.1,1.415,6.604s2.331,2.256,4.163,2.256
		c1.818,0,3.192-0.745,4.122-2.235S66.876,23.372,66.876,20.446z"/>
	<path d="M81.067,11.874c0.602-1.121,1.432-1.982,2.492-2.584s2.287-0.902,3.681-0.902c2.762,0,4.936,1.063,6.521,3.189
		s2.379,5.055,2.379,8.788c0,3.787-0.796,6.757-2.389,8.911s-3.777,3.23-6.552,3.23c-1.367,0-2.574-0.297-3.62-0.892
		s-1.883-1.459-2.512-2.594v2.892h-3.773V0h3.773V11.874z M92.162,20.446c0-2.926-0.465-5.134-1.395-6.624s-2.304-2.235-4.122-2.235
		c-1.832,0-3.22,0.749-4.163,2.246s-1.415,3.702-1.415,6.614c0,2.898,0.472,5.1,1.415,6.604s2.331,2.256,4.163,2.256
		c1.818,0,3.192-0.745,4.122-2.235S92.162,23.372,92.162,20.446z"/>
	<path d="M105.103,9.023h9.659v19.954h7.485v2.933h-18.744v-2.933h7.485V11.956h-5.886V9.023z M110.988,0.103h3.773V4.86h-3.773
		V0.103z"/>
	<path d="M145.462,17.678V31.91h-3.794V17.678c0-2.064-0.362-3.582-1.087-4.553s-1.859-1.456-3.404-1.456
		c-1.764,0-3.121,0.625-4.071,1.876s-1.425,3.045-1.425,5.383V31.91h-3.773V8.941h3.773v3.445c0.67-1.312,1.579-2.307,2.728-2.984
		s2.509-1.015,4.081-1.015c2.338,0,4.084,0.769,5.24,2.307S145.462,14.561,145.462,17.678z"/>
	<path d="M161.499,32.32V11.874h-6.501V8.941h10.274V32.32c0,2.666-0.612,4.72-1.835,6.163s-2.963,2.164-5.219,2.164h-5.209v-3.199
		h4.799c1.23,0,2.153-0.427,2.769-1.282S161.499,34.029,161.499,32.32z M161.499,0h3.773v4.778h-3.773V0z"/>
	<path d="M198.167,13.679c-0.807-0.629-1.627-1.087-2.461-1.374s-1.75-0.431-2.748-0.431c-2.352,0-4.149,0.738-5.394,2.215
		s-1.866,3.609-1.866,6.398V31.91h-3.794V8.941h3.794v4.491c0.629-1.627,1.596-2.875,2.902-3.743s2.854-1.302,4.645-1.302
		c0.93,0,1.798,0.116,2.604,0.349s1.579,0.595,2.317,1.087V13.679z"/>
</g>
</svg>