<!-- Generator: Adobe Illustrator 18.1.1, SVG Export Plug-In  -->
<svg version="1.1"
	 xmlns="http://www.w3.org/2000/svg" xmlns:xlink="http://www.w3.org/1999/xlink" xmlns:a="http://ns.adobe.com/AdobeSVGViewerExtensions/3.0/"
	 x="0px" y="0px" width="112.557px" height="15.411px" viewBox="0 0 112.557 15.411" enable-background="new 0 0 112.557 15.411"
	 xml:space="preserve">
<defs>
</defs>
<g>
	<path d="M0,1.302h3.107c4.283,0,6.215,2.771,6.215,6.887s-1.932,6.971-6.215,6.971H0V1.302z M3.023,14.571
		c3.947,0,5.585-2.729,5.585-6.383S6.971,1.89,3.023,1.89H0.672v12.682H3.023z"/>
	<path d="M12.306,5.123h0.63v6.383c0,2.226,0.714,3.317,2.436,3.317c1.26,0,2.184-0.672,3.443-2.184V5.123h0.63v10.036h-0.546
		l-0.084-1.722h-0.042c-1.008,1.176-2.058,1.974-3.443,1.974c-2.058,0-3.023-1.218-3.023-3.821V5.123z"/>
	<path d="M22.596,13.521c0.84,0.714,1.764,1.302,3.275,1.302c1.68,0,2.562-1.008,2.562-2.142c0-1.344-1.344-1.932-2.52-2.352
		c-1.554-0.546-3.275-1.134-3.275-2.855c0-1.386,1.092-2.604,3.149-2.604c1.008,0,2.058,0.42,2.771,1.008l-0.378,0.504
		c-0.672-0.504-1.386-0.924-2.436-0.924c-1.68,0-2.436,0.987-2.436,1.974c0,1.176,1.218,1.68,2.436,2.142
		c1.596,0.609,3.359,1.092,3.359,3.065c0,1.47-1.176,2.771-3.275,2.771c-1.512,0-2.771-0.63-3.653-1.386L22.596,13.521z"/>
	<path d="M32.087,5.711h-1.596V5.207l1.596-0.084l0.084-2.939h0.546v2.939h2.981v0.588h-2.981v6.887
		c0,1.302,0.294,2.226,1.764,2.226c0.378,0,0.924-0.168,1.302-0.336l0.21,0.546c-0.588,0.21-1.218,0.378-1.554,0.378
		c-1.848,0-2.352-1.176-2.352-2.897V5.711z"/>
	<path d="M37.841,1.848c0-0.462,0.336-0.714,0.714-0.714s0.714,0.252,0.714,0.714c0,0.42-0.336,0.714-0.714,0.714
		S37.841,2.268,37.841,1.848z M38.219,5.123h0.63v10.036h-0.63V5.123z"/>
	<path d="M42.881,5.123h0.546l0.084,1.596h0.042c1.05-1.05,2.1-1.848,3.485-1.848c2.058,0,3.023,1.218,3.023,3.821v6.467h-0.63
		V8.776c0-2.226-0.714-3.317-2.436-3.317c-1.26,0-2.184,0.672-3.485,2.016v7.685h-0.63V5.123z"/>
	<path d="M58.084,1.302h0.672v13.27h6.509v0.588h-7.181V1.302z"/>
	<path d="M70.936,4.871c2.394,0,4.451,1.932,4.451,5.291c0,3.317-2.058,5.249-4.451,5.249s-4.451-1.932-4.451-5.249
		C66.485,6.803,68.542,4.871,70.936,4.871z M70.936,14.823c2.142,0,3.779-1.89,3.779-4.661s-1.638-4.703-3.779-4.703
		s-3.779,1.932-3.779,4.703S68.794,14.823,70.936,14.823z"/>
	<path d="M76.775,5.123h0.714l2.394,6.509c0.336,0.966,0.714,1.974,1.05,2.855h0.084c0.336-0.882,0.714-1.89,1.05-2.855l2.394-6.509
		h0.672l-3.779,10.036h-0.756L76.775,5.123z"/>
	<path d="M90.844,4.871c2.31,0,3.779,1.638,3.779,4.619c0,0.21,0,0.42-0.042,0.672h-7.391c0,2.688,1.554,4.661,3.947,4.661
		c1.134,0,2.016-0.378,2.771-0.924l0.294,0.546c-0.756,0.462-1.596,0.966-3.107,0.966c-2.52,0-4.577-1.974-4.577-5.249
		S88.619,4.871,90.844,4.871z M93.994,9.616c0-2.771-1.26-4.157-3.149-4.157c-1.806,0-3.443,1.596-3.653,4.157H93.994z"/>
	<path d="M97.438,0h0.63v14.193c0,0.42,0.168,0.63,0.42,0.63c0.084,0,0.168,0,0.378-0.042l0.126,0.546
		c-0.168,0.042-0.294,0.084-0.546,0.084c-0.63,0-1.008-0.378-1.008-1.344V0z"/>
	<path d="M101.89,1.848c0-0.462,0.336-0.714,0.714-0.714s0.714,0.252,0.714,0.714c0,0.42-0.336,0.714-0.714,0.714
		S101.89,2.268,101.89,1.848z M102.268,5.123h0.63v10.036h-0.63V5.123z"/>
	<path d="M106.048,13.521c0.84,0.714,1.764,1.302,3.275,1.302c1.68,0,2.562-1.008,2.562-2.142c0-1.344-1.344-1.932-2.52-2.352
		c-1.554-0.546-3.275-1.134-3.275-2.855c0-1.386,1.092-2.604,3.149-2.604c1.008,0,2.058,0.42,2.771,1.008l-0.378,0.504
		c-0.672-0.504-1.386-0.924-2.436-0.924c-1.68,0-2.436,0.987-2.436,1.974c0,1.176,1.218,1.68,2.436,2.142
		c1.596,0.609,3.359,1.092,3.359,3.065c0,1.47-1.176,2.771-3.275,2.771c-1.512,0-2.771-0.63-3.653-1.386L106.048,13.521z"/>
</g>
</svg>