<!-- Generator: Adobe Illustrator 18.1.1, SVG Export Plug-In  -->
<svg version="1.1"
	 xmlns="http://www.w3.org/2000/svg" xmlns:xlink="http://www.w3.org/1999/xlink" xmlns:a="http://ns.adobe.com/AdobeSVGViewerExtensions/3.0/"
	 x="0px" y="0px" width="198px" height="198px" viewBox="0 0 198 198" enable-background="new 0 0 198 198" xml:space="preserve">
<defs>
</defs>
<circle fill="#010002" cx="99" cy="99" r="99"/>
<path fill="#FFFFFF" d="M4.875,124.863h74.186l28.858-62.436H33.733L4.875,124.863z M4.875,124.863"/>
<path fill="#FFFFFF" d="M128.255,77.619c-5.149,0.084-9.538,2.192-12.743,6.832h-0.167V62.427h-7.426v60.584h7.006v-5.484h0.168
	c1.515,2.448,4.64,6.749,12.146,6.749c15.024,0,19.407-14.086,19.407-24.632C146.646,87.236,139.986,77.619,128.255,77.619
	L128.255,77.619z M127.071,117.867c-4.725,0-12.062-3.126-12.062-14.852c0-7.174,1.176-18.731,11.894-18.731
	c11.475,0,12.067,10.886,12.067,16.539C138.969,110.52,135.172,117.867,127.071,117.867L127.071,117.867z M127.071,117.867"/>
<path fill="#FFFFFF" d="M171.488,84.284c6.241,0,9.538,3.544,10.462,9.45h7.174c-0.592-7.678-4.977-16.115-16.54-16.115
	c-14.595,0-21.175,10.881-21.175,24.552c0,12.743,7.341,22.104,19.744,22.104c12.91,0,17.216-9.87,17.972-16.871h-7.174
	c-1.264,6.749-5.564,10.462-10.541,10.462c-10.21,0-12.072-9.366-12.072-16.959C159.342,93.057,162.295,84.284,171.488,84.284
	L171.488,84.284z M171.488,84.284"/>
</svg>