<!-- Generator: Adobe Illustrator 18.1.1, SVG Export Plug-In  -->
<svg version="1.1"
	 xmlns="http://www.w3.org/2000/svg" xmlns:xlink="http://www.w3.org/1999/xlink" xmlns:a="http://ns.adobe.com/AdobeSVGViewerExtensions/3.0/"
	 x="0px" y="0px" width="9.832px" height="9.832px" viewBox="0 0 9.832 9.832" enable-background="new 0 0 9.832 9.832"
	 xml:space="preserve">
<defs>
</defs>
<g>
	<path d="M4.91,0c0.68,0,1.318,0.129,1.916,0.387s1.119,0.609,1.564,1.055S9.188,2.406,9.445,3s0.387,1.23,0.387,1.91
		S9.703,6.229,9.445,6.826S8.836,7.945,8.391,8.391S7.424,9.188,6.826,9.445S5.59,9.832,4.91,9.832S3.594,9.703,3,9.445
		S1.887,8.836,1.441,8.391S0.645,7.424,0.387,6.826S0,5.59,0,4.91S0.129,3.594,0.387,3s0.609-1.113,1.055-1.559S2.406,0.645,3,0.387
		S4.23,0,4.91,0z M6.762,2.145H5.719c-0.203,0-0.391,0.035-0.562,0.105S4.834,2.414,4.705,2.531S4.477,2.781,4.406,2.93
		S4.301,3.227,4.301,3.375v0.621H3.375v1.219h0.926v2.461h1.23V5.215h0.914V3.996H5.531V3.68c0-0.094,0.037-0.168,0.111-0.223
		s0.139-0.082,0.193-0.082h0.926V2.145z"/>
</g>
</svg>