<!-- Generator: Adobe Illustrator 18.1.1, SVG Export Plug-In  -->
<svg version="1.1"
	 xmlns="http://www.w3.org/2000/svg" xmlns:xlink="http://www.w3.org/1999/xlink" xmlns:a="http://ns.adobe.com/AdobeSVGViewerExtensions/3.0/"
	 x="0px" y="0px" width="267.803px" height="61.099px" viewBox="0 0 267.803 61.099" enable-background="new 0 0 267.803 61.099"
	 xml:space="preserve">
<defs>
</defs>
<g>
	<path fill="#5D5D5D" d="M0,41.53c0-8.258,2.331-14.844,6.992-19.757s10.785-7.37,18.372-7.37c6.578,0,11.716,1.813,15.411,5.438
		c3.695,3.626,5.543,8.503,5.543,14.634c0,7.223-2.31,13.466-6.929,18.729c-4.619,5.264-10.807,7.895-18.561,7.895
		c-4.199,0-7.923-0.84-11.17-2.52c-3.248-1.68-5.669-4.059-7.265-7.139C0.798,48.361,0,45.058,0,41.53z M34.35,32.922
		c0-2.855-0.833-5.144-2.499-6.866c-1.666-1.722-3.815-2.583-6.446-2.583c-2.604,0-4.913,0.805-6.929,2.415
		c-2.016,1.61-3.584,3.947-4.703,7.013c-1.12,3.065-1.68,5.886-1.68,8.461c0,3.191,0.867,5.726,2.604,7.601
		c1.735,1.876,3.919,2.813,6.551,2.813c3.303,0,6.074-1.413,8.314-4.241C32.754,43.532,34.35,38.661,34.35,32.922z"/>
	<path fill="#5D5D5D" d="M49.687,15.453h12.051l-5.5,26.413c-0.672,3.164-1.008,5.138-1.008,5.921c0,1.288,0.475,2.394,1.428,3.317
		c0.951,0.924,2.168,1.386,3.652,1.386c1.064,0,2.113-0.203,3.15-0.609c1.035-0.405,2.1-1.021,3.191-1.848
		c1.092-0.825,2.07-1.77,2.939-2.834c0.867-1.063,1.68-2.463,2.436-4.199c0.531-1.287,1.105-3.387,1.721-6.299l4.451-21.248h12.053
		L80.93,60.049H69.676l1.26-6.047c-4.928,4.731-10.289,7.097-16.084,7.097c-3.667,0-6.55-1.05-8.65-3.149s-3.149-4.913-3.149-8.44
		c0-1.539,0.476-4.604,1.428-9.196L49.687,15.453z"/>
	<path fill="#5D5D5D" d="M85.685,24.397l1.848-8.944h5.879l1.47-7.139L108.696,0l-3.233,15.453h7.349l-1.848,8.944h-7.391
		l-3.905,18.687c-0.7,3.388-1.05,5.319-1.05,5.795c0,0.924,0.294,1.645,0.882,2.163c0.588,0.519,1.651,0.777,3.191,0.777
		c0.531,0,1.861-0.098,3.989-0.294l-1.89,8.944c-2.072,0.42-4.199,0.63-6.383,0.63c-4.256,0-7.349-0.819-9.28-2.456
		c-1.932-1.638-2.897-3.912-2.897-6.824c0-1.371,0.518-4.535,1.554-9.49l3.737-17.931H85.685z"/>
	<path fill="#5D5D5D" d="M124.043,15.453h11.422l-1.176,5.795c2.855-2.463,5.521-4.22,8-5.27c2.477-1.05,5.087-1.575,7.831-1.575
		c3.667,0,6.558,1.05,8.671,3.149c2.114,2.1,3.171,4.886,3.171,8.356c0,1.568-0.462,4.535-1.386,8.902l-5.249,25.237h-12.052
		l5.291-25.321c0.783-3.779,1.176-6.032,1.176-6.761c0-1.539-0.455-2.75-1.365-3.632c-0.909-0.882-2.177-1.323-3.8-1.323
		c-1.764,0-3.724,0.742-5.879,2.226c-2.156,1.484-3.85,3.443-5.081,5.879c-0.896,1.736-1.904,5.277-3.023,10.624l-3.821,18.309
		h-12.052L124.043,15.453z"/>
	<path fill="#5D5D5D" d="M158.529,41.53c0-8.258,2.33-14.844,6.992-19.757c4.66-4.913,10.784-7.37,18.371-7.37
		c6.578,0,11.716,1.813,15.411,5.438c3.695,3.626,5.543,8.503,5.543,14.634c0,7.223-2.31,13.466-6.929,18.729
		c-4.619,5.264-10.807,7.895-18.561,7.895c-4.199,0-7.923-0.84-11.17-2.52c-3.248-1.68-5.669-4.059-7.265-7.139
		C159.327,48.361,158.529,45.058,158.529,41.53z M192.879,32.922c0-2.855-0.833-5.144-2.498-6.866
		c-1.666-1.722-3.815-2.583-6.446-2.583c-2.604,0-4.913,0.805-6.929,2.415c-2.016,1.61-3.584,3.947-4.703,7.013
		c-1.12,3.065-1.68,5.886-1.68,8.461c0,3.191,0.867,5.726,2.604,7.601c1.735,1.876,3.919,2.813,6.551,2.813
		c3.303,0,6.074-1.413,8.314-4.241C191.283,43.532,192.879,38.661,192.879,32.922z"/>
	<path fill="#5D5D5D" d="M245.589,60.049h-11.338l-2.184-28.387l-13.605,28.387h-11.17l-5.585-44.596h10.708l3.107,29.898
		l13.899-29.898h10.96l1.512,29.898l13.815-29.898h12.094L245.589,60.049z"/>
</g>
</svg>