<!-- Generator: Adobe Illustrator 18.1.1, SVG Export Plug-In  -->
<svg version="1.1"
	 xmlns="http://www.w3.org/2000/svg" xmlns:xlink="http://www.w3.org/1999/xlink" xmlns:a="http://ns.adobe.com/AdobeSVGViewerExtensions/3.0/"
	 x="0px" y="0px" width="205.487px" height="32.396px" viewBox="0 0 205.487 32.396" enable-background="new 0 0 205.487 32.396"
	 xml:space="preserve">
<defs>
</defs>
<g>
	<path d="M52.808,32.243c5.159-10.325,10.314-20.639,15.449-30.916c-0.795-0.705-2.294,0.506-2.658-1.248c3.678,0,7.21,0,10.812,0
		c0,10.72,0,21.421,0,32.125c-0.989,0.199-1.007,0.199-1.009-0.824c-0.008-4.199-0.004-8.399-0.004-12.598c0-0.467,0-0.934,0-1.523
		c-2.089,0-4.039,0-5.99,0c-2.28,0-4.561,0.043-6.838-0.022c-0.878-0.025-1.337,0.234-1.733,1.045
		c-2.172,4.451-4.423,8.864-6.621,13.303C53.914,32.196,53.615,32.604,52.808,32.243z M75.322,1.08c-1.58,0-3.089,0.052-4.592-0.019
		c-0.918-0.044-1.416,0.233-1.836,1.099c-2.072,4.275-4.226,8.51-6.347,12.761c-0.173,0.346-0.319,0.705-0.532,1.178
		c4.508,0,8.873,0,13.307,0C75.322,11.091,75.322,6.16,75.322,1.08z"/>
	<path d="M112.295,1.534c-0.651-0.967-2.266,0.383-2.175-1.477c1.037,0,2.026,0,3.196,0c0,10.366,0,20.729,0,31.166
		c4.363,0,8.547,0,12.902,0c0-10.363,0-20.732,0-31.16c0.465,0,0.759,0,1.096,0c0,10.76,0,21.465,0,32.243
		c-4.987,0-9.928,0-15.019,0C112.295,21.957,112.295,11.586,112.295,1.534z"/>
	<path d="M41.367,0.092c0.301,1.028-0.33,0.993-0.977,0.992c-3.798-0.008-7.596-0.004-11.394-0.004c-0.469,0-0.938,0-1.489,0
		c0,5.067,0,9.998,0,15.101c0.511,0,0.976,0,1.44,0c3.838,0,7.676,0.008,11.514-0.009c0.716-0.003,1.206,0.1,0.862,1.084
		c-4.554,0-9.138,0-13.811,0c0,4.673,0,9.247,0,13.985c0.444,0.02,0.904,0.057,1.364,0.058c3.838,0.004,7.676,0.005,11.514-0.002
		c0.645-0.001,1.28-0.039,0.972,1.007c-4.94,0-9.912,0-14.953,0c0-10.722,0-21.42,0-32.211C31.363,0.092,36.335,0.092,41.367,0.092z
		"/>
	<path d="M13.903,15.103c0,5.804,0,11.5,0,17.231c-4.669,0-9.258,0-13.896,0c0-0.339,0-0.632,0-1.031c4.288,0,8.515,0,12.817,0
		c0-5.044,0-9.983,0-15.079c-4.265,0-8.516,0-12.824,0C0,10.765,0,5.463,0,0.08c4.596,0,9.176,0,13.836,0
		c0.402,0.872-0.094,1.008-0.872,1.005C9.524,1.072,6.085,1.08,2.646,1.08c-0.474,0-0.948,0-1.522,0c0,4.704,0,9.309,0,14.023
		C5.384,15.103,9.607,15.103,13.903,15.103z"/>
	<path d="M191.549,32.333c-0.28-0.935,0.167-1.046,0.847-1.042c3.479,0.018,6.958,0.008,10.437,0.008c0.476,0,0.951,0,1.507,0
		c0-5.026,0-9.964,0-15.065c-4.251,0-8.501,0-12.814,0c0-5.462,0-10.763,0-16.149c4.611,0,9.222,0,13.85,0
		c0.353,0.926-0.187,1.002-0.88,1c-3.439-0.01-6.878-0.005-10.317-0.005c-0.475,0-0.951,0-1.531,0c0,4.695,0,9.301,0,14.014
		c4.247,0,8.471,0,12.775,0c0,5.802,0,11.498,0,17.24C200.763,32.333,196.176,32.333,191.549,32.333z"/>
	<path d="M94.325,16.237c2.12,0,4.188,0,6.475,0c-0.15,0.628-0.184,1.223-0.427,1.715c-2.244,4.546-4.538,9.067-6.777,13.616
		c-0.313,0.636-0.682,0.85-1.368,0.826c-1.431-0.049-2.864-0.015-4.372-0.015c0-10.808,0-21.532,0-32.318
		c4.977,0,9.917,0,14.858,0.001c0.173,0.995,0.173,1.012-0.848,1.014C98.07,1.084,94.273,1.08,90.476,1.079
		c-0.473,0-0.947,0-1.515,0c0,10.073,0,20.041,0,30.206c1.089,0,2.19,0.025,3.288-0.021c0.214-0.009,0.505-0.248,0.61-0.457
		c2.246-4.444,4.47-8.898,6.782-13.517c-1.872,0-3.565,0-5.315,0C94.325,16.881,94.325,16.588,94.325,16.237z"/>
	<path d="M138.706,32.325c0-10.794,0-21.495,0-32.192c1.026-0.113,1.034-0.113,1.035,1.038c0.003,7.196,0.001,14.393,0.002,21.589
		c0,2.789,0,5.578,0,8.538c0.591,0,1.054,0,1.518,0c3.838,0.001,7.676,0.01,11.514-0.006c0.714-0.003,1.211,0.089,0.886,1.033
		C148.73,32.325,143.784,32.325,138.706,32.325z"/>
	<path d="M165.149,0.07c1.182-0.313,0.989,0.488,0.989,1.101c0.005,7.196,0.004,14.393,0.004,21.589c0,2.789,0,5.578,0,8.539
		c0.589,0,1.053,0,1.517,0c3.838,0,7.676,0.009,11.514-0.008c0.713-0.003,1.209,0.092,0.891,1.034c-4.934,0-9.88,0-14.916,0
		C165.149,21.59,165.149,10.86,165.149,0.07z"/>
</g>
</svg>