<!-- Generator: Adobe Illustrator 18.1.1, SVG Export Plug-In  -->
<svg version="1.1"
	 xmlns="http://www.w3.org/2000/svg" xmlns:xlink="http://www.w3.org/1999/xlink" xmlns:a="http://ns.adobe.com/AdobeSVGViewerExtensions/3.0/"
	 x="0px" y="0px" width="262.27px" height="56.568px" viewBox="0 0 262.27 56.568" enable-background="new 0 0 262.27 56.568"
	 xml:space="preserve">
<defs>
</defs>
<g>
	<path fill="#5D5D5D" d="M11.8,55.657H0V15.338h10.96v5.733c1.875-2.708,3.562-4.492,5.06-5.353c1.497-0.86,3.198-1.291,5.102-1.291
		c2.688,0,5.276,0.671,7.769,2.012l-3.653,9.302c-1.988-1.164-3.836-1.746-5.543-1.746c-1.652,0-3.052,0.412-4.199,1.234
		c-1.148,0.823-2.051,2.31-2.708,4.461c-0.658,2.152-0.987,6.657-0.987,13.516V55.657z"/>
	<path fill="#5D5D5D" d="M49.477,42.825l11.758,1.784c-1.512,3.898-3.899,6.866-7.16,8.903c-3.262,2.038-7.342,3.056-12.241,3.056
		c-7.755,0-13.494-2.29-17.217-6.872c-2.939-3.669-4.409-8.301-4.409-13.895c0-6.682,1.932-11.914,5.795-15.699
		c3.863-3.783,8.748-5.676,14.655-5.676c6.635,0,11.869,1.981,15.705,5.942c3.835,3.962,5.669,10.029,5.501,18.204H32.302
		c0.084,3.164,1.035,5.626,2.855,7.385c1.819,1.76,4.087,2.638,6.803,2.638c1.848,0,3.401-0.456,4.661-1.367
		S48.833,44.85,49.477,42.825z M50.149,32.043c-0.084-3.088-0.966-5.435-2.646-7.043c-1.68-1.607-3.724-2.411-6.131-2.411
		c-2.576,0-4.703,0.848-6.383,2.544c-1.68,1.696-2.506,4-2.478,6.91H50.149z"/>
	<path fill="#5D5D5D" d="M61.161,55.657V0h11.8v55.657H61.161z"/>
	<path fill="#5D5D5D" d="M100.56,42.825l11.758,1.784c-1.512,3.898-3.898,6.866-7.16,8.903c-3.261,2.038-7.342,3.056-12.24,3.056
		c-7.755,0-13.494-2.29-17.217-6.872c-2.939-3.669-4.409-8.301-4.409-13.895c0-6.682,1.932-11.914,5.795-15.699
		c3.863-3.783,8.748-5.676,14.655-5.676c6.635,0,11.869,1.981,15.705,5.942c3.835,3.962,5.669,10.029,5.501,18.204H83.385
		c0.084,3.164,1.035,5.626,2.855,7.385c1.819,1.76,4.087,2.638,6.803,2.638c1.848,0,3.401-0.456,4.661-1.367
		S99.915,44.85,100.56,42.825z M101.231,32.043c-0.084-3.088-0.966-5.435-2.646-7.043c-1.68-1.607-3.724-2.411-6.131-2.411
		c-2.576,0-4.703,0.848-6.383,2.544c-1.68,1.696-2.506,4-2.478,6.91H101.231z"/>
	<path fill="#5D5D5D" d="M121.062,27.639l-10.708-1.746c1.203-3.897,3.275-6.783,6.215-8.656c2.939-1.873,7.307-2.809,13.102-2.809
		c5.263,0,9.182,0.564,11.758,1.689c2.575,1.127,4.389,2.557,5.438,4.29c1.051,1.734,1.575,4.917,1.575,9.548l-0.126,12.453
		c0,3.544,0.189,6.157,0.566,7.84c0.379,1.684,1.085,3.487,2.121,5.41h-11.674c-0.309-0.708-0.687-1.759-1.134-3.151
		c-0.196-0.632-0.336-1.05-0.42-1.253c-2.016,1.772-4.172,3.101-6.467,3.986c-2.296,0.886-4.745,1.329-7.349,1.329
		c-4.592,0-8.209-1.126-10.855-3.379c-2.645-2.252-3.968-5.1-3.968-8.542c0-2.278,0.602-4.309,1.806-6.093
		c1.203-1.784,2.891-3.151,5.061-4.1c2.169-0.949,5.297-1.778,9.385-2.487c5.515-0.936,9.336-1.809,11.464-2.62v-1.063
		c0-2.05-0.561-3.512-1.68-4.385c-1.12-0.873-3.233-1.31-6.341-1.31c-2.1,0-3.737,0.374-4.913,1.12
		C122.741,24.456,121.789,25.766,121.062,27.639z M136.851,36.295c-1.512,0.456-3.905,1-7.181,1.633
		c-3.275,0.633-5.417,1.253-6.425,1.86c-1.54,0.987-2.31,2.24-2.31,3.759c0,1.494,0.615,2.785,1.848,3.872
		c1.231,1.089,2.799,1.633,4.703,1.633c2.127,0,4.157-0.632,6.089-1.898c1.428-0.961,2.365-2.138,2.813-3.531
		c0.308-0.911,0.462-2.644,0.462-5.201V36.295z"/>
	<path fill="#5D5D5D" d="M145.596,44.154l11.842-1.633c0.504,2.076,1.525,3.652,3.065,4.727c1.539,1.076,3.695,1.613,6.467,1.613
		c3.051,0,5.347-0.506,6.887-1.519c1.035-0.708,1.554-1.657,1.554-2.847c0-0.81-0.28-1.481-0.84-2.012
		c-0.588-0.506-1.904-0.974-3.947-1.405c-9.519-1.898-15.552-3.631-18.099-5.201c-3.527-2.176-5.291-5.201-5.291-9.074
		c0-3.493,1.525-6.429,4.577-8.808c3.051-2.379,7.782-3.569,14.193-3.569c6.103,0,10.638,0.899,13.605,2.696
		c2.967,1.798,5.011,4.455,6.131,7.973l-11.128,1.86c-0.477-1.569-1.379-2.771-2.708-3.607c-1.33-0.835-3.228-1.253-5.69-1.253
		c-3.107,0-5.333,0.393-6.677,1.177c-0.896,0.557-1.344,1.278-1.344,2.164c0,0.759,0.392,1.405,1.176,1.936
		c1.063,0.709,4.738,1.708,11.023,2.999c6.284,1.291,10.672,2.873,13.164,4.746c2.463,1.898,3.695,4.543,3.695,7.935
		c0,3.696-1.708,6.872-5.123,9.529c-3.416,2.658-8.469,3.986-15.159,3.986c-6.075,0-10.883-1.113-14.425-3.341
		C149.004,51.001,146.688,47.976,145.596,44.154z"/>
	<path fill="#5D5D5D" d="M213.087,42.825l11.758,1.784c-1.512,3.898-3.898,6.866-7.16,8.903c-3.261,2.038-7.342,3.056-12.24,3.056
		c-7.755,0-13.494-2.29-17.217-6.872c-2.939-3.669-4.409-8.301-4.409-13.895c0-6.682,1.932-11.914,5.795-15.699
		c3.863-3.783,8.748-5.676,14.655-5.676c6.635,0,11.869,1.981,15.705,5.942c3.835,3.962,5.669,10.029,5.501,18.204h-29.562
		c0.084,3.164,1.035,5.626,2.855,7.385c1.819,1.76,4.087,2.638,6.803,2.638c1.848,0,3.401-0.456,4.661-1.367
		S212.442,44.85,213.087,42.825z M213.759,32.043c-0.084-3.088-0.966-5.435-2.646-7.043c-1.68-1.607-3.724-2.411-6.131-2.411
		c-2.576,0-4.703,0.848-6.383,2.544c-1.68,1.696-2.506,4-2.478,6.91H213.759z"/>
	<path fill="#5D5D5D" d="M220.613,44.154l11.842-1.633c0.504,2.076,1.525,3.652,3.065,4.727c1.539,1.076,3.695,1.613,6.467,1.613
		c3.051,0,5.347-0.506,6.887-1.519c1.035-0.708,1.554-1.657,1.554-2.847c0-0.81-0.28-1.481-0.84-2.012
		c-0.588-0.506-1.904-0.974-3.947-1.405c-9.519-1.898-15.552-3.631-18.099-5.201c-3.527-2.176-5.291-5.201-5.291-9.074
		c0-3.493,1.525-6.429,4.577-8.808c3.051-2.379,7.782-3.569,14.193-3.569c6.103,0,10.638,0.899,13.605,2.696
		c2.967,1.798,5.011,4.455,6.131,7.973l-11.128,1.86c-0.477-1.569-1.379-2.771-2.708-3.607c-1.33-0.835-3.228-1.253-5.69-1.253
		c-3.107,0-5.333,0.393-6.677,1.177c-0.896,0.557-1.344,1.278-1.344,2.164c0,0.759,0.392,1.405,1.176,1.936
		c1.063,0.709,4.738,1.708,11.023,2.999c6.284,1.291,10.672,2.873,13.164,4.746c2.463,1.898,3.695,4.543,3.695,7.935
		c0,3.696-1.708,6.872-5.123,9.529c-3.416,2.658-8.469,3.986-15.159,3.986c-6.075,0-10.883-1.113-14.425-3.341
		C224.021,51.001,221.705,47.976,220.613,44.154z"/>
</g>
</svg>