<!-- Generator: Adobe Illustrator 18.1.1, SVG Export Plug-In  -->
<svg version="1.1"
	 xmlns="http://www.w3.org/2000/svg" xmlns:xlink="http://www.w3.org/1999/xlink" xmlns:a="http://ns.adobe.com/AdobeSVGViewerExtensions/3.0/"
	 x="0px" y="0px" width="394.785px" height="80.709px" viewBox="0 0 394.785 80.709" enable-background="new 0 0 394.785 80.709"
	 xml:space="preserve">
<defs>
</defs>
<g>
	<path fill="#5D5D5D" d="M29.898,18.015l-1.848,8.818h-8.524L12.052,62.61H0l7.475-35.777H0.756l1.848-8.818h6.719l0.966-4.577
		c0.783-3.751,1.525-6.284,2.226-7.601c0.951-1.791,2.373-3.212,4.262-4.262S21.136,0,24.188,0c3.695,0,7.586,0.672,11.674,2.016
		l-2.352,8.608c-2.884-0.979-5.222-1.47-7.013-1.47c-1.372,0-2.394,0.435-3.065,1.302c-0.448,0.561-0.91,2.03-1.386,4.409
		l-0.672,3.149H29.898z"/>
	<path fill="#5D5D5D" d="M18.907,44.092c0-8.258,2.331-14.844,6.992-19.757s10.785-7.37,18.372-7.37
		c6.578,0,11.716,1.813,15.412,5.438c3.695,3.626,5.543,8.503,5.543,14.634c0,7.223-2.311,13.466-6.93,18.729
		c-4.619,5.264-10.806,7.895-18.56,7.895c-4.199,0-7.923-0.84-11.17-2.52c-3.248-1.68-5.669-4.059-7.265-7.139
		C19.705,50.923,18.907,47.619,18.907,44.092z M53.256,35.483c0-2.855-0.833-5.144-2.499-6.866
		c-1.666-1.722-3.815-2.583-6.446-2.583c-2.604,0-4.913,0.805-6.929,2.415c-2.016,1.61-3.584,3.947-4.703,7.013
		C31.56,38.528,31,41.349,31,43.924c0,3.191,0.867,5.726,2.604,7.601c1.735,1.876,3.919,2.813,6.551,2.813
		c3.303,0,6.074-1.413,8.314-4.241C51.661,46.094,53.256,41.223,53.256,35.483z"/>
	<path fill="#5D5D5D" d="M68.006,18.015H79.26l-1.806,8.65c4.199-6.467,8.748-9.7,13.647-9.7c1.735,0,3.597,0.435,5.585,1.302
		l-4.619,9.868c-1.092-0.392-2.254-0.588-3.485-0.588c-2.072,0-4.178,0.784-6.32,2.352c-2.141,1.568-3.814,3.661-5.018,6.278
		c-1.204,2.618-2.394,6.768-3.569,12.451L70.735,62.61H58.684L68.006,18.015z"/>
	<path fill="#5D5D5D" d="M85.526,26.959l1.848-8.944h5.879l1.47-7.139l13.815-8.314l-3.233,15.453h7.349l-1.848,8.944h-7.391
		L99.51,45.646c-0.7,3.388-1.05,5.319-1.05,5.795c0,0.924,0.294,1.645,0.882,2.163c0.588,0.519,1.651,0.777,3.191,0.777
		c0.531,0,1.861-0.098,3.989-0.294l-1.89,8.944c-2.072,0.42-4.199,0.63-6.383,0.63c-4.256,0-7.349-0.819-9.28-2.456
		c-1.932-1.638-2.897-3.912-2.897-6.824c0-1.371,0.518-4.535,1.554-9.49l3.737-17.931H85.526z"/>
	<path fill="#5D5D5D" d="M113.041,62.61h-12.052L113.881,1.05h12.052l-4.619,21.92c2.715-2.127,5.249-3.66,7.601-4.598
		c2.352-0.938,4.871-1.407,7.559-1.407c3.611,0,6.467,1.036,8.566,3.107c2.1,2.072,3.149,4.787,3.149,8.146
		c0,1.792-0.393,4.563-1.176,8.314l-5.459,26.077h-12.052l5.585-26.581c0.588-2.883,0.882-4.73,0.882-5.543
		c0-1.483-0.462-2.673-1.386-3.569c-0.924-0.896-2.184-1.344-3.779-1.344c-2.016,0-3.947,0.7-5.795,2.1
		c-2.408,1.848-4.241,4.115-5.501,6.803c-0.7,1.484-1.624,4.97-2.771,10.456L113.041,62.61z"/>
	<path fill="#5D5D5D" d="M173.269,45.813l11.716,1.89c-1.932,5.207-4.787,9.169-8.566,11.884c-3.779,2.716-8.161,4.073-13.144,4.073
		c-5.684,0-10.19-1.693-13.521-5.081c-3.332-3.387-4.997-8.048-4.997-13.983c0-4.843,1.008-9.42,3.023-13.731
		c2.016-4.311,5.053-7.706,9.112-10.183c4.059-2.478,8.51-3.716,13.354-3.716c5.263,0,9.462,1.372,12.598,4.115
		c3.135,2.744,4.898,6.355,5.291,10.834l-11.464,1.218c-0.28-2.491-1.043-4.325-2.288-5.501c-1.246-1.176-2.877-1.764-4.893-1.764
		c-2.324,0-4.493,0.868-6.509,2.604c-2.016,1.736-3.562,4.333-4.64,7.79c-1.078,3.458-1.617,6.698-1.617,9.721
		c0,2.632,0.644,4.661,1.932,6.089c1.287,1.428,2.897,2.142,4.829,2.142s3.793-0.699,5.585-2.1
		C170.86,50.713,172.261,48.613,173.269,45.813z"/>
	<path fill="#5D5D5D" d="M182.307,44.092c0-8.258,2.33-14.844,6.992-19.757c4.66-4.913,10.784-7.37,18.371-7.37
		c6.578,0,11.716,1.813,15.411,5.438c3.695,3.626,5.543,8.503,5.543,14.634c0,7.223-2.31,13.466-6.929,18.729
		c-4.619,5.264-10.807,7.895-18.561,7.895c-4.199,0-7.923-0.84-11.17-2.52c-3.248-1.68-5.669-4.059-7.265-7.139
		C183.104,50.923,182.307,47.619,182.307,44.092z M216.656,35.483c0-2.855-0.833-5.144-2.498-6.866
		c-1.666-1.722-3.815-2.583-6.446-2.583c-2.604,0-4.913,0.805-6.929,2.415c-2.016,1.61-3.584,3.947-4.703,7.013
		c-1.12,3.065-1.68,5.886-1.68,8.461c0,3.191,0.867,5.726,2.604,7.601c1.735,1.876,3.919,2.813,6.551,2.813
		c3.303,0,6.074-1.413,8.314-4.241C215.061,46.094,216.656,41.223,216.656,35.483z"/>
	<path fill="#5D5D5D" d="M231.699,18.015h11.338l-1.134,5.417c4.423-4.311,9.07-6.467,13.941-6.467c3.359,0,5.948,0.7,7.769,2.1
		c1.819,1.4,2.981,3.332,3.485,5.795c1.539-2.239,3.751-4.115,6.635-5.627c2.883-1.512,5.879-2.268,8.986-2.268
		c3.555,0,6.326,0.952,8.314,2.855c1.987,1.904,2.981,4.424,2.981,7.559c0,1.54-0.393,4.199-1.176,7.979l-5.711,27.253h-12.052
		l5.711-27.253c0.699-3.415,1.05-5.347,1.05-5.795c0-1.231-0.371-2.205-1.112-2.918c-0.742-0.714-1.855-1.071-3.339-1.071
		c-2.996,0-5.669,1.582-8.021,4.745c-1.708,2.268-3.164,6.285-4.367,12.052l-4.241,20.24h-12.052l5.627-26.959
		c0.644-3.107,0.966-5.123,0.966-6.047c0-1.176-0.399-2.142-1.196-2.897c-0.799-0.756-1.897-1.134-3.297-1.134
		c-1.316,0-2.674,0.393-4.073,1.176c-1.4,0.784-2.624,1.862-3.675,3.233c-1.049,1.372-1.952,3.136-2.708,5.291
		c-0.336,1.008-0.882,3.29-1.638,6.845l-4.283,20.492h-12.052L231.699,18.015z"/>
	<path fill="#5D5D5D" d="M298.226,18.015h12.052l-9.322,44.596h-12.052L298.226,18.015z M301.753,1.05h12.052l-2.268,10.918h-12.052
		L301.753,1.05z"/>
	<path fill="#5D5D5D" d="M311.967,18.015h11.422l-1.176,5.795c2.855-2.463,5.521-4.22,8-5.27c2.477-1.05,5.087-1.575,7.831-1.575
		c3.667,0,6.558,1.05,8.671,3.149c2.114,2.1,3.171,4.886,3.171,8.356c0,1.568-0.462,4.535-1.386,8.902l-5.249,25.237h-12.052
		l5.291-25.321c0.783-3.779,1.176-6.032,1.176-6.761c0-1.539-0.455-2.75-1.365-3.632c-0.909-0.882-2.177-1.323-3.8-1.323
		c-1.764,0-3.724,0.742-5.879,2.226c-2.156,1.484-3.85,3.443-5.081,5.879c-0.896,1.736-1.904,5.277-3.023,10.624l-3.821,18.309
		h-12.052L311.967,18.015z"/>
	<path fill="#5D5D5D" d="M344.059,64.962l12.724,1.848c0,1.287,0.21,2.261,0.63,2.918c0.42,0.659,1.099,1.219,2.036,1.68
		c0.938,0.463,2.219,0.693,3.843,0.693c2.547,0,4.591-0.504,6.131-1.512c1.147-0.785,2.085-2.044,2.813-3.78
		c0.447-1.092,1.021-3.472,1.722-7.139l0.42-2.1c-4.172,3.472-8.482,5.207-12.934,5.207c-4.367,0-7.951-1.539-10.75-4.619
		c-2.8-3.079-4.199-7.586-4.199-13.521c0-5.234,0.951-10.036,2.855-14.403c1.903-4.367,4.577-7.67,8.021-9.91
		c3.443-2.239,6.956-3.359,10.54-3.359c2.967,0,5.683,0.784,8.146,2.352c2.463,1.568,4.381,3.766,5.753,6.593l1.68-7.895h11.296
		l-7.727,37.163c-1.26,5.963-2.324,10.218-3.191,12.766c-0.868,2.547-1.862,4.578-2.981,6.089c-1.12,1.512-2.534,2.778-4.241,3.801
		c-1.708,1.021-3.724,1.756-6.047,2.204c-2.324,0.447-4.844,0.672-7.559,0.672c-6.299,0-11.059-1.078-14.277-3.233
		c-3.22-2.156-4.829-5.739-4.829-10.75C343.933,66.193,343.975,65.605,344.059,64.962z M358.252,43.42
		c0,3.388,0.763,5.97,2.288,7.748c1.526,1.778,3.437,2.667,5.732,2.667c2.1,0,4.137-0.798,6.109-2.394
		c1.975-1.596,3.486-3.863,4.535-6.803c1.051-2.939,1.575-5.78,1.575-8.524c0-3.163-0.854-5.711-2.562-7.643
		c-1.708-1.932-3.682-2.897-5.921-2.897c-2.156,0-4.136,0.854-5.942,2.562c-1.805,1.708-3.296,4.34-4.472,7.895
		C358.699,38.773,358.252,41.236,358.252,43.42z"/>
</g>
</svg>