<!-- Generator: Adobe Illustrator 19.1.0, SVG Export Plug-In  -->
<svg version="1.1"
	 xmlns="http://www.w3.org/2000/svg" xmlns:xlink="http://www.w3.org/1999/xlink" xmlns:a="http://ns.adobe.com/AdobeSVGViewerExtensions/3.0/"
	 x="0px" y="0px" width="543.928px" height="71.061px" viewBox="0 0 543.928 71.061"
	 style="enable-background:new 0 0 543.928 71.061;" xml:space="preserve">
<style type="text/css">
	.st0{fill:#5D5D5D;}
	.st1{fill:#5D5D5D;stroke:#808080;stroke-width:3;stroke-miterlimit:10;}
</style>
<defs>
</defs>
<g>
	<path class="st0" d="M11.926,30.57L1.218,28.639c1.203-4.311,3.275-7.502,6.215-9.574c2.939-2.071,7.307-3.107,13.102-3.107
		c5.263,0,9.182,0.624,11.758,1.869c2.575,1.246,4.388,2.828,5.438,4.745c1.05,1.918,1.575,5.438,1.575,10.561l-0.126,13.773
		c0,3.92,0.189,6.81,0.567,8.671c0.378,1.862,1.084,3.857,2.121,5.984H30.192c-0.309-0.783-0.687-1.945-1.134-3.485
		c-0.196-0.699-0.336-1.161-0.42-1.386c-2.016,1.96-4.172,3.43-6.467,4.409c-2.296,0.979-4.745,1.47-7.349,1.47
		c-4.592,0-8.209-1.245-10.855-3.737C1.323,56.34,0,53.19,0,49.383c0-2.52,0.602-4.766,1.806-6.74
		c1.203-1.974,2.89-3.485,5.06-4.535c2.169-1.05,5.297-1.966,9.385-2.75c5.515-1.035,9.336-2.001,11.464-2.897v-1.176
		c0-2.268-0.561-3.884-1.68-4.85c-1.12-0.966-3.233-1.449-6.341-1.449c-2.1,0-3.737,0.414-4.913,1.239
		C13.605,27.05,12.653,28.499,11.926,30.57z M27.715,40.145c-1.512,0.504-3.905,1.106-7.181,1.806
		c-3.275,0.7-5.417,1.386-6.425,2.058c-1.54,1.092-2.31,2.478-2.31,4.157c0,1.652,0.615,3.08,1.848,4.283
		c1.231,1.204,2.799,1.806,4.703,1.806c2.127,0,4.157-0.699,6.089-2.1c1.428-1.063,2.365-2.365,2.813-3.905
		c0.308-1.008,0.462-2.925,0.462-5.753V40.145z"/>
	<path class="st0" d="M36.459,48.837l11.842-1.806c0.504,2.296,1.525,4.039,3.065,5.228c1.539,1.19,3.695,1.785,6.467,1.785
		c3.051,0,5.347-0.56,6.887-1.68c1.035-0.783,1.554-1.833,1.554-3.149c0-0.896-0.28-1.638-0.84-2.226
		c-0.588-0.56-1.904-1.077-3.947-1.554c-9.519-2.1-15.552-4.017-18.099-5.753c-3.527-2.407-5.291-5.753-5.291-10.036
		c0-3.863,1.525-7.11,4.577-9.742c3.051-2.631,7.782-3.947,14.193-3.947c6.103,0,10.638,0.994,13.605,2.981
		c2.967,1.988,5.011,4.928,6.131,8.818l-11.128,2.058c-0.477-1.735-1.379-3.065-2.708-3.989c-1.33-0.924-3.227-1.386-5.69-1.386
		c-3.107,0-5.333,0.435-6.677,1.302c-0.896,0.616-1.344,1.414-1.344,2.394c0,0.84,0.392,1.554,1.176,2.142
		c1.063,0.784,4.738,1.89,11.023,3.317c6.284,1.428,10.672,3.178,13.165,5.249c2.463,2.1,3.695,5.025,3.695,8.776
		c0,4.088-1.708,7.601-5.123,10.54c-3.416,2.939-8.469,4.409-15.159,4.409c-6.075,0-10.883-1.231-14.424-3.695
		C39.867,56.41,37.551,53.064,36.459,48.837z"/>
	<path class="st0" d="M73.968,48.837l11.842-1.806c0.504,2.296,1.525,4.039,3.065,5.228c1.539,1.19,3.695,1.785,6.467,1.785
		c3.051,0,5.347-0.56,6.887-1.68c1.035-0.783,1.554-1.833,1.554-3.149c0-0.896-0.28-1.638-0.84-2.226
		c-0.588-0.56-1.904-1.077-3.947-1.554c-9.519-2.1-15.552-4.017-18.099-5.753c-3.527-2.407-5.291-5.753-5.291-10.036
		c0-3.863,1.525-7.11,4.577-9.742c3.051-2.631,7.782-3.947,14.193-3.947c6.103,0,10.638,0.994,13.605,2.981
		c2.967,1.988,5.011,4.928,6.131,8.818l-11.128,2.058c-0.477-1.735-1.379-3.065-2.708-3.989c-1.33-0.924-3.227-1.386-5.69-1.386
		c-3.107,0-5.333,0.435-6.677,1.302c-0.896,0.616-1.344,1.414-1.344,2.394c0,0.84,0.392,1.554,1.176,2.142
		c1.063,0.784,4.738,1.89,11.023,3.317c6.284,1.428,10.672,3.178,13.165,5.249c2.463,2.1,3.695,5.025,3.695,8.776
		c0,4.088-1.708,7.601-5.123,10.54c-3.416,2.939-8.469,4.409-15.159,4.409c-6.075,0-10.883-1.231-14.424-3.695
		C77.376,56.41,75.06,53.064,73.968,48.837z"/>
	<path class="st0" d="M112.905,38.633c0-3.919,0.966-7.712,2.897-11.38c1.932-3.667,4.667-6.467,8.209-8.398
		c3.541-1.932,7.496-2.897,11.863-2.897c6.746,0,12.275,2.191,16.587,6.572c4.311,4.382,6.467,9.917,6.467,16.608
		c0,6.747-2.177,12.339-6.53,16.776c-4.354,4.438-9.833,6.656-16.44,6.656c-4.088,0-7.986-0.924-11.695-2.771
		c-3.71-1.848-6.53-4.556-8.461-8.125S112.905,43.756,112.905,38.633z M124.999,39.263c0,4.424,1.05,7.811,3.149,10.162
		s4.688,3.527,7.769,3.527c3.079,0,5.662-1.176,7.748-3.527c2.085-2.352,3.128-5.767,3.128-10.246c0-4.367-1.043-7.727-3.128-10.078
		c-2.086-2.352-4.668-3.527-7.748-3.527c-3.08,0-5.669,1.176-7.769,3.527S124.999,34.84,124.999,39.263z"/>
	<path class="st0" d="M196.732,30.15l-11.632,2.1c-0.393-2.323-1.281-4.073-2.667-5.249s-3.185-1.764-5.396-1.764
		c-2.939,0-5.285,1.015-7.034,3.044c-1.75,2.03-2.625,5.424-2.625,10.183c0,5.291,0.888,9.028,2.667,11.212
		c1.777,2.184,4.164,3.275,7.16,3.275c2.239,0,4.073-0.636,5.501-1.911c1.428-1.273,2.436-3.464,3.023-6.572l11.59,1.974
		c-1.204,5.319-3.514,9.337-6.929,12.052c-3.416,2.716-7.993,4.073-13.731,4.073c-6.523,0-11.723-2.058-15.6-6.173
		c-3.878-4.115-5.816-9.812-5.816-17.091c0-7.362,1.945-13.094,5.837-17.196c3.891-4.101,9.154-6.152,15.789-6.152
		c5.431,0,9.749,1.169,12.955,3.506C193.029,21.801,195.332,25.363,196.732,30.15z"/>
	<path class="st0" d="M195.356,10.918V0h11.8v10.918H195.356z M195.356,61.561V16.965h11.8v44.596H195.356z"/>
	<path class="st0" d="M217.748,30.57l-10.708-1.932c1.203-4.311,3.275-7.502,6.215-9.574c2.939-2.071,7.307-3.107,13.102-3.107
		c5.263,0,9.182,0.624,11.758,1.869c2.575,1.246,4.389,2.828,5.438,4.745c1.051,1.918,1.575,5.438,1.575,10.561l-0.126,13.773
		c0,3.92,0.189,6.81,0.566,8.671c0.379,1.862,1.085,3.857,2.121,5.984h-11.674c-0.309-0.783-0.687-1.945-1.134-3.485
		c-0.196-0.699-0.336-1.161-0.42-1.386c-2.016,1.96-4.172,3.43-6.467,4.409c-2.296,0.979-4.745,1.47-7.349,1.47
		c-4.592,0-8.209-1.245-10.855-3.737c-2.646-2.491-3.968-5.641-3.968-9.448c0-2.52,0.602-4.766,1.806-6.74
		c1.203-1.974,2.89-3.485,5.06-4.535c2.169-1.05,5.297-1.966,9.385-2.75c5.515-1.035,9.336-2.001,11.464-2.897v-1.176
		c0-2.268-0.561-3.884-1.68-4.85c-1.12-0.966-3.233-1.449-6.341-1.449c-2.1,0-3.737,0.414-4.913,1.239
		C219.428,27.05,218.476,28.499,217.748,30.57z M233.537,40.145c-1.512,0.504-3.905,1.106-7.181,1.806
		c-3.275,0.7-5.417,1.386-6.425,2.058c-1.54,1.092-2.31,2.478-2.31,4.157c0,1.652,0.615,3.08,1.848,4.283
		c1.231,1.204,2.799,1.806,4.703,1.806c2.127,0,4.157-0.699,6.089-2.1c1.428-1.063,2.365-2.365,2.813-3.905
		c0.308-1.008,0.462-2.925,0.462-5.753V40.145z"/>
	<path class="st0" d="M266.889,16.965v9.406h-8.062v17.973c0,3.64,0.077,5.76,0.23,6.362c0.154,0.603,0.504,1.099,1.051,1.491
		c0.545,0.393,1.21,0.588,1.994,0.588c1.092,0,2.673-0.378,4.745-1.134l1.008,9.154c-2.744,1.176-5.852,1.764-9.322,1.764
		c-2.128,0-4.046-0.357-5.753-1.071c-1.708-0.714-2.961-1.638-3.758-2.771c-0.799-1.134-1.352-2.667-1.659-4.598
		c-0.252-1.371-0.378-4.143-0.378-8.314V26.371h-5.417v-9.406h5.417v-8.86l11.842-6.887v15.747H266.889z"/>
	<path class="st0" d="M290.583,47.367l11.758,1.974c-1.512,4.312-3.898,7.594-7.16,9.847c-3.261,2.254-7.342,3.38-12.24,3.38
		c-7.755,0-13.494-2.533-17.217-7.601c-2.939-4.059-4.409-9.182-4.409-15.369c0-7.391,1.932-13.178,5.795-17.364
		c3.863-4.185,8.748-6.278,14.655-6.278c6.635,0,11.869,2.191,15.705,6.572c3.835,4.382,5.669,11.093,5.501,20.135h-29.562
		c0.084,3.5,1.035,6.222,2.855,8.167c1.819,1.946,4.087,2.918,6.803,2.918c1.848,0,3.401-0.504,4.661-1.512
		S289.938,49.607,290.583,47.367z M291.255,35.441c-0.084-3.415-0.966-6.011-2.646-7.79c-1.68-1.777-3.724-2.667-6.131-2.667
		c-2.576,0-4.703,0.938-6.383,2.813c-1.68,1.876-2.506,4.424-2.478,7.643H291.255z"/>
	<path class="st0" d="M343.167,61.561h-10.96V55.01c-1.82,2.548-3.969,4.445-6.445,5.69c-2.479,1.245-4.977,1.869-7.496,1.869
		c-5.123,0-9.512-2.064-13.164-6.194c-3.654-4.129-5.48-9.889-5.48-17.28c0-7.559,1.777-13.304,5.333-17.238
		c3.555-3.933,8.048-5.9,13.479-5.9c4.982,0,9.294,2.072,12.934,6.215V0h11.8V61.561z M311.673,38.297
		c0,4.76,0.657,8.203,1.974,10.33c1.903,3.08,4.562,4.619,7.979,4.619c2.715,0,5.024-1.155,6.929-3.464
		c1.903-2.31,2.855-5.759,2.855-10.351c0-5.123-0.924-8.811-2.771-11.065c-1.848-2.253-4.214-3.38-7.097-3.38
		c-2.8,0-5.145,1.113-7.033,3.338C312.617,30.549,311.673,33.874,311.673,38.297z"/>
	<path class="st0" d="M366.871,30.57l-10.708-1.932c1.203-4.311,3.275-7.502,6.215-9.574c2.939-2.071,7.307-3.107,13.102-3.107
		c5.263,0,9.182,0.624,11.758,1.869c2.575,1.246,4.389,2.828,5.438,4.745c1.051,1.918,1.575,5.438,1.575,10.561l-0.126,13.773
		c0,3.92,0.189,6.81,0.566,8.671c0.379,1.862,1.085,3.857,2.121,5.984h-11.674c-0.309-0.783-0.687-1.945-1.134-3.485
		c-0.196-0.699-0.336-1.161-0.42-1.386c-2.016,1.96-4.172,3.43-6.467,4.409c-2.296,0.979-4.745,1.47-7.349,1.47
		c-4.592,0-8.209-1.245-10.855-3.737c-2.645-2.491-3.968-5.641-3.968-9.448c0-2.52,0.602-4.766,1.806-6.74
		c1.203-1.974,2.891-3.485,5.061-4.535c2.169-1.05,5.297-1.966,9.385-2.75c5.515-1.035,9.336-2.001,11.464-2.897v-1.176
		c0-2.268-0.561-3.884-1.68-4.85c-1.12-0.966-3.233-1.449-6.341-1.449c-2.1,0-3.737,0.414-4.913,1.239
		C368.551,27.05,367.599,28.499,366.871,30.57z M382.66,40.145c-1.512,0.504-3.905,1.106-7.181,1.806
		c-3.275,0.7-5.417,1.386-6.425,2.058c-1.54,1.092-2.31,2.478-2.31,4.157c0,1.652,0.615,3.08,1.848,4.283
		c1.231,1.204,2.799,1.806,4.703,1.806c2.127,0,4.157-0.699,6.089-2.1c1.428-1.063,2.365-2.365,2.813-3.905
		c0.308-1.008,0.462-2.925,0.462-5.753V40.145z"/>
	<path class="st0" d="M406.857,61.561h-11.8V16.965h10.96v6.341c1.875-2.995,3.562-4.969,5.061-5.921
		c1.497-0.951,3.197-1.428,5.102-1.428c2.688,0,5.276,0.742,7.769,2.226l-3.653,10.288c-1.988-1.287-3.836-1.932-5.543-1.932
		c-1.652,0-3.052,0.456-4.199,1.365c-1.148,0.91-2.051,2.555-2.709,4.934c-0.657,2.38-0.986,7.363-0.986,14.949V61.561z"/>
	<path class="st0" d="M439.159,16.965v9.406h-8.062v17.973c0,3.64,0.077,5.76,0.23,6.362c0.154,0.603,0.504,1.099,1.051,1.491
		c0.545,0.393,1.21,0.588,1.994,0.588c1.092,0,2.673-0.378,4.745-1.134l1.008,9.154c-2.744,1.176-5.852,1.764-9.322,1.764
		c-2.128,0-4.046-0.357-5.753-1.071c-1.708-0.714-2.961-1.638-3.758-2.771c-0.799-1.134-1.352-2.667-1.659-4.598
		c-0.252-1.371-0.378-4.143-0.378-8.314V26.371h-5.417v-9.406h5.417v-8.86l11.842-6.887v15.747H439.159z"/>
	<path class="st0" d="M437.027,10.918V0h11.8v10.918H437.027z M437.027,61.561V16.965h11.8v44.596H437.027z"/>
	<path class="st0" d="M446.444,48.837l11.842-1.806c0.504,2.296,1.525,4.039,3.065,5.228c1.539,1.19,3.695,1.785,6.467,1.785
		c3.051,0,5.347-0.56,6.887-1.68c1.035-0.783,1.554-1.833,1.554-3.149c0-0.896-0.28-1.638-0.84-2.226
		c-0.588-0.56-1.904-1.077-3.947-1.554c-9.519-2.1-15.552-4.017-18.099-5.753c-3.527-2.407-5.291-5.753-5.291-10.036
		c0-3.863,1.525-7.11,4.577-9.742c3.051-2.631,7.782-3.947,14.193-3.947c6.103,0,10.638,0.994,13.605,2.981
		c2.967,1.988,5.011,4.928,6.131,8.818l-11.128,2.058c-0.477-1.735-1.379-3.065-2.708-3.989c-1.33-0.924-3.228-1.386-5.69-1.386
		c-3.107,0-5.333,0.435-6.677,1.302c-0.896,0.616-1.344,1.414-1.344,2.394c0,0.84,0.392,1.554,1.176,2.142
		c1.063,0.784,4.738,1.89,11.023,3.317c6.284,1.428,10.672,3.178,13.164,5.249c2.463,2.1,3.695,5.025,3.695,8.776
		c0,4.088-1.708,7.601-5.123,10.54c-3.416,2.939-8.469,4.409-15.159,4.409c-6.075,0-10.883-1.231-14.425-3.695
		C449.853,56.41,447.536,53.064,446.444,48.837z"/>
	<path class="st0" d="M508.561,16.965v9.406h-8.062v17.973c0,3.64,0.077,5.76,0.23,6.362c0.154,0.603,0.504,1.099,1.051,1.491
		c0.545,0.393,1.21,0.588,1.994,0.588c1.092,0,2.673-0.378,4.745-1.134l1.008,9.154c-2.744,1.176-5.852,1.764-9.322,1.764
		c-2.128,0-4.046-0.357-5.753-1.071c-1.708-0.714-2.961-1.638-3.758-2.771c-0.799-1.134-1.352-2.667-1.659-4.598
		c-0.252-1.371-0.378-4.143-0.378-8.314V26.371h-5.417v-9.406h5.417v-8.86l11.842-6.887v15.747H508.561z"/>
	<path class="st0" d="M502.271,48.837l11.842-1.806c0.504,2.296,1.525,4.039,3.065,5.228c1.539,1.19,3.695,1.785,6.467,1.785
		c3.051,0,5.347-0.56,6.887-1.68c1.035-0.783,1.554-1.833,1.554-3.149c0-0.896-0.28-1.638-0.84-2.226
		c-0.588-0.56-1.904-1.077-3.947-1.554c-9.519-2.1-15.552-4.017-18.099-5.753c-3.527-2.407-5.291-5.753-5.291-10.036
		c0-3.863,1.525-7.11,4.577-9.742c3.051-2.631,7.782-3.947,14.193-3.947c6.103,0,10.638,0.994,13.605,2.981
		c2.967,1.988,5.011,4.928,6.131,8.818l-11.128,2.058c-0.477-1.735-1.379-3.065-2.708-3.989c-1.33-0.924-3.228-1.386-5.69-1.386
		c-3.107,0-5.333,0.435-6.677,1.302c-0.896,0.616-1.344,1.414-1.344,2.394c0,0.84,0.392,1.554,1.176,2.142
		c1.063,0.784,4.738,1.89,11.023,3.317c6.284,1.428,10.672,3.178,13.164,5.249c2.463,2.1,3.695,5.025,3.695,8.776
		c0,4.088-1.708,7.601-5.123,10.54c-3.416,2.939-8.469,4.409-15.159,4.409c-6.075,0-10.883-1.231-14.425-3.695
		C505.68,56.41,503.363,53.064,502.271,48.837z"/>
</g>
<line class="st1" x1="4.935" y1="69.561" x2="522.935" y2="69.561"/>
</svg>