<!-- Generator: Adobe Illustrator 18.1.1, SVG Export Plug-In  -->
<svg version="1.1"
	 xmlns="http://www.w3.org/2000/svg" xmlns:xlink="http://www.w3.org/1999/xlink" xmlns:a="http://ns.adobe.com/AdobeSVGViewerExtensions/3.0/"
	 x="0px" y="0px" width="78.188px" height="8.132px" viewBox="0 0 78.188 8.132" enable-background="new 0 0 78.188 8.132"
	 xml:space="preserve">
<defs>
</defs>
<g>
	<path d="M0,0.144h4.713v1.175H1.391v2.003H4.21v1.175H1.391v2.315h3.442v1.175H0V0.144z"/>
	<path d="M9.132,6.033c0.563,0.528,1.319,0.888,2.051,0.888c0.875,0,1.367-0.396,1.367-1.007c0-0.648-0.504-0.852-1.224-1.151
		l-1.067-0.468C9.479,3.97,8.676,3.358,8.676,2.207C8.676,0.959,9.779,0,11.302,0c0.924,0,1.811,0.384,2.423,0.996l-0.72,0.888
		c-0.492-0.42-1.031-0.672-1.703-0.672c-0.744,0-1.223,0.348-1.223,0.923c0,0.612,0.6,0.84,1.247,1.104l1.056,0.444
		c0.936,0.396,1.583,0.983,1.583,2.123c0,1.271-1.055,2.327-2.818,2.327c-1.056,0-2.075-0.42-2.818-1.151L9.132,6.033z"/>
	<path d="M17.832,0.144h1.391v3.562h0.036l2.794-3.562h1.535l-2.411,3.059l2.818,4.785h-1.535L20.35,4.294l-1.127,1.403v2.291
		h-1.391V0.144z"/>
	<path d="M27.419,0.144h1.391v7.844h-1.391V0.144z"/>
	<path d="M33.227,0.144h1.523l1.415,3.862l0.516,1.487h0.048l0.516-1.487l1.379-3.862h1.535v7.844h-1.307V4.402
		c0-0.732,0.108-1.775,0.18-2.495h-0.048l-0.636,1.787l-1.355,3.562h-0.636l-1.355-3.562l-0.624-1.787h-0.048
		c0.06,0.72,0.168,1.763,0.168,2.495v3.586h-1.271V0.144z"/>
	<path d="M44.591,0.144h4.713v1.175h-3.322v2.003h2.819v1.175h-2.819v2.315h3.442v1.175h-4.833V0.144z"/>
	<path d="M57.093,5.865h-2.627l-0.611,2.123h-1.427l2.566-7.844h1.631l2.554,7.844h-1.475L57.093,5.865z M56.781,4.773l-0.276-0.959
		c-0.24-0.828-0.479-1.727-0.708-2.59H55.75c-0.216,0.875-0.444,1.763-0.696,2.59l-0.276,0.959H56.781z"/>
	<path d="M62.53,0.144h1.391v4.51c0,1.703,0.648,2.267,1.595,2.267c0.959,0,1.619-0.564,1.619-2.267v-4.51h1.343v4.402
		c0,2.578-1.151,3.586-2.962,3.586c-1.823,0-2.986-1.008-2.986-3.586V0.144z"/>
	<path d="M74.242,3.946l-2.087-3.802h1.547l0.875,1.739c0.18,0.36,0.348,0.731,0.587,1.199h0.048
		c0.192-0.468,0.36-0.839,0.528-1.199l0.828-1.739h1.475l-2.087,3.862l2.231,3.982H76.64l-0.959-1.847
		c-0.204-0.408-0.396-0.803-0.624-1.283h-0.048c-0.204,0.48-0.396,0.875-0.588,1.283l-0.923,1.847h-1.475L74.242,3.946z"/>
</g>
</svg>