<!-- Generator: Adobe Illustrator 19.2.0, SVG Export Plug-In  -->
<svg version="1.1"
	 xmlns="http://www.w3.org/2000/svg" xmlns:xlink="http://www.w3.org/1999/xlink" xmlns:a="http://ns.adobe.com/AdobeSVGViewerExtensions/3.0/"
	 x="0px" y="0px" width="136.001px" height="64.351px" viewBox="0 0 136.001 64.351"
	 style="enable-background:new 0 0 136.001 64.351;" xml:space="preserve">
<style type="text/css">
	.st0{fill:#5D5D5D;}
	.st1{fill:#5D5D5D;stroke:#5D5D5D;stroke-width:2;stroke-miterlimit:10;}
</style>
<defs>
</defs>
<g>
	<path class="st0" d="M25.321,15.747v9.406h-8.062v17.973c0,3.64,0.077,5.76,0.231,6.362c0.153,0.603,0.504,1.099,1.05,1.491
		c0.546,0.393,1.21,0.588,1.995,0.588c1.092,0,2.673-0.378,4.745-1.134l1.008,9.154c-2.744,1.176-5.852,1.764-9.322,1.764
		c-2.128,0-4.046-0.357-5.753-1.071c-1.708-0.714-2.96-1.638-3.758-2.771s-1.351-2.667-1.659-4.598
		c-0.252-1.371-0.378-4.143-0.378-8.314V25.153H0v-9.406h5.417v-8.86L17.259,0v15.747H25.321z"/>
	<path class="st0" d="M20.46,37.415c0-3.919,0.966-7.712,2.897-11.38c1.932-3.667,4.667-6.467,8.209-8.398
		c3.541-1.932,7.496-2.897,11.863-2.897c6.746,0,12.275,2.191,16.587,6.572c4.311,4.382,6.467,9.917,6.467,16.608
		c0,6.747-2.177,12.339-6.53,16.776c-4.354,4.438-9.833,6.656-16.44,6.656c-4.088,0-7.986-0.924-11.695-2.771
		c-3.71-1.848-6.53-4.556-8.461-8.125S20.46,42.538,20.46,37.415z M32.554,38.045c0,4.424,1.05,7.811,3.149,10.162
		s4.688,3.527,7.769,3.527c3.079,0,5.662-1.176,7.748-3.527c2.085-2.352,3.128-5.767,3.128-10.246c0-4.367-1.043-7.727-3.128-10.078
		c-2.086-2.352-4.668-3.527-7.748-3.527c-3.08,0-5.669,1.176-7.769,3.527S32.554,33.622,32.554,38.045z"/>
	<path class="st0" d="M94.754,60.343v-6.677c-1.624,2.38-3.758,4.256-6.404,5.627s-5.438,2.058-8.377,2.058
		c-2.996,0-5.684-0.658-8.062-1.974c-2.38-1.315-4.102-3.163-5.165-5.543c-1.064-2.379-1.596-5.669-1.596-9.868V15.747h11.8v20.492
		c0,6.271,0.216,10.114,0.651,11.527c0.434,1.414,1.224,2.534,2.373,3.359c1.147,0.826,2.604,1.239,4.367,1.239
		c2.016,0,3.821-0.552,5.417-1.659c1.596-1.105,2.688-2.478,3.275-4.115s0.882-5.648,0.882-12.031V15.747h11.8v44.596H94.754z"/>
	<path class="st0" d="M118.91,60.343h-11.8V15.747h10.96v6.341c1.875-2.995,3.562-4.969,5.06-5.921
		c1.497-0.951,3.198-1.428,5.102-1.428c2.688,0,5.276,0.742,7.769,2.226l-3.653,10.288c-1.988-1.287-3.836-1.932-5.543-1.932
		c-1.652,0-3.052,0.456-4.199,1.365c-1.148,0.91-2.051,2.555-2.708,4.934c-0.658,2.38-0.987,7.363-0.987,14.949V60.343z"/>
</g>
<line class="st1" x1="6.457" y1="63.351" x2="121.556" y2="63.351"/>
</svg>