<!-- Generator: Adobe Illustrator 18.1.1, SVG Export Plug-In  -->
<svg version="1.1"
	 xmlns="http://www.w3.org/2000/svg" xmlns:xlink="http://www.w3.org/1999/xlink" xmlns:a="http://ns.adobe.com/AdobeSVGViewerExtensions/3.0/"
	 x="0px" y="0px" width="23.704px" height="23.704px" viewBox="0 0 23.704 23.704" enable-background="new 0 0 23.704 23.704"
	 xml:space="preserve">
<defs>
</defs>
<g>
	<path d="M11.838,0c1.643,0,3.182,0.312,4.616,0.935s2.69,1.468,3.767,2.535c1.076,1.067,1.926,2.318,2.549,3.752
		c0.623,1.435,0.935,2.974,0.935,4.616s-0.312,3.182-0.935,4.616c-0.623,1.435-1.473,2.69-2.549,3.767s-2.332,1.926-3.767,2.549
		s-2.974,0.935-4.616,0.935s-3.182-0.312-4.616-0.935s-2.686-1.473-3.753-2.549c-1.066-1.076-1.911-2.332-2.534-3.767
		C0.312,15.02,0,13.48,0,11.838s0.312-3.181,0.935-4.616c0.623-1.435,1.468-2.686,2.534-3.752c1.067-1.066,2.318-1.912,3.753-2.535
		S10.195,0,11.838,0z M18.465,6.684c0-0.434-0.151-0.802-0.453-1.104c-0.302-0.302-0.67-0.453-1.104-0.453H6.542
		c-0.435,0-0.803,0.151-1.104,0.453C5.136,5.881,4.984,6.25,4.984,6.684v10.365c0,0.435,0.151,0.803,0.453,1.104
		c0.302,0.302,0.67,0.453,1.104,0.453h10.365c0.435,0,0.803-0.151,1.104-0.453c0.302-0.302,0.453-0.67,0.453-1.104V6.684z
		 M15.859,11.866c0-0.17-0.01-0.344-0.028-0.524c-0.019-0.179-0.047-0.344-0.085-0.496h1.161v5.692c0,0.151-0.047,0.274-0.142,0.368
		c-0.095,0.095-0.217,0.142-0.368,0.142H7.052c-0.151,0-0.273-0.047-0.368-0.142c-0.095-0.094-0.142-0.217-0.142-0.368v-5.692h1.161
		c-0.038,0.151-0.066,0.316-0.085,0.496C7.6,11.522,7.59,11.696,7.59,11.866c0,0.566,0.108,1.104,0.326,1.614
		c0.217,0.51,0.51,0.954,0.877,1.331c0.369,0.378,0.808,0.675,1.317,0.892c0.51,0.217,1.048,0.326,1.614,0.326
		s1.104-0.108,1.614-0.326c0.51-0.217,0.948-0.514,1.317-0.892c0.367-0.377,0.66-0.821,0.877-1.331
		C15.751,12.971,15.859,12.433,15.859,11.866z M11.725,14.472c-0.358,0-0.693-0.066-1.006-0.198
		c-0.311-0.132-0.585-0.316-0.82-0.552c-0.236-0.236-0.421-0.514-0.553-0.835c-0.132-0.321-0.198-0.661-0.198-1.02
		c0-0.358,0.066-0.694,0.198-1.005s0.316-0.585,0.553-0.821c0.235-0.236,0.51-0.42,0.82-0.552c0.312-0.132,0.647-0.198,1.006-0.198
		c0.718,0,1.326,0.25,1.826,0.75c0.501,0.5,0.751,1.109,0.751,1.827c0,0.359-0.066,0.699-0.198,1.02
		c-0.132,0.321-0.316,0.6-0.553,0.835c-0.235,0.236-0.51,0.42-0.82,0.552C12.418,14.406,12.083,14.472,11.725,14.472z M16.397,6.684
		c0.151,0,0.273,0.052,0.368,0.156c0.095,0.104,0.142,0.231,0.142,0.382v1.558c0,0.151-0.047,0.274-0.142,0.368
		c-0.095,0.095-0.217,0.142-0.368,0.142H14.84c-0.151,0-0.278-0.047-0.383-0.142c-0.104-0.094-0.155-0.217-0.155-0.368V7.222
		c0-0.151,0.052-0.278,0.155-0.382c0.104-0.104,0.231-0.156,0.383-0.156H16.397z"/>
</g>
</svg>