<!-- Generator: Adobe Illustrator 18.1.1, SVG Export Plug-In  -->
<svg version="1.1"
	 xmlns="http://www.w3.org/2000/svg" xmlns:xlink="http://www.w3.org/1999/xlink" xmlns:a="http://ns.adobe.com/AdobeSVGViewerExtensions/3.0/"
	 x="0px" y="0px" width="173.72px" height="32.786px" viewBox="0 0 173.72 32.786" enable-background="new 0 0 173.72 32.786"
	 xml:space="preserve">
<defs>
</defs>
<g>
	<path d="M0,25.46V10.89h1.922v2.25c1.183-1.862,2.896-2.792,5.141-2.792c1.654,0,2.94,0.457,3.86,1.372
		c0.92,0.914,1.38,2.198,1.38,3.852v9.888H10.25v-8.985c0-2.869-1.246-4.304-3.736-4.304c-3.007,0-4.51,1.894-4.51,5.683v7.605H0z"
		/>
	<path d="M39.734,18.233h-11.58c0.055,1.719,0.46,3.115,1.216,4.189c0.876,1.237,2.13,1.856,3.762,1.856
		c2.157,0,3.772-1.166,4.846-3.499l1.856,1.018c-1.445,2.869-3.679,4.304-6.702,4.304c-2.212,0-3.975-0.75-5.289-2.25
		c-1.248-1.435-1.873-3.274-1.873-5.519c0-2.278,0.602-4.15,1.807-5.618c1.303-1.577,3.066-2.365,5.289-2.365
		c2.113,0,3.772,0.723,4.977,2.168c1.128,1.358,1.692,3.115,1.692,5.273V18.233z M37.336,16.508
		c-0.208-2.803-1.719-4.205-4.534-4.205c-1.248,0-2.28,0.386-3.096,1.158c-0.816,0.772-1.289,1.788-1.421,3.047H37.336z"/>
	<path d="M57.168,26.411l-5.82-15.521h2.123l3.793,10.489l4.58-11.261l4.565,11.268l3.808-10.496h2.123l-5.833,15.507l-4.623-11.584
		L57.168,26.411z"/>
	<path d="M117.33,10.89v12.04c0,3.471-0.224,5.683-0.673,6.636c-1.018,2.146-3.104,3.219-6.258,3.219
		c-3.866,0-6.028-1.511-6.488-4.534h2.541c0.33,1.818,1.71,2.727,4.141,2.727c2.606,0,4.135-1.013,4.586-3.039
		c0.1-0.482,0.149-1.221,0.149-2.217v-2.957c-0.968,2.223-2.721,3.334-5.262,3.334c-2.187,0-3.892-0.783-5.113-2.349
		c-1.099-1.424-1.649-3.263-1.649-5.519c0-2.245,0.572-4.09,1.715-5.536c1.243-1.566,2.958-2.349,5.147-2.349
		c1.132,0,2.16,0.285,3.084,0.854c0.968,0.591,1.66,1.396,2.078,2.415V10.89H117.33z M110.374,12.204
		c-1.645,0-2.902,0.619-3.768,1.856c-0.746,1.084-1.118,2.486-1.118,4.205c0,1.697,0.35,3.066,1.053,4.106
		c0.812,1.226,2.024,1.84,3.637,1.84c1.678,0,2.977-0.619,3.898-1.856c0.835-1.106,1.251-2.53,1.251-4.271
		c0-1.719-0.39-3.099-1.169-4.139C113.292,12.785,112.03,12.204,110.374,12.204z"/>
	<path d="M139.012,26.101c-2.113,0-3.975-0.794-5.585-2.382c-1.5-1.478-2.25-3.318-2.25-5.519c0-2.179,0.764-4.033,2.291-5.56
		c1.528-1.528,3.376-2.291,5.544-2.291c2.212,0,4.096,0.767,5.651,2.3s2.332,3.384,2.332,5.552c0,2.157-0.767,3.997-2.3,5.519
		C143.097,25.307,141.203,26.101,139.012,26.101z M139.078,24.212c1.643,0,3.017-0.591,4.123-1.774
		c1.073-1.15,1.61-2.551,1.61-4.205c0-1.664-0.542-3.08-1.626-4.246s-2.453-1.749-4.106-1.749c-1.654,0-3.02,0.583-4.098,1.749
		c-1.079,1.166-1.618,2.582-1.618,4.246c0,1.654,0.537,3.055,1.61,4.205C136.067,23.62,137.436,24.212,139.078,24.212z"/>
	<path d="M171.667,25.46v-2.661c-0.975,2.201-2.666,3.302-5.076,3.302c-2.201,0-3.931-0.772-5.191-2.316
		c-1.183-1.435-1.774-3.274-1.774-5.519c0-2.19,0.569-4.024,1.708-5.503c1.248-1.61,2.935-2.415,5.059-2.415
		c2.519,0,4.276,1.068,5.273,3.203V0h2.053v25.46H171.667z M161.861,18.331c0,1.752,0.372,3.137,1.116,4.156
		c0.842,1.15,2.104,1.725,3.788,1.725c1.673,0,2.94-0.652,3.804-1.955c0.732-1.106,1.099-2.541,1.099-4.304
		c0-1.675-0.383-3.022-1.148-4.041c-0.864-1.139-2.104-1.708-3.722-1.708c-1.662,0-2.929,0.63-3.804,1.889
		C162.237,15.178,161.861,16.59,161.861,18.331z"/>
</g>
</svg>