<!-- Generator: Adobe Illustrator 18.1.1, SVG Export Plug-In  -->
<svg version="1.1"
	 xmlns="http://www.w3.org/2000/svg" xmlns:xlink="http://www.w3.org/1999/xlink" xmlns:a="http://ns.adobe.com/AdobeSVGViewerExtensions/3.0/"
	 x="0px" y="0px" width="137.349px" height="43.113px" viewBox="0 0 137.349 43.113" enable-background="new 0 0 137.349 43.113"
	 xml:space="preserve">
<defs>
</defs>
<g>
	<g>
		<path fill="#5D5D5D" d="M48.801,5.475c-0.433-0.591-1.113-0.935-1.841-0.935H23.81c-1.251,0-2.275,1.014-2.275,2.275
			s1.014,2.275,2.275,2.275h20.028l-1.221,3.801H23.81c-1.251,0-2.275,1.014-2.275,2.275c0,1.251,1.014,2.275,2.275,2.275h17.35
			l-1.507,4.687H20.708L11.924,1.388C11.57,0.551,10.743,0,9.837,0H2.275C1.014,0,0,1.014,0,2.275s1.014,2.275,2.275,2.275H8.33
			l8.783,20.737c0.354,0.837,1.182,1.388,2.088,1.388h22.096c0.985,0,1.861-0.64,2.166-1.575l5.662-17.577
			C49.342,6.824,49.224,6.066,48.801,5.475z"/>
		<path fill="#5D5D5D" d="M21.496,29.688c-2.59,0-4.697,2.097-4.697,4.697c0,2.59,2.097,4.697,4.697,4.697
			c2.59,0,4.697-2.097,4.697-4.697S24.085,29.688,21.496,29.688z"/>
		<path fill="#5D5D5D" d="M39.791,29.688c-2.59,0-4.697,2.097-4.697,4.697c0,2.59,2.097,4.697,4.697,4.697
			c2.59,0,4.697-2.097,4.697-4.697C44.488,31.785,42.39,29.688,39.791,29.688z"/>
	</g>
</g>
<g>
	<path fill="#5D5D5D" d="M50.269,27.839l6.092-0.929c0.259,1.181,0.785,2.077,1.577,2.689c0.792,0.612,1.901,0.918,3.327,0.918
		c1.57,0,2.751-0.288,3.543-0.864c0.533-0.403,0.799-0.943,0.799-1.62c0-0.461-0.144-0.843-0.432-1.146
		c-0.302-0.287-0.979-0.554-2.031-0.799c-4.897-1.08-8.001-2.066-9.312-2.96c-1.814-1.238-2.722-2.96-2.722-5.163
		c0-1.988,0.785-3.658,2.355-5.012c1.57-1.354,4.004-2.031,7.302-2.031c3.14,0,5.473,0.512,7,1.534
		c1.526,1.022,2.578,2.536,3.154,4.536l-5.725,1.059c-0.245-0.893-0.71-1.577-1.394-2.052c-0.685-0.475-1.66-0.712-2.928-0.712
		c-1.599,0-2.744,0.223-3.435,0.669c-0.461,0.317-0.691,0.727-0.691,1.231c0,0.433,0.202,0.8,0.605,1.102
		c0.547,0.404,2.438,0.973,5.671,1.707c3.233,0.734,5.491,1.635,6.773,2.701c1.267,1.08,1.901,2.585,1.901,4.515
		c0,2.104-0.878,3.91-2.635,5.423c-1.758,1.513-4.357,2.269-7.799,2.269c-3.125,0-5.599-0.634-7.421-1.901
		C52.022,31.734,50.83,30.013,50.269,27.839z"/>
	<path fill="#5D5D5D" d="M77.755,2.713v11.645c1.959-2.29,4.299-3.435,7.021-3.435c1.396,0,2.656,0.259,3.781,0.778
		c1.123,0.519,1.969,1.181,2.537,1.988c0.57,0.806,0.959,1.7,1.168,2.679c0.209,0.979,0.312,2.499,0.312,4.557v13.46h-6.07v-12.12
		c0-2.405-0.115-3.932-0.346-4.58s-0.637-1.163-1.221-1.544c-0.584-0.381-1.314-0.572-2.193-0.572c-1.008,0-1.908,0.245-2.701,0.734
		c-0.791,0.49-1.371,1.228-1.738,2.214s-0.551,2.444-0.551,4.375v11.493h-6.071V2.713H77.755z"/>
	<path fill="#5D5D5D" d="M92.018,22.589c0-2.017,0.497-3.968,1.491-5.854c0.993-1.886,2.401-3.327,4.224-4.321
		c1.821-0.994,3.855-1.491,6.103-1.491c3.471,0,6.315,1.127,8.534,3.381c2.218,2.254,3.327,5.102,3.327,8.543
		c0,3.472-1.12,6.349-3.359,8.631c-2.24,2.283-5.06,3.425-8.458,3.425c-2.104,0-4.109-0.476-6.018-1.426
		c-1.908-0.951-3.359-2.344-4.353-4.181C92.515,27.461,92.018,25.224,92.018,22.589z M98.24,22.913c0,2.275,0.541,4.019,1.621,5.229
		c1.08,1.209,2.412,1.814,3.996,1.814c1.585,0,2.913-0.605,3.986-1.814c1.073-1.21,1.609-2.968,1.609-5.271
		c0-2.247-0.536-3.976-1.609-5.186c-1.073-1.209-2.401-1.814-3.986-1.814c-1.584,0-2.916,0.604-3.996,1.814
		C98.781,18.894,98.24,20.637,98.24,22.913z"/>
	<path fill="#5D5D5D" d="M114.967,11.441h5.66v3.37c0.734-1.151,1.729-2.087,2.981-2.808s2.643-1.081,4.17-1.081
		c2.664,0,4.926,1.044,6.783,3.133c1.858,2.088,2.787,4.997,2.787,8.728c0,3.831-0.937,6.81-2.809,8.934s-4.141,3.187-6.805,3.187
		c-1.268,0-2.417-0.252-3.446-0.756c-1.03-0.504-2.114-1.368-3.251-2.593v11.559h-6.071V11.441z M120.973,22.524
		c0,2.578,0.512,4.482,1.534,5.714s2.269,1.848,3.737,1.848c1.411,0,2.585-0.565,3.521-1.696s1.404-2.984,1.404-5.563
		c0-2.405-0.482-4.191-1.447-5.357c-0.965-1.167-2.16-1.75-3.586-1.75c-1.484,0-2.716,0.572-3.694,1.717
		C121.463,18.581,120.973,20.277,120.973,22.524z"/>
</g>
</svg>