<!-- Generator: Adobe Illustrator 18.1.1, SVG Export Plug-In  -->
<svg version="1.1"
	 xmlns="http://www.w3.org/2000/svg" xmlns:xlink="http://www.w3.org/1999/xlink" xmlns:a="http://ns.adobe.com/AdobeSVGViewerExtensions/3.0/"
	 x="0px" y="0px" width="9.809px" height="9.809px" viewBox="0 0 9.809 9.809" enable-background="new 0 0 9.809 9.809"
	 xml:space="preserve">
<defs>
</defs>
<g>
	<path d="M4.91,0c0.68,0,1.316,0.129,1.91,0.387s1.111,0.607,1.553,1.049s0.791,0.959,1.049,1.553s0.387,1.23,0.387,1.91
		S9.68,6.215,9.422,6.809S8.814,7.922,8.373,8.367S7.414,9.164,6.82,9.422S5.59,9.809,4.91,9.809S3.594,9.68,3,9.422
		S1.887,8.812,1.441,8.367S0.645,7.402,0.387,6.809S0,5.578,0,4.898s0.129-1.316,0.387-1.91s0.609-1.111,1.055-1.553
		S2.406,0.645,3,0.387S4.23,0,4.91,0z M6.738,6.492c-0.297,0.18-0.59,0.27-0.879,0.27c-0.164,0-0.309-0.035-0.434-0.105
		C5.324,6.594,5.254,6.512,5.215,6.41c-0.016-0.047-0.02-0.117-0.012-0.211s0.012-0.223,0.012-0.387V4.289h1.219V3.363H5.215V2.145
		H4.324C4.293,2.418,4.227,2.652,4.125,2.848C4.023,3.035,3.891,3.191,3.727,3.316c-0.086,0.07-0.189,0.129-0.311,0.176
		S3.18,3.582,3.07,3.621v0.668h0.914V6.34c0,0.203,0.012,0.381,0.035,0.533s0.102,0.291,0.234,0.416
		c0.062,0.062,0.139,0.115,0.229,0.158s0.186,0.08,0.287,0.111c0.109,0.039,0.209,0.066,0.299,0.082S5.27,7.664,5.402,7.664
		c0.234,0,0.453-0.023,0.656-0.07C6.168,7.57,6.277,7.539,6.387,7.5s0.227-0.086,0.352-0.141V6.492z"/>
</g>
</svg>