<!-- Generator: Adobe Illustrator 18.1.1, SVG Export Plug-In  -->
<svg version="1.1"
	 xmlns="http://www.w3.org/2000/svg" xmlns:xlink="http://www.w3.org/1999/xlink" xmlns:a="http://ns.adobe.com/AdobeSVGViewerExtensions/3.0/"
	 x="0px" y="0px" width="1071.619px" height="265.076px" viewBox="0 0 1071.619 265.076"
	 enable-background="new 0 0 1071.619 265.076" xml:space="preserve">
<defs>
</defs>
<g>
	<path fill="#5D5D5D" d="M0,75.061h27.295V61.063c0-15.629,1.662-27.295,4.986-34.993c3.325-7.699,9.448-13.967,18.372-18.809
		C59.576,2.422,70.862,0,84.509,0c13.998,0,27.702,2.1,41.117,6.299l-6.648,34.293c-7.816-1.864-15.34-2.799-22.571-2.799
		c-7.116,0-12.221,1.662-15.31,4.987c-3.092,3.324-4.637,9.71-4.637,19.159v13.123h36.743v38.668H76.461v147.147H27.295V113.729H0
		V75.061z"/>
	<path fill="#5D5D5D" d="M205.454,201.737l48.991,8.224c-6.299,17.964-16.245,31.642-29.832,41.03
		c-13.59,9.391-30.592,14.085-51.003,14.085c-32.312,0-56.225-10.556-71.736-31.669c-12.248-16.912-18.372-38.258-18.372-64.038
		c0-30.794,8.048-54.91,24.146-72.349c16.097-17.437,36.451-26.158,61.063-26.158c27.645,0,49.456,9.128,65.438,27.382
		c15.979,18.257,23.621,46.222,22.92,83.897H133.892c0.35,14.583,4.314,25.925,11.897,34.031c7.581,8.108,17.029,12.16,28.345,12.16
		c7.699,0,14.172-2.1,19.421-6.299S202.769,211.071,205.454,201.737z M208.253,152.047c-0.35-14.23-4.024-25.048-11.023-32.457
		c-6.999-7.406-15.515-11.11-25.545-11.11c-10.733,0-19.597,3.909-26.595,11.723c-6.999,7.816-10.44,18.432-10.323,31.844H208.253z"
		/>
	<path fill="#5D5D5D" d="M290.88,131.75l-44.617-8.048c5.014-17.961,13.647-31.259,25.895-39.893
		c12.248-8.631,30.444-12.948,54.59-12.948c21.929,0,38.258,2.597,48.991,7.786c10.73,5.191,18.284,11.783,22.658,19.771
		c4.374,7.991,6.561,22.658,6.561,44.004l-0.525,57.39c0,16.332,0.788,28.375,2.362,36.131c1.575,7.758,4.519,16.069,8.836,24.933
		h-48.641c-1.285-3.264-2.859-8.106-4.724-14.522c-0.817-2.914-1.4-4.839-1.75-5.774c-8.398,8.166-17.382,14.29-26.945,18.372
		c-9.565,4.082-19.771,6.124-30.619,6.124c-19.132,0-34.206-5.189-45.229-15.572c-11.023-10.38-16.535-23.503-16.535-39.368
		c0-10.498,2.507-19.859,7.524-28.082c5.014-8.224,12.042-14.522,21.083-18.896c9.038-4.375,22.073-8.193,39.105-11.46
		c22.979-4.314,38.9-8.338,47.766-12.073v-4.899c0-9.448-2.334-16.185-6.999-20.209c-4.667-4.024-13.473-6.036-26.42-6.036
		c-8.749,0-15.572,1.722-20.471,5.161C297.878,117.083,293.912,123.12,290.88,131.75z M356.667,171.643
		c-6.299,2.1-16.272,4.609-29.919,7.523c-13.647,2.917-22.571,5.774-26.77,8.574c-6.416,4.549-9.623,10.323-9.623,17.322
		c0,6.884,2.564,12.833,7.699,17.847c5.131,5.017,11.663,7.523,19.596,7.523c8.863,0,17.322-2.914,25.37-8.749
		c5.949-4.432,9.856-9.855,11.723-16.272c1.282-4.199,1.924-12.188,1.924-23.97V171.643z"/>
	<path fill="#5D5D5D" d="M495.634,75.061v39.193H462.04v74.886c0,15.165,0.32,24.001,0.962,26.508c0.64,2.51,2.1,4.579,4.374,6.211
		c2.275,1.635,5.044,2.449,8.311,2.449c4.549,0,11.138-1.575,19.771-4.724l4.199,38.143c-11.433,4.899-24.38,7.349-38.843,7.349
		c-8.866,0-16.857-1.487-23.971-4.462c-7.116-2.974-12.335-6.823-15.66-11.548c-3.324-4.724-5.629-11.11-6.911-19.159
		c-1.05-5.714-1.575-17.262-1.575-34.644v-81.01h-22.571V75.061h22.571V38.143L462.04,9.448v65.613H495.634z"/>
	<path fill="#5D5D5D" d="M609.055,260.876v-27.82c-6.766,9.916-15.66,17.732-26.683,23.446c-11.022,5.713-22.658,8.573-34.905,8.573
		c-12.483,0-23.682-2.742-33.594-8.224c-9.916-5.481-17.089-13.18-21.521-23.096c-4.435-9.913-6.649-23.621-6.649-41.117V75.061
		h49.167v85.384c0,26.13,0.901,42.14,2.711,48.028c1.808,5.892,5.102,10.558,9.887,13.998c4.781,3.442,10.848,5.162,18.195,5.162
		c8.398,0,15.923-2.302,22.571-6.912c6.649-4.606,11.198-10.323,13.647-17.146s3.674-23.533,3.674-50.128V75.061h49.166v185.815
		H609.055z"/>
	<path fill="#5D5D5D" d="M709.703,260.876h-49.166V75.061h45.666v26.42c7.814-12.48,14.843-20.704,21.084-24.67
		c6.238-3.964,13.324-5.949,21.258-5.949c11.199,0,21.986,3.092,32.369,9.273l-15.221,42.867
		c-8.285-5.364-15.982-8.048-23.096-8.048c-6.885,0-12.716,1.897-17.498,5.687c-4.783,3.792-8.545,10.646-11.285,20.559
		c-2.742,9.916-4.111,30.68-4.111,62.289V260.876z"/>
	<path fill="#5D5D5D" d="M866.69,201.737l48.991,8.224c-6.299,17.964-16.245,31.642-29.832,41.03
		c-13.59,9.391-30.592,14.085-51.003,14.085c-32.312,0-56.225-10.556-71.737-31.669c-12.247-16.912-18.371-38.258-18.371-64.038
		c0-30.794,8.049-54.91,24.146-72.349c16.097-17.437,36.45-26.158,61.063-26.158c27.645,0,49.456,9.128,65.438,27.382
		c15.979,18.257,23.621,46.222,22.921,83.897H795.129c0.35,14.583,4.313,25.925,11.897,34.031
		c7.581,8.108,17.029,12.16,28.345,12.16c7.699,0,14.173-2.1,19.422-6.299S864.006,211.071,866.69,201.737z M869.49,152.047
		c-0.351-14.23-4.024-25.048-11.023-32.457c-6.998-7.406-15.515-11.11-25.545-11.11c-10.733,0-19.597,3.909-26.596,11.723
		c-6.998,7.816-10.44,18.432-10.322,31.844H869.49z"/>
	<path fill="#5D5D5D" d="M898.052,207.861l49.341-7.523c2.1,9.565,6.356,16.827,12.772,21.783
		c6.414,4.959,15.397,7.436,26.945,7.436c12.712,0,22.278-2.332,28.694-6.999c4.314-3.264,6.474-7.638,6.474-13.123
		c0-3.732-1.167-6.824-3.499-9.273c-2.449-2.332-7.934-4.489-16.447-6.474c-39.66-8.749-64.798-16.737-75.411-23.971
		c-14.697-10.03-22.045-23.97-22.045-41.817c0-16.097,6.355-29.627,19.071-40.593c12.712-10.962,32.426-16.447,59.139-16.447
		c25.428,0,44.324,4.142,56.689,12.423c12.362,8.283,20.879,20.531,25.545,36.743l-46.366,8.573
		c-1.984-7.231-5.746-12.772-11.285-16.622c-5.542-3.849-13.445-5.774-23.708-5.774c-12.948,0-22.221,1.81-27.82,5.424
		c-3.734,2.567-5.599,5.891-5.599,9.973c0,3.499,1.632,6.474,4.899,8.923c4.432,3.267,19.741,7.874,45.929,13.822
		c26.185,5.949,44.469,13.24,54.853,21.871c10.263,8.748,15.396,20.938,15.396,36.568c0,17.032-7.116,31.669-21.346,43.917
		c-14.232,12.248-35.286,18.372-63.163,18.372c-25.313,0-45.347-5.131-60.102-15.397
		C912.251,239.416,902.601,225.476,898.052,207.861z"/>
</g>
</svg>